<svg width="544" height="350" viewBox="0 0 544 350" fill="none" xmlns="http://www.w3.org/2000/svg">
<path d="M409.888 45.3516L417.132 33.3707L413.532 31.0857C413.023 30.7549 412.614 30.2856 412.35 29.7302C412.086 29.1748 411.978 28.5552 412.038 27.9404C412.096 27.2551 412.119 26.5671 412.108 25.8794C412.09 25.2495 412.244 24.6271 412.553 24.0824C412.861 23.5376 413.313 23.0923 413.855 22.7968L417.542 20.7626L411.024 8.33374L407.311 10.3679C406.79 10.6609 406.2 10.7986 405.607 10.7653C405.014 10.7321 404.442 10.5292 403.956 10.1797C403.358 9.75149 402.737 9.35952 402.095 9.00582C401.573 8.71046 401.141 8.27295 400.846 7.74161C400.552 7.21027 400.406 6.60579 400.426 5.99493L400.566 1.67573L386.822 1.24561L386.691 5.57376C386.67 6.18511 386.485 6.7788 386.157 7.28947C385.829 7.80015 385.369 8.20801 384.829 8.46816C384.506 8.6205 384.192 8.7818 383.877 8.95205C383.562 9.12231 383.248 9.31049 382.951 9.49868C382.443 9.81702 381.86 9.98547 381.265 9.98547C380.669 9.98547 380.086 9.81702 379.578 9.49868L375.978 7.20466L368.735 19.1855L372.344 21.4795C372.851 21.8129 373.259 22.2842 373.521 22.8411C373.784 23.398 373.89 24.0186 373.829 24.6338C373.777 25.3148 373.75 25.9958 373.759 26.6858C373.781 27.3098 373.633 27.9275 373.332 28.4703C373.031 29.013 372.589 29.4593 372.055 29.7595L368.351 31.8026L374.851 44.2314L378.556 42.1883C379.096 41.8985 379.704 41.7685 380.312 41.8128C380.92 41.8572 381.504 42.074 381.998 42.4393C382.546 42.8216 383.114 43.18 383.702 43.5146C384.237 43.8006 384.684 44.2338 384.993 44.7655C385.302 45.2973 385.46 45.9067 385.45 46.5255L385.319 50.8805L399.054 51.3196L399.185 46.9914C399.21 46.3742 399.401 45.7762 399.737 45.2637C400.074 44.7512 400.542 44.3442 401.09 44.0881C401.404 43.9357 401.701 43.7834 402.007 43.6131C402.313 43.4429 402.601 43.2816 402.881 43.1024C403.396 42.7774 403.989 42.6053 404.594 42.6053C405.198 42.6053 405.791 42.7774 406.306 43.1024L409.888 45.3516ZM399.508 35.6647C397.597 37.0745 395.303 37.8344 392.949 37.8379C390.594 37.8413 388.298 37.088 386.383 35.6839C384.468 34.2798 383.03 32.2954 382.271 30.0098C381.512 27.7241 381.471 25.252 382.153 22.9411C382.835 20.6301 384.206 18.5964 386.073 17.1259C387.941 15.6554 390.21 14.8219 392.563 14.7427C394.916 14.6635 397.234 15.3425 399.192 16.6843C401.149 18.0261 402.647 19.9631 403.475 22.2233C404.346 24.5994 404.429 27.2037 403.712 29.6333C402.995 32.0629 401.518 34.1827 399.508 35.6647Z" fill="#FFFADD"/>
<path d="M20.4956 140.49C20.861 140.713 21.1589 141.035 21.3564 141.421C21.5538 141.807 21.643 142.242 21.614 142.677C21.614 142.919 21.614 143.161 21.614 143.403C21.614 143.645 21.614 143.887 21.614 144.129C21.6463 144.566 21.5587 145.005 21.3611 145.394C21.1635 145.784 20.8638 146.109 20.4956 146.333L17.9355 147.847L22.7499 156.405L25.31 154.891C25.6784 154.674 26.0982 154.567 26.5225 154.582C26.9468 154.596 27.3589 154.731 27.7128 154.971C28.1132 155.242 28.5274 155.49 28.9535 155.715C29.3309 155.908 29.649 156.205 29.8725 156.572C30.0961 156.938 30.2165 157.361 30.2204 157.794V160.823H39.8316V157.794C39.8355 157.361 39.9559 156.938 40.1795 156.572C40.4031 156.205 40.7211 155.908 41.0986 155.715C41.5247 155.49 41.9388 155.242 42.3393 154.971C42.6931 154.731 43.1052 154.596 43.5295 154.582C43.9538 154.567 44.3737 154.674 44.7421 154.891L47.3021 156.405L52.1077 147.847L49.5389 146.324C49.1766 146.103 48.8811 145.783 48.6852 145.401C48.4893 145.018 48.4007 144.587 48.4293 144.155C48.4293 143.914 48.4293 143.672 48.4293 143.43C48.4293 143.188 48.4293 142.946 48.4293 142.704C48.4003 142.269 48.4895 141.834 48.6869 141.448C48.8844 141.062 49.1823 140.74 49.5477 140.517L52.1077 139.003L47.3021 130.454L44.7421 131.969C44.3736 132.181 43.9551 132.285 43.5328 132.269C43.1104 132.253 42.7004 132.118 42.348 131.879C41.9445 131.612 41.5274 131.366 41.0986 131.144C40.7204 130.949 40.402 130.652 40.1785 130.283C39.9549 129.915 39.8349 129.49 39.8316 129.056V126.036H30.2204V129.056C30.2171 129.49 30.0971 129.915 29.8735 130.283C29.65 130.652 29.3316 130.949 28.9535 131.144C28.5236 131.364 28.1064 131.61 27.704 131.879C27.351 132.121 26.9393 132.257 26.515 132.273C26.0907 132.289 25.6704 132.184 25.3012 131.969L22.7499 130.454L17.9355 139.003L20.4956 140.49ZM35.026 135.302C36.5813 135.302 38.1017 135.775 39.3949 136.661C40.688 137.547 41.696 138.807 42.2911 140.281C42.8863 141.754 43.0421 143.376 42.7386 144.94C42.4352 146.505 41.6863 147.942 40.5865 149.07C39.4867 150.198 38.0856 150.966 36.5602 151.277C35.0347 151.588 33.4536 151.428 32.0167 150.818C30.5798 150.207 29.3517 149.174 28.4876 147.848C27.6235 146.521 27.1623 144.962 27.1623 143.367C27.1623 141.228 27.9908 139.177 29.4655 137.664C30.9403 136.152 32.9404 135.302 35.026 135.302Z" fill="#FFFADD"/>
<path d="M494.931 121.637C495.295 121.859 495.592 122.18 495.789 122.564C495.987 122.948 496.077 123.381 496.05 123.814C496.05 124.056 496.05 124.298 496.05 124.549C496.05 124.8 496.05 125.033 496.05 125.275C496.077 125.707 495.988 126.139 495.792 126.523C495.596 126.907 495.302 127.228 494.94 127.452L492.371 128.967L497.185 137.516L499.746 136.01C500.114 135.794 500.534 135.687 500.958 135.701C501.382 135.715 501.794 135.85 502.148 136.091C502.547 136.361 502.961 136.607 503.389 136.826C503.767 137.02 504.086 137.318 504.309 137.687C504.533 138.055 504.653 138.48 504.656 138.913V141.942H514.267V138.913C514.27 138.48 514.39 138.055 514.614 137.687C514.838 137.318 515.156 137.02 515.534 136.826C515.962 136.607 516.376 136.361 516.775 136.091C517.129 135.85 517.541 135.715 517.965 135.701C518.389 135.687 518.809 135.794 519.178 136.01L521.738 137.516L526.552 128.967L523.974 127.443C523.614 127.221 523.319 126.901 523.123 126.519C522.928 126.136 522.838 125.706 522.865 125.275C522.865 125.033 522.865 124.791 522.865 124.549C522.865 124.307 522.865 124.056 522.865 123.814C522.837 123.381 522.927 122.948 523.125 122.564C523.322 122.18 523.619 121.859 523.983 121.637L526.552 120.122L521.738 111.573L519.186 113.079C518.818 113.295 518.398 113.402 517.974 113.388C517.549 113.374 517.137 113.239 516.784 112.998C516.38 112.731 515.963 112.486 515.534 112.263C515.156 112.069 514.838 111.771 514.614 111.402C514.39 111.034 514.27 110.609 514.267 110.176V107.147H504.656V110.176C504.653 110.609 504.533 111.034 504.309 111.402C504.086 111.771 503.767 112.069 503.389 112.263C502.96 112.486 502.543 112.731 502.14 112.998C501.786 113.239 501.374 113.374 500.949 113.388C500.525 113.402 500.105 113.295 499.737 113.079L497.185 111.573L492.371 120.122L494.931 121.637ZM509.47 116.448C511.026 116.448 512.546 116.921 513.839 117.807C515.132 118.694 516.14 119.953 516.735 121.427C517.331 122.9 517.486 124.522 517.183 126.086C516.879 127.651 516.131 129.088 515.031 130.216C513.931 131.344 512.53 132.112 511.004 132.423C509.479 132.734 507.898 132.575 506.461 131.964C505.024 131.354 503.796 130.32 502.932 128.994C502.068 127.667 501.607 126.108 501.607 124.513C501.607 122.374 502.435 120.323 503.91 118.81C505.385 117.298 507.385 116.448 509.47 116.448Z" fill="#FFFADD"/>
<path d="M86.6999 46.2028C85.766 52.6863 83.0359 58.7583 78.8343 63.6966C74.6328 68.6348 69.1367 72.2315 62.9997 74.0588C56.8627 75.8862 50.3431 75.8673 44.2162 74.0044C38.0894 72.1414 32.6132 68.5129 28.439 63.5504C24.2648 58.5878 21.5682 52.5001 20.67 46.0112C19.7719 39.5224 20.7098 32.9055 23.3724 26.9475C26.035 20.9896 30.3102 15.9414 35.6894 12.4033C41.0687 8.86515 47.3256 6.98607 53.716 6.98951V41.1936L86.6999 46.2028Z" fill="#DBDBDB"/>
<path d="M93.8558 34.2222C93.8579 35.902 93.7352 37.5796 93.4888 39.2403L60.5049 34.2222V0.018077C64.8856 0.0145417 69.2239 0.896841 73.2718 2.6145C77.3197 4.33217 80.9976 6.85149 84.0952 10.0283C87.1928 13.2052 89.6493 16.9772 91.3241 21.1286C92.9989 25.2801 93.8592 29.7294 93.8558 34.2222Z" fill="#FFFADD"/>
<path d="M106.105 59.6804H70.6309V60.5765H106.105V59.6804Z" fill="#C7C7C7"/>
<path d="M108.586 63.1303C108.007 63.1321 107.44 62.9575 106.958 62.6288C106.475 62.3 106.099 61.8318 105.876 61.2834C105.653 60.735 105.594 60.1312 105.706 59.5482C105.818 58.9653 106.096 58.4296 106.505 58.0089C106.914 57.5882 107.435 57.3014 108.003 57.1848C108.571 57.0682 109.16 57.1272 109.696 57.3541C110.231 57.5811 110.689 57.9658 111.011 58.4597C111.333 58.9535 111.504 59.5343 111.504 60.1284C111.505 60.923 111.197 61.6852 110.65 62.2479C110.103 62.8106 109.361 63.1279 108.586 63.1303ZM108.586 58.0315C108.179 58.0297 107.781 58.152 107.442 58.3827C107.103 58.6134 106.839 58.9422 106.682 59.3273C106.526 59.7125 106.484 60.1366 106.563 60.546C106.642 60.9553 106.838 61.3313 107.126 61.6264C107.413 61.9214 107.78 62.1222 108.179 62.2031C108.578 62.2841 108.992 62.2416 109.367 62.0811C109.743 61.9206 110.063 61.6493 110.288 61.3017C110.513 60.954 110.632 60.5456 110.631 60.1284C110.628 59.573 110.412 59.041 110.029 58.6483C109.646 58.2555 109.128 58.0339 108.586 58.0315Z" fill="#C7C7C7"/>
<path d="M145.144 58.2195H117.595V59.4919H145.144V58.2195Z" fill="#C7C7C7"/>
<path d="M133.191 60.7644H117.595V62.0369H133.191V60.7644Z" fill="#C7C7C7"/>
<path d="M465.426 14.8396H457.187V74.9678H465.426V14.8396Z" fill="#FFFADD"/>
<path d="M479.588 29.3921H471.349V74.9677H479.588V29.3921Z" fill="#FFFADD"/>
<path d="M493.752 52.1797H485.513V74.9675H493.752V52.1797Z" fill="#FFFADD"/>
<path d="M507.905 39.1594H499.666V74.9586H507.905V39.1594Z" fill="#FFFADD"/>
<path d="M522.069 25.4941H513.83V74.9677H522.069V25.4941Z" fill="#FFFADD"/>
<path d="M536.234 17.4563H527.994V74.9679H536.234V17.4563Z" fill="#FFFADD"/>
<path d="M452.414 7.18677L452.501 24.132L452.554 41.0772L452.615 74.9677L452.414 74.7526C459.986 74.7526 467.559 74.7526 475.131 74.7526H497.849L520.566 74.8064L543.283 74.9318L520.566 75.0573L497.849 75.1021H475.131C467.559 75.1021 459.986 75.1021 452.414 75.1021H452.204V74.896L452.265 41.0055L452.318 24.0603L452.414 7.18677Z" fill="#FFFADD"/>
<path d="M450.589 10.5921C451.783 10.2697 453.038 10.2697 454.232 10.5921C453.641 10.7615 453.029 10.84 452.415 10.8251C451.799 10.8361 451.184 10.7576 450.589 10.5921Z" fill="#FFFADD"/>
<path d="M450.589 15.7355C451.184 15.57 451.799 15.4916 452.415 15.5025C453.029 15.4877 453.641 15.5662 454.232 15.7355C453.642 15.9077 453.029 15.9892 452.415 15.9774C451.798 15.9853 451.183 15.9039 450.589 15.7355Z" fill="#FFFADD"/>
<path d="M450.589 20.8791C451.787 20.567 453.043 20.567 454.241 20.8791C453.047 21.2016 451.792 21.2016 450.598 20.8791H450.589Z" fill="#FFFADD"/>
<path d="M450.589 26.0406C451.783 25.7182 453.038 25.7182 454.232 26.0406C453.038 26.363 451.783 26.363 450.589 26.0406Z" fill="#FFFADD"/>
<path d="M450.589 31.1932C451.783 30.8708 453.038 30.8708 454.232 31.1932C453.038 31.5156 451.783 31.5156 450.589 31.1932Z" fill="#FFFADD"/>
<path d="M450.589 36.3461C451.783 36.0236 453.038 36.0236 454.232 36.3461C453.037 36.6567 451.784 36.6567 450.589 36.3461Z" fill="#FFFADD"/>
<path d="M450.589 41.4896C451.784 41.1789 453.037 41.1789 454.232 41.4896C453.038 41.812 451.783 41.812 450.589 41.4896Z" fill="#FFFADD"/>
<path d="M450.589 46.6419C451.784 46.3313 453.037 46.3313 454.232 46.6419C453.038 46.9643 451.783 46.9643 450.589 46.6419Z" fill="#FFFADD"/>
<path d="M450.589 51.7945C451.783 51.4721 453.038 51.4721 454.232 51.7945C453.038 52.1169 451.783 52.1169 450.589 51.7945Z" fill="#FFFADD"/>
<path d="M450.589 56.9469C451.783 56.6245 453.038 56.6245 454.232 56.9469C453.038 57.2693 451.783 57.2693 450.589 56.9469Z" fill="#FFFADD"/>
<path d="M450.589 62.0995C451.783 61.7771 453.038 61.7771 454.232 62.0995C453.037 62.4101 451.784 62.4101 450.589 62.0995Z" fill="#FFFADD"/>
<path d="M450.589 67.2523C451.783 66.9299 453.038 66.9299 454.232 67.2523C453.037 67.563 451.784 67.563 450.589 67.2523Z" fill="#FFFADD"/>
<path d="M3.5 320.552L69.6513 320.328L135.811 320.256L268.131 320.104L400.452 320.247L466.603 320.328L532.763 320.552L466.603 320.767L400.452 320.848L268.131 321L135.811 320.848L69.6513 320.767L3.5 320.552Z" fill="#333333"/>
<path d="M467.991 45.2173H68.2607V304.79H467.991V45.2173Z" fill="#FFFADD"/>
<path d="M468.165 45.2173H68.0938V55.2088H468.165V45.2173Z" fill="#4B4B4B"/>
<path d="M75.8347 50.2173C75.8347 50.7086 75.6925 51.1889 75.4262 51.5973C75.1599 52.0057 74.7814 52.3238 74.3386 52.5114C73.8958 52.699 73.4087 52.7476 72.939 52.6511C72.4693 52.5546 72.0381 52.3173 71.6999 51.9693C71.3618 51.6213 71.132 51.1781 71.0396 50.6961C70.9472 50.214 70.9964 49.7146 71.1809 49.2612C71.3654 48.8078 71.677 48.4208 72.0762 48.1491C72.4753 47.8774 72.9441 47.7333 73.4232 47.7351C74.0635 47.7375 74.6769 48.0001 75.1289 48.4653C75.5809 48.9305 75.8347 49.5605 75.8347 50.2173Z" fill="#C7C7C7"/>
<path d="M83.2797 52.6906C84.6116 52.6906 85.6912 51.5833 85.6912 50.2174C85.6912 48.8514 84.6116 47.7441 83.2797 47.7441C81.9479 47.7441 80.8682 48.8514 80.8682 50.2174C80.8682 51.5833 81.9479 52.6906 83.2797 52.6906Z" fill="white"/>
<path d="M95.5652 50.2173C95.5652 50.7082 95.4232 51.1881 95.1573 51.5963C94.8913 52.0045 94.5133 52.3227 94.0711 52.5105C93.6288 52.6984 93.1422 52.7476 92.6727 52.6518C92.2032 52.556 91.772 52.3196 91.4335 51.9725C91.095 51.6253 90.8645 51.1831 90.7711 50.7016C90.6777 50.2201 90.7257 49.721 90.9088 49.2674C91.092 48.8138 91.4022 48.4262 91.8003 48.1534C92.1983 47.8807 92.6662 47.7351 93.1449 47.7351C93.7868 47.7351 94.4024 47.9966 94.8563 48.4621C95.3102 48.9276 95.5652 49.559 95.5652 50.2173Z" fill="#FFC727"/>
<path d="M468.155 55.2087H460.23V304.79H468.155V55.2087Z" fill="#DBDBDB"/>
<path d="M464.198 57.6819H464.189C463.06 57.6819 462.145 58.6207 462.145 59.7788V183.736C462.145 184.894 463.06 185.833 464.189 185.833H464.198C465.327 185.833 466.242 184.894 466.242 183.736V59.7788C466.242 58.6207 465.327 57.6819 464.198 57.6819Z" fill="#4B4B4B"/>
<path d="M114.7 108.912H103.892V165.223H114.7V108.912Z" fill="#FFC727"/>
<path d="M133.275 118.276H122.467V165.232H133.275V118.276Z" fill="#FFC727"/>
<path d="M151.842 135.338H141.034V165.223H151.842V135.338Z" fill="#FFC727"/>
<path d="M170.417 117.452H159.608V165.223H170.417V117.452Z" fill="#FFC727"/>
<path d="M188.986 125.302H178.178V165.232H188.986V125.302Z" fill="#FFC727"/>
<path d="M207.552 101.062H196.744V165.223H207.552V101.062Z" fill="#FFC727"/>
<path d="M97.6263 97.155L97.7574 114.181L97.8186 131.207L97.9059 165.259L97.6263 164.981C123.839 164.9 150.121 164.981 176.368 165.034L198.212 165.097L217.627 165.259L198.212 165.429L176.368 165.483C150.156 165.483 123.874 165.617 97.6263 165.545H97.3555V165.267L97.4428 131.216L97.504 114.19L97.6263 97.155Z" fill="white"/>
<path d="M95.25 101.062C96.8111 100.644 98.4508 100.644 100.012 101.062C98.4508 101.481 96.8111 101.481 95.25 101.062Z" fill="white"/>
<path d="M95.25 107.801C96.0248 107.587 96.8242 107.482 97.6266 107.487C98.4321 107.476 99.2351 107.582 100.012 107.801C98.4508 108.219 96.8111 108.219 95.25 107.801Z" fill="white"/>
<path d="M95.25 114.575C96.024 114.357 96.824 114.251 97.6266 114.261C98.4323 114.246 99.2359 114.352 100.012 114.575C99.2359 114.798 98.4323 114.904 97.6266 114.889C96.824 114.899 96.024 114.793 95.25 114.575Z" fill="white"/>
<path d="M95.25 121.332C96.8111 120.913 98.4508 120.913 100.012 121.332C98.4508 121.75 96.8111 121.75 95.25 121.332Z" fill="white"/>
<path d="M95.25 128.088C96.8096 127.658 98.4523 127.658 100.012 128.088C98.4508 128.506 96.8111 128.506 95.25 128.088Z" fill="white"/>
<path d="M95.25 134.836C96.8111 134.418 98.4508 134.418 100.012 134.836C98.4508 135.254 96.8111 135.254 95.25 134.836Z" fill="white"/>
<path d="M95.25 141.592C96.0248 141.379 96.8242 141.273 97.6266 141.279C98.4321 141.268 99.2351 141.374 100.012 141.592C98.4508 142.011 96.8111 142.011 95.25 141.592Z" fill="white"/>
<path d="M95.25 148.349C96.024 148.131 96.824 148.026 97.6266 148.036C98.4323 148.021 99.2359 148.126 100.012 148.349C99.2359 148.572 98.4323 148.678 97.6266 148.663C96.824 148.673 96.024 148.567 95.25 148.349Z" fill="white"/>
<path d="M95.25 155.106C96.8111 154.687 98.4508 154.687 100.012 155.106C98.4508 155.524 96.8111 155.524 95.25 155.106Z" fill="white"/>
<path d="M278.118 97.7197H237.364C236.26 97.7197 235.364 98.6152 235.364 99.7197V163.536C235.364 164.641 236.26 165.536 237.364 165.536H278.118C279.222 165.536 280.118 164.641 280.118 163.536V99.7197C280.118 98.6152 279.222 97.7197 278.118 97.7197Z" fill="white"/>
<path d="M271.197 118.429C271.181 121.776 269.979 125.004 267.814 127.51C265.649 130.015 262.669 131.628 259.431 132.046C256.192 132.464 252.915 131.66 250.212 129.784C247.509 127.907 245.564 125.086 244.739 121.847C243.914 118.608 244.267 115.172 245.73 112.179C247.194 109.187 249.669 106.843 252.694 105.584C255.719 104.325 259.087 104.238 262.169 105.338C265.252 106.439 267.84 108.652 269.449 111.564C270.605 113.657 271.207 116.023 271.197 118.429Z" fill="#333333"/>
<path d="M269.421 111.565L257.739 118.429V104.62C260.11 104.619 262.44 105.261 264.491 106.481C266.543 107.7 268.243 109.454 269.421 111.565Z" fill="#FFC727"/>
<path d="M251.527 138.42L250.653 138.94C250.63 138.956 250.604 138.967 250.577 138.972C250.549 138.977 250.521 138.976 250.494 138.969C250.467 138.963 250.441 138.95 250.419 138.933C250.397 138.915 250.378 138.893 250.365 138.868C250.35 138.844 250.34 138.817 250.335 138.788C250.331 138.76 250.333 138.73 250.34 138.703C250.348 138.675 250.361 138.649 250.378 138.626C250.396 138.604 250.418 138.586 250.444 138.573L251.623 137.838C251.672 137.811 251.729 137.805 251.783 137.82C251.837 137.835 251.882 137.87 251.912 137.918C251.928 137.971 251.928 138.027 251.912 138.08V143.842C251.912 143.899 251.889 143.953 251.85 143.994C251.811 144.034 251.757 144.057 251.702 144.057C251.646 144.057 251.593 144.034 251.554 143.994C251.514 143.953 251.492 143.899 251.492 143.842L251.527 138.42Z" fill="#A6A6A6"/>
<path d="M253.572 143.438C253.551 143.418 253.534 143.394 253.523 143.367C253.512 143.34 253.506 143.311 253.506 143.281C253.506 143.252 253.512 143.223 253.523 143.196C253.534 143.169 253.551 143.145 253.572 143.124C253.592 143.103 253.617 143.086 253.644 143.074C253.671 143.062 253.7 143.056 253.729 143.056C253.759 143.056 253.788 143.062 253.815 143.074C253.842 143.086 253.866 143.103 253.887 143.124C254.184 143.444 254.592 143.63 255.022 143.644C255.455 143.642 255.869 143.465 256.175 143.151C256.481 142.837 256.654 142.412 256.656 141.968C256.656 141.638 256.559 141.314 256.38 141.04C256.2 140.765 255.945 140.551 255.647 140.424C255.349 140.298 255.021 140.265 254.705 140.329C254.388 140.393 254.098 140.552 253.869 140.786C253.85 140.807 253.826 140.824 253.8 140.836C253.773 140.848 253.745 140.854 253.716 140.854C253.688 140.854 253.659 140.848 253.633 140.836C253.607 140.824 253.583 140.807 253.563 140.786C253.539 140.768 253.52 140.743 253.511 140.714C253.506 140.69 253.506 140.666 253.511 140.642L253.808 138.115C253.808 138.083 253.816 138.051 253.831 138.023C253.846 137.995 253.868 137.971 253.895 137.954C253.933 137.918 253.984 137.899 254.035 137.9H256.884C256.941 137.9 256.997 137.924 257.038 137.966C257.079 138.008 257.102 138.065 257.102 138.124C257.103 138.154 257.098 138.184 257.088 138.211C257.077 138.239 257.061 138.264 257.041 138.285C257.02 138.307 256.996 138.323 256.969 138.334C256.942 138.345 256.913 138.35 256.884 138.348H254.219L254 140.212C254.316 140.024 254.675 139.925 255.04 139.925C255.311 139.925 255.58 139.98 255.831 140.087C256.082 140.194 256.31 140.351 256.501 140.548C256.693 140.745 256.844 140.979 256.948 141.237C257.051 141.495 257.103 141.771 257.102 142.049C257.104 142.329 257.052 142.606 256.949 142.864C256.845 143.123 256.692 143.358 256.499 143.555C256.106 143.948 255.58 144.169 255.031 144.173C254.752 144.158 254.479 144.085 254.228 143.958C253.978 143.832 253.754 143.655 253.572 143.438Z" fill="#A6A6A6"/>
<path d="M258.728 139.334C258.697 139.135 258.708 138.93 258.761 138.735C258.814 138.54 258.908 138.359 259.036 138.205C259.164 138.051 259.323 137.927 259.502 137.842C259.682 137.757 259.877 137.713 260.074 137.713C260.271 137.713 260.466 137.757 260.646 137.842C260.825 137.927 260.984 138.051 261.112 138.205C261.24 138.359 261.334 138.54 261.387 138.735C261.44 138.93 261.451 139.135 261.42 139.334C261.435 139.531 261.412 139.729 261.352 139.917C261.292 140.105 261.196 140.278 261.07 140.428C260.944 140.577 260.79 140.699 260.618 140.787C260.445 140.874 260.257 140.926 260.065 140.938C259.874 140.926 259.687 140.874 259.515 140.787C259.343 140.699 259.191 140.576 259.066 140.427C258.941 140.277 258.847 140.103 258.789 139.916C258.731 139.728 258.71 139.53 258.728 139.334ZM260.965 139.334C260.965 138.635 260.555 138.116 260.091 138.116C259.628 138.116 259.218 138.662 259.218 139.317C259.218 140.024 259.628 140.535 260.091 140.535C260.555 140.535 260.965 140.007 260.965 139.334ZM259.558 143.815L263.814 137.874C263.831 137.844 263.855 137.82 263.884 137.803C263.913 137.786 263.946 137.776 263.98 137.775C264.004 137.774 264.029 137.778 264.053 137.787C264.076 137.796 264.097 137.809 264.115 137.827C264.133 137.845 264.147 137.866 264.157 137.889C264.167 137.913 264.172 137.938 264.172 137.963C264.185 138.001 264.185 138.042 264.172 138.08L259.917 144.021C259.899 144.05 259.875 144.075 259.846 144.092C259.817 144.109 259.784 144.119 259.751 144.12C259.726 144.121 259.701 144.117 259.678 144.108C259.655 144.099 259.633 144.085 259.615 144.068C259.597 144.05 259.583 144.029 259.573 144.006C259.563 143.982 259.558 143.957 259.558 143.931C259.549 143.909 259.544 143.884 259.544 143.86C259.544 143.835 259.549 143.811 259.558 143.788V143.815ZM262.276 142.569C262.26 142.372 262.283 142.174 262.343 141.987C262.403 141.799 262.499 141.625 262.625 141.476C262.751 141.327 262.905 141.205 263.078 141.117C263.25 141.029 263.438 140.978 263.63 140.965C263.819 140.979 264.004 141.031 264.173 141.118C264.343 141.205 264.494 141.326 264.617 141.474C264.741 141.621 264.834 141.793 264.893 141.978C264.952 142.163 264.974 142.358 264.958 142.551C264.974 142.748 264.951 142.945 264.892 143.132C264.832 143.319 264.737 143.492 264.612 143.642C264.487 143.791 264.334 143.913 264.163 144.001C263.991 144.089 263.804 144.142 263.613 144.155C263.42 144.143 263.232 144.091 263.06 144.003C262.888 143.914 262.735 143.791 262.61 143.64C262.485 143.49 262.391 143.315 262.334 143.126C262.276 142.938 262.257 142.739 262.276 142.542V142.569ZM264.504 142.569C264.504 141.87 264.102 141.351 263.63 141.351C263.158 141.351 262.756 141.897 262.756 142.551C262.756 143.259 263.167 143.77 263.63 143.77C264.093 143.77 264.504 143.215 264.504 142.542V142.569Z" fill="#A6A6A6"/>
<path d="M268.819 148.224H246.661V149.684H268.819V148.224Z" fill="#A6A6A6"/>
<path d="M272.525 151.298H242.948V152.758H272.525V151.298Z" fill="#FFFADD"/>
<path d="M272.532 154.058H242.956V155.518H272.532V154.058Z" fill="#FFFADD"/>
<path d="M272.525 156.826H242.948V158.287H272.525V156.826Z" fill="#FFFADD"/>
<path d="M329.738 97.7197H288.984C287.88 97.7197 286.984 98.6152 286.984 99.7197V163.536C286.984 164.641 287.88 165.536 288.984 165.536H329.738C330.842 165.536 331.738 164.641 331.738 163.536V99.7197C331.738 98.6152 330.842 97.7197 329.738 97.7197Z" fill="white"/>
<path d="M322.817 118.429C322.816 119.104 322.767 119.778 322.669 120.445C322.153 123.969 320.325 127.15 317.57 129.32C314.815 131.49 311.346 132.479 307.894 132.08C304.442 131.682 301.275 129.925 299.059 127.181C296.844 124.437 295.752 120.919 296.014 117.366C296.275 113.813 297.87 110.503 300.463 108.131C303.055 105.76 306.444 104.511 309.915 104.649C313.386 104.787 316.67 106.3 319.077 108.869C321.483 111.439 322.824 114.866 322.817 118.429Z" fill="#333333"/>
<path d="M322.817 118.429C322.816 119.104 322.767 119.778 322.668 120.445L309.361 118.429V104.62C311.129 104.619 312.88 104.975 314.514 105.669C316.148 106.362 317.632 107.38 318.882 108.662C320.131 109.945 321.122 111.468 321.798 113.144C322.473 114.819 322.819 116.615 322.817 118.429Z" fill="#FFC727"/>
<path d="M301.008 143.645L303.865 141.001C304.029 140.849 304.16 140.664 304.251 140.457C304.341 140.251 304.388 140.027 304.39 139.8C304.387 139.374 304.221 138.966 303.926 138.666C303.631 138.365 303.232 138.196 302.817 138.196C302.424 138.194 302.044 138.341 301.751 138.609L301.454 138.886C301.413 138.926 301.359 138.947 301.303 138.945C301.248 138.943 301.195 138.919 301.157 138.877C301.118 138.836 301.098 138.78 301.1 138.723C301.101 138.666 301.125 138.612 301.165 138.573L301.463 138.286C301.836 137.947 302.318 137.759 302.817 137.757C303.344 137.762 303.848 137.979 304.22 138.361C304.593 138.743 304.804 139.26 304.809 139.8C304.809 140.087 304.751 140.371 304.638 140.633C304.525 140.895 304.36 141.131 304.154 141.324L301.707 143.591H304.599C304.649 143.601 304.693 143.629 304.725 143.669C304.757 143.709 304.774 143.759 304.774 143.81C304.774 143.862 304.757 143.912 304.725 143.952C304.693 143.992 304.649 144.02 304.599 144.03H301.157C301.128 144.032 301.098 144.027 301.071 144.016C301.044 144.006 301.02 143.989 300.999 143.967C300.96 143.923 300.939 143.864 300.941 143.804C300.942 143.744 300.966 143.687 301.008 143.645Z" fill="#A6A6A6"/>
<path d="M306.303 143.439C306.282 143.419 306.265 143.394 306.254 143.367C306.242 143.34 306.236 143.311 306.236 143.282C306.236 143.253 306.242 143.223 306.254 143.197C306.265 143.17 306.282 143.145 306.303 143.125C306.323 143.103 306.347 143.086 306.374 143.074C306.401 143.063 306.43 143.057 306.46 143.057C306.489 143.057 306.518 143.063 306.545 143.074C306.572 143.086 306.597 143.103 306.617 143.125C306.925 143.436 307.339 143.609 307.77 143.609C308.203 143.607 308.617 143.429 308.923 143.116C309.229 142.802 309.402 142.377 309.404 141.933C309.404 141.602 309.307 141.279 309.128 141.005C308.948 140.73 308.693 140.516 308.395 140.389C308.097 140.263 307.769 140.229 307.453 140.294C307.136 140.358 306.846 140.517 306.617 140.75C306.597 140.772 306.574 140.789 306.547 140.801C306.521 140.812 306.493 140.818 306.464 140.818C306.436 140.818 306.407 140.812 306.381 140.801C306.355 140.789 306.331 140.772 306.311 140.75C306.287 140.733 306.268 140.708 306.259 140.679C306.254 140.655 306.254 140.631 306.259 140.607L306.556 138.08C306.556 138.048 306.564 138.016 306.579 137.988C306.594 137.959 306.616 137.936 306.643 137.919C306.681 137.883 306.731 137.864 306.783 137.865H309.632C309.689 137.865 309.745 137.889 309.786 137.931C309.827 137.973 309.85 138.03 309.85 138.089C309.851 138.119 309.846 138.149 309.836 138.176C309.825 138.204 309.809 138.229 309.789 138.25C309.768 138.271 309.744 138.288 309.717 138.299C309.689 138.309 309.661 138.314 309.632 138.313H306.967L306.748 140.177C307.064 139.989 307.423 139.89 307.788 139.89C308.059 139.89 308.328 139.945 308.579 140.052C308.83 140.159 309.057 140.315 309.249 140.513C309.441 140.71 309.592 140.944 309.696 141.202C309.799 141.46 309.851 141.735 309.85 142.014C309.852 142.293 309.8 142.571 309.697 142.829C309.593 143.088 309.44 143.322 309.247 143.519C308.854 143.912 308.328 144.134 307.779 144.138C307.5 144.129 307.225 144.063 306.971 143.943C306.717 143.823 306.49 143.651 306.303 143.439Z" fill="#A6A6A6"/>
<path d="M311.459 139.334C311.427 139.135 311.439 138.93 311.492 138.735C311.545 138.54 311.639 138.359 311.767 138.205C311.895 138.051 312.054 137.927 312.233 137.842C312.412 137.757 312.607 137.713 312.804 137.713C313.002 137.713 313.197 137.757 313.376 137.842C313.555 137.927 313.714 138.051 313.842 138.205C313.97 138.359 314.064 138.54 314.117 138.735C314.17 138.93 314.182 139.135 314.15 139.334C314.165 139.531 314.143 139.729 314.083 139.917C314.023 140.105 313.927 140.278 313.801 140.428C313.675 140.577 313.521 140.699 313.348 140.787C313.176 140.874 312.988 140.926 312.796 140.938C312.604 140.926 312.417 140.874 312.245 140.787C312.074 140.699 311.921 140.576 311.796 140.427C311.672 140.277 311.578 140.103 311.52 139.916C311.462 139.728 311.441 139.53 311.459 139.334ZM313.696 139.334C313.696 138.635 313.285 138.116 312.822 138.116C312.359 138.116 311.948 138.662 311.948 139.317C311.948 140.024 312.359 140.535 312.822 140.535C313.285 140.535 313.696 140.007 313.696 139.334ZM312.289 143.815L316.544 137.874C316.562 137.844 316.586 137.82 316.615 137.803C316.644 137.786 316.677 137.776 316.71 137.775C316.735 137.774 316.76 137.778 316.783 137.787C316.806 137.796 316.828 137.809 316.846 137.827C316.864 137.845 316.878 137.866 316.888 137.889C316.897 137.913 316.902 137.938 316.902 137.963C316.915 138.001 316.915 138.042 316.902 138.08L312.647 144.021C312.63 144.05 312.605 144.075 312.576 144.092C312.547 144.109 312.515 144.119 312.481 144.12C312.456 144.121 312.432 144.117 312.408 144.108C312.385 144.099 312.364 144.085 312.346 144.068C312.328 144.05 312.313 144.029 312.304 144.006C312.294 143.982 312.289 143.957 312.289 143.931C312.279 143.909 312.274 143.884 312.274 143.86C312.274 143.835 312.279 143.811 312.289 143.788V143.815ZM315.006 142.569C314.975 142.369 314.986 142.165 315.039 141.97C315.092 141.775 315.186 141.594 315.314 141.44C315.442 141.286 315.601 141.162 315.78 141.077C315.959 140.992 316.154 140.948 316.352 140.948C316.549 140.948 316.744 140.992 316.923 141.077C317.103 141.162 317.262 141.286 317.39 141.44C317.518 141.594 317.611 141.775 317.665 141.97C317.718 142.165 317.729 142.369 317.697 142.569C317.713 142.766 317.69 142.964 317.63 143.152C317.57 143.34 317.474 143.513 317.348 143.663C317.222 143.812 317.068 143.934 316.896 144.022C316.723 144.109 316.535 144.161 316.343 144.173C316.149 144.161 315.96 144.109 315.786 144.019C315.612 143.93 315.458 143.805 315.333 143.652C315.208 143.5 315.115 143.323 315.059 143.132C315.002 142.941 314.985 142.741 315.006 142.542V142.569ZM317.243 142.569C317.243 141.87 316.832 141.351 316.369 141.351C315.906 141.351 315.496 141.897 315.496 142.551C315.496 143.259 315.906 143.77 316.369 143.77C316.832 143.77 317.243 143.215 317.243 142.542V142.569Z" fill="#A6A6A6"/>
<path d="M320.44 148.224H298.282V149.684H320.44V148.224Z" fill="#A6A6A6"/>
<path d="M324.145 151.298H294.568V152.758H324.145V151.298Z" fill="#FFFADD"/>
<path d="M324.145 154.058H294.568V155.518H324.145V154.058Z" fill="#FFFADD"/>
<path d="M324.145 156.826H294.568V158.287H324.145V156.826Z" fill="#FFFADD"/>
<path d="M381.359 97.7197H340.605C339.501 97.7197 338.605 98.6152 338.605 99.7197V163.536C338.605 164.641 339.501 165.536 340.605 165.536H381.359C382.463 165.536 383.359 164.641 383.359 163.536V99.7197C383.359 98.6152 382.463 97.7197 381.359 97.7197Z" fill="white"/>
<path d="M374.439 118.429C374.424 121.781 373.221 125.014 371.054 127.523C368.886 130.033 365.903 131.649 362.66 132.068C359.416 132.488 356.135 131.683 353.428 129.804C350.721 127.925 348.772 125.1 347.947 121.856C347.121 118.613 347.474 115.172 348.94 112.175C350.406 109.179 352.885 106.831 355.914 105.571C358.943 104.311 362.316 104.225 365.403 105.327C368.49 106.43 371.08 108.647 372.691 111.564C373.846 113.657 374.449 116.024 374.439 118.429Z" fill="#333333"/>
<path d="M374.437 118.429C374.436 121.22 373.611 123.945 372.07 126.245C370.529 128.546 368.345 130.313 365.804 131.315L360.973 118.429V104.62C362.741 104.62 364.492 104.977 366.125 105.671C367.759 106.365 369.243 107.382 370.493 108.664C371.744 109.947 372.735 111.469 373.412 113.144C374.089 114.82 374.437 116.615 374.437 118.429Z" fill="#FFC727"/>
<path d="M355.818 142.749H352.48C352.432 142.752 352.385 142.736 352.349 142.704C352.328 142.685 352.312 142.661 352.3 142.635C352.289 142.609 352.283 142.58 352.283 142.552C352.283 142.523 352.289 142.495 352.3 142.468C352.312 142.442 352.328 142.419 352.349 142.399L355.887 137.919C355.906 137.898 355.929 137.881 355.955 137.869C355.98 137.858 356.008 137.852 356.036 137.852C356.064 137.852 356.092 137.858 356.117 137.869C356.143 137.881 356.166 137.898 356.185 137.919C356.216 137.949 356.239 137.986 356.254 138.026V142.355H356.665C356.721 142.355 356.774 142.377 356.813 142.418C356.853 142.458 356.875 142.513 356.875 142.57C356.875 142.627 356.853 142.681 356.813 142.722C356.774 142.762 356.721 142.785 356.665 142.785H356.254V143.86C356.244 143.911 356.218 143.956 356.179 143.989C356.14 144.022 356.091 144.039 356.04 144.039C355.99 144.039 355.941 144.022 355.902 143.989C355.863 143.956 355.836 143.911 355.826 143.86L355.818 142.749ZM355.818 142.319V138.645L352.925 142.319H355.818Z" fill="#A6A6A6"/>
<path d="M358.247 143.439C358.226 143.419 358.209 143.394 358.198 143.367C358.187 143.34 358.181 143.311 358.181 143.282C358.181 143.253 358.187 143.223 358.198 143.197C358.209 143.17 358.226 143.145 358.247 143.125C358.267 143.103 358.292 143.086 358.319 143.074C358.346 143.063 358.375 143.057 358.404 143.057C358.434 143.057 358.463 143.063 358.49 143.074C358.517 143.086 358.541 143.103 358.561 143.125C358.869 143.436 359.283 143.609 359.715 143.609C360.147 143.607 360.562 143.429 360.868 143.116C361.173 142.802 361.346 142.377 361.349 141.933C361.348 141.602 361.252 141.279 361.072 141.005C360.892 140.73 360.638 140.516 360.339 140.389C360.041 140.263 359.714 140.229 359.397 140.294C359.081 140.358 358.79 140.517 358.561 140.75C358.542 140.772 358.518 140.789 358.492 140.801C358.466 140.812 358.437 140.818 358.409 140.818C358.38 140.818 358.351 140.812 358.325 140.801C358.299 140.789 358.275 140.772 358.256 140.75C358.231 140.733 358.213 140.708 358.203 140.679C358.198 140.655 358.198 140.631 358.203 140.607L358.5 138.08C358.5 138.048 358.508 138.016 358.523 137.988C358.539 137.959 358.561 137.936 358.588 137.919C358.626 137.883 358.676 137.864 358.727 137.865H361.576C361.634 137.865 361.689 137.889 361.73 137.931C361.771 137.973 361.794 138.03 361.794 138.089C361.796 138.119 361.791 138.149 361.78 138.176C361.77 138.204 361.754 138.229 361.733 138.25C361.712 138.271 361.688 138.288 361.661 138.299C361.634 138.309 361.605 138.314 361.576 138.313H358.911L358.692 140.177C359.008 139.989 359.367 139.89 359.732 139.89C360.004 139.89 360.273 139.945 360.523 140.052C360.774 140.159 361.002 140.315 361.193 140.513C361.385 140.71 361.537 140.944 361.64 141.202C361.743 141.46 361.795 141.735 361.794 142.014C361.797 142.293 361.745 142.571 361.641 142.829C361.538 143.088 361.385 143.322 361.191 143.519C360.798 143.912 360.272 144.134 359.723 144.138C359.444 144.129 359.169 144.063 358.915 143.943C358.662 143.823 358.434 143.651 358.247 143.439Z" fill="#A6A6A6"/>
<path d="M363.367 139.334C363.336 139.135 363.347 138.93 363.4 138.735C363.453 138.54 363.547 138.359 363.675 138.205C363.803 138.051 363.962 137.927 364.141 137.842C364.32 137.757 364.515 137.713 364.713 137.713C364.91 137.713 365.105 137.757 365.284 137.842C365.464 137.927 365.623 138.051 365.751 138.205C365.879 138.359 365.972 138.54 366.025 138.735C366.079 138.93 366.09 139.135 366.058 139.334C366.074 139.531 366.051 139.729 365.991 139.917C365.931 140.105 365.835 140.278 365.709 140.428C365.583 140.577 365.429 140.699 365.257 140.787C365.084 140.874 364.896 140.926 364.704 140.938C364.512 140.926 364.325 140.874 364.154 140.787C363.982 140.699 363.829 140.576 363.705 140.427C363.58 140.277 363.486 140.103 363.428 139.916C363.37 139.728 363.349 139.53 363.367 139.334ZM365.604 139.334C365.604 138.635 365.193 138.116 364.73 138.116C364.267 138.116 363.856 138.662 363.856 139.317C363.856 140.024 364.267 140.535 364.73 140.535C365.193 140.535 365.639 140.007 365.639 139.334H365.604ZM364.197 143.815L368.452 137.874C368.47 137.844 368.494 137.82 368.523 137.803C368.552 137.786 368.585 137.776 368.618 137.775C368.643 137.774 368.668 137.778 368.691 137.787C368.714 137.796 368.736 137.809 368.754 137.827C368.772 137.845 368.786 137.866 368.796 137.889C368.806 137.913 368.811 137.938 368.811 137.963C368.823 138.001 368.823 138.042 368.811 138.08L364.555 144.021C364.538 144.05 364.514 144.075 364.485 144.092C364.456 144.109 364.423 144.119 364.389 144.12C364.365 144.121 364.34 144.117 364.316 144.108C364.293 144.099 364.272 144.085 364.254 144.068C364.236 144.05 364.222 144.029 364.212 144.006C364.202 143.982 364.197 143.957 364.197 143.931C364.194 143.906 364.196 143.88 364.204 143.855C364.211 143.83 364.224 143.807 364.241 143.788L364.197 143.815ZM366.914 142.569C366.883 142.369 366.894 142.165 366.947 141.97C367 141.775 367.094 141.594 367.222 141.44C367.35 141.286 367.509 141.162 367.688 141.077C367.868 140.992 368.063 140.948 368.26 140.948C368.457 140.948 368.653 140.992 368.832 141.077C369.011 141.162 369.17 141.286 369.298 141.44C369.426 141.594 369.52 141.775 369.573 141.97C369.626 142.165 369.637 142.369 369.606 142.569C369.621 142.766 369.598 142.964 369.538 143.152C369.478 143.34 369.382 143.513 369.256 143.663C369.13 143.812 368.977 143.934 368.804 144.022C368.631 144.109 368.444 144.161 368.251 144.173C368.06 144.157 367.875 144.101 367.705 144.009C367.536 143.918 367.386 143.792 367.264 143.64C367.143 143.488 367.053 143.312 366.998 143.124C366.944 142.935 366.928 142.738 366.949 142.542L366.914 142.569ZM369.151 142.569C369.151 141.87 368.741 141.351 368.278 141.351C367.814 141.351 367.404 141.897 367.404 142.551C367.404 143.259 367.814 143.77 368.278 143.77C368.741 143.77 369.186 143.215 369.186 142.542L369.151 142.569Z" fill="#A6A6A6"/>
<path d="M372.062 148.224H349.903V149.684H372.062V148.224Z" fill="#A6A6A6"/>
<path d="M375.766 151.298H346.189V152.758H375.766V151.298Z" fill="#FFFADD"/>
<path d="M375.766 154.058H346.189V155.518H375.766V154.058Z" fill="#FFFADD"/>
<path d="M375.766 156.826H346.189V158.287H375.766V156.826Z" fill="#FFFADD"/>
<path d="M432.971 97.7197H392.218C391.113 97.7197 390.218 98.6152 390.218 99.7197V163.536C390.218 164.641 391.113 165.536 392.218 165.536H432.971C434.076 165.536 434.971 164.641 434.971 163.536V99.7197C434.971 98.6152 434.076 97.7197 432.971 97.7197Z" fill="white"/>
<path d="M426.102 118.428C426.084 121.792 424.874 125.033 422.697 127.549C420.52 130.064 417.525 131.682 414.271 132.099C411.017 132.517 407.726 131.706 405.012 129.818C402.298 127.931 400.346 125.095 399.521 121.84C398.695 118.585 399.053 115.133 400.526 112.128C402 109.124 404.489 106.771 407.529 105.51C410.569 104.249 413.952 104.165 417.048 105.274C420.144 106.383 422.741 108.609 424.354 111.537C425.516 113.637 426.119 116.014 426.102 118.428Z" fill="#333333"/>
<path d="M426.102 118.429C426.099 121.074 425.359 123.663 423.967 125.89C422.575 128.117 420.591 129.889 418.249 130.997C415.906 132.104 413.304 132.501 410.749 132.139C408.194 131.778 405.793 130.674 403.83 128.958L412.568 118.429V104.575C416.15 104.575 419.586 106.035 422.119 108.633C424.652 111.231 426.076 114.754 426.076 118.429H426.102Z" fill="#FFC727"/>
<path d="M404.32 143.439C404.299 143.419 404.283 143.394 404.271 143.367C404.26 143.34 404.254 143.311 404.254 143.282C404.254 143.253 404.26 143.223 404.271 143.197C404.283 143.17 404.299 143.145 404.32 143.125C404.34 143.103 404.365 143.086 404.392 143.074C404.419 143.063 404.448 143.057 404.477 143.057C404.507 143.057 404.536 143.063 404.563 143.074C404.59 143.086 404.614 143.103 404.635 143.125C404.942 143.436 405.356 143.609 405.788 143.609C406.221 143.607 406.635 143.429 406.941 143.116C407.247 142.802 407.42 142.377 407.422 141.933C407.421 141.602 407.325 141.279 407.145 141.005C406.966 140.73 406.711 140.516 406.413 140.389C406.115 140.263 405.787 140.229 405.47 140.294C405.154 140.358 404.863 140.517 404.635 140.75C404.615 140.772 404.591 140.789 404.565 140.801C404.539 140.812 404.51 140.818 404.482 140.818C404.453 140.818 404.425 140.812 404.398 140.801C404.372 140.789 404.348 140.772 404.329 140.75C404.304 140.733 404.286 140.708 404.276 140.679C404.271 140.655 404.271 140.631 404.276 140.607L404.573 138.08C404.573 138.048 404.581 138.016 404.597 137.988C404.612 137.959 404.634 137.936 404.661 137.919C404.699 137.883 404.749 137.864 404.801 137.865H407.649C407.707 137.865 407.763 137.889 407.803 137.931C407.844 137.973 407.867 138.03 407.867 138.089C407.869 138.119 407.864 138.149 407.853 138.176C407.843 138.204 407.827 138.229 407.806 138.25C407.786 138.271 407.761 138.288 407.734 138.299C407.707 138.309 407.678 138.314 407.649 138.313H405.028L404.809 140.177C405.125 139.989 405.484 139.89 405.849 139.89C406.121 139.89 406.39 139.945 406.64 140.052C406.891 140.159 407.119 140.315 407.31 140.513C407.502 140.71 407.654 140.944 407.757 141.202C407.86 141.46 407.912 141.735 407.911 142.014C407.914 142.293 407.861 142.571 407.758 142.829C407.654 143.088 407.502 143.322 407.308 143.519C406.915 143.912 406.389 144.134 405.84 144.138C405.554 144.136 405.27 144.072 405.009 143.952C404.747 143.832 404.512 143.657 404.32 143.439Z" fill="#A6A6A6"/>
<path d="M409.606 143.439C409.585 143.419 409.569 143.394 409.557 143.367C409.546 143.34 409.54 143.311 409.54 143.282C409.54 143.253 409.546 143.223 409.557 143.197C409.569 143.17 409.585 143.145 409.606 143.125C409.627 143.103 409.651 143.086 409.678 143.074C409.705 143.063 409.734 143.057 409.763 143.057C409.793 143.057 409.822 143.063 409.849 143.074C409.876 143.086 409.9 143.103 409.921 143.125C410.228 143.436 410.643 143.609 411.074 143.609C411.507 143.607 411.921 143.429 412.227 143.116C412.533 142.802 412.706 142.377 412.708 141.933C412.707 141.602 412.611 141.279 412.431 141.005C412.252 140.73 411.997 140.516 411.699 140.389C411.401 140.263 411.073 140.229 410.756 140.294C410.44 140.358 410.149 140.517 409.921 140.75C409.901 140.772 409.877 140.789 409.851 140.801C409.825 140.812 409.797 140.818 409.768 140.818C409.739 140.818 409.711 140.812 409.685 140.801C409.658 140.789 409.635 140.772 409.615 140.75C409.59 140.733 409.572 140.708 409.563 140.679C409.558 140.655 409.558 140.631 409.563 140.607L409.86 138.08C409.859 138.048 409.867 138.016 409.883 137.988C409.898 137.959 409.92 137.936 409.947 137.919C409.985 137.883 410.035 137.864 410.087 137.865H412.935C412.993 137.865 413.049 137.889 413.09 137.931C413.131 137.973 413.154 138.03 413.154 138.089C413.155 138.119 413.15 138.149 413.14 138.176C413.129 138.204 413.113 138.229 413.092 138.25C413.072 138.271 413.047 138.288 413.02 138.299C412.993 138.309 412.964 138.314 412.935 138.313H410.27L410.052 140.177C410.368 139.989 410.726 139.89 411.092 139.89C411.363 139.89 411.632 139.945 411.883 140.052C412.133 140.159 412.361 140.315 412.553 140.513C412.744 140.71 412.896 140.944 412.999 141.202C413.102 141.46 413.155 141.735 413.154 142.014C413.156 142.293 413.104 142.571 413 142.829C412.897 143.088 412.744 143.322 412.551 143.519C412.158 143.912 411.632 144.134 411.083 144.138C410.803 144.129 410.529 144.063 410.275 143.943C410.021 143.823 409.794 143.651 409.606 143.439Z" fill="#A6A6A6"/>
<path d="M414.762 139.334C414.73 139.135 414.741 138.93 414.794 138.735C414.848 138.54 414.941 138.359 415.069 138.205C415.197 138.051 415.356 137.927 415.536 137.842C415.715 137.757 415.91 137.713 416.107 137.713C416.305 137.713 416.5 137.757 416.679 137.842C416.858 137.927 417.017 138.051 417.145 138.205C417.273 138.359 417.367 138.54 417.42 138.735C417.473 138.93 417.484 139.135 417.453 139.334C417.468 139.531 417.445 139.729 417.385 139.917C417.325 140.105 417.23 140.278 417.103 140.428C416.977 140.577 416.824 140.699 416.651 140.787C416.479 140.874 416.291 140.926 416.098 140.938C415.907 140.926 415.72 140.874 415.548 140.787C415.376 140.699 415.224 140.576 415.099 140.427C414.974 140.277 414.88 140.103 414.822 139.916C414.764 139.728 414.744 139.53 414.762 139.334ZM416.998 139.334C416.998 138.635 416.588 138.116 416.125 138.116C415.662 138.116 415.251 138.662 415.251 139.317C415.251 140.024 415.662 140.535 416.125 140.535C416.588 140.535 416.998 140.007 416.998 139.334ZM415.592 143.815L419.847 137.874C419.864 137.844 419.889 137.82 419.918 137.803C419.947 137.786 419.979 137.776 420.013 137.775C420.038 137.774 420.062 137.778 420.086 137.787C420.109 137.796 420.13 137.809 420.148 137.827C420.166 137.845 420.181 137.866 420.19 137.889C420.2 137.913 420.205 137.938 420.205 137.963C420.218 138.001 420.218 138.042 420.205 138.08L415.95 144.021C415.932 144.05 415.908 144.075 415.879 144.092C415.85 144.109 415.817 144.119 415.784 144.12C415.759 144.121 415.734 144.117 415.711 144.108C415.688 144.099 415.666 144.085 415.648 144.068C415.631 144.05 415.616 144.029 415.606 144.006C415.597 143.982 415.592 143.957 415.592 143.931C415.582 143.909 415.577 143.884 415.577 143.86C415.577 143.835 415.582 143.811 415.592 143.788V143.815ZM418.309 142.569C418.278 142.369 418.289 142.165 418.342 141.97C418.395 141.775 418.489 141.594 418.617 141.44C418.745 141.286 418.904 141.162 419.083 141.077C419.262 140.992 419.457 140.948 419.655 140.948C419.852 140.948 420.047 140.992 420.226 141.077C420.405 141.162 420.565 141.286 420.692 141.44C420.82 141.594 420.914 141.775 420.967 141.97C421.02 142.165 421.032 142.369 421 142.569C421.016 142.766 420.993 142.964 420.933 143.152C420.873 143.34 420.777 143.513 420.651 143.663C420.525 143.812 420.371 143.934 420.198 144.022C420.026 144.109 419.838 144.161 419.646 144.173C419.452 144.161 419.262 144.109 419.089 144.019C418.915 143.93 418.761 143.805 418.636 143.652C418.511 143.5 418.418 143.323 418.361 143.132C418.305 142.941 418.287 142.741 418.309 142.542V142.569ZM420.546 142.569C420.546 141.87 420.135 141.351 419.672 141.351C419.209 141.351 418.798 141.897 418.798 142.551C418.798 143.259 419.209 143.77 419.672 143.77C420.135 143.77 420.546 143.215 420.546 142.542V142.569Z" fill="#A6A6A6"/>
<path d="M423.682 148.224H401.523V149.684H423.682V148.224Z" fill="#A6A6A6"/>
<path d="M427.387 151.298H397.811V152.758H427.387V151.298Z" fill="#FFFADD"/>
<path d="M427.387 154.058H397.811V155.518H427.387V154.058Z" fill="#FFFADD"/>
<path d="M427.387 156.826H397.811V158.287H427.387V156.826Z" fill="#FFFADD"/>
<path d="M222.058 65.1021L222.224 92.5764L222.276 120.06L222.39 175.009L222.276 229.957L222.224 257.441L222.058 284.915L221.9 257.441L221.839 229.957L221.734 175.009L221.848 120.06L221.9 92.5764L222.058 65.1021Z" fill="#A6A6A6"/>
<path d="M445.219 175.008L400.946 175.17L356.673 175.232L268.128 175.34L179.583 175.232L135.31 175.17L91.0371 175.008L135.31 174.847L179.583 174.784L268.128 174.677L356.673 174.784L400.946 174.847L445.219 175.008Z" fill="#B0B0B0"/>
<path d="M236.299 203.961C269.824 203.791 301.655 203.836 335.181 203.764C368.698 203.836 401.454 203.764 434.971 203.961C401.454 204.132 368.698 204.087 335.181 204.158C301.655 204.087 269.824 204.132 236.299 203.961Z" fill="#9A9A9A"/>
<path d="M236.299 220.172C269.824 220.001 301.655 220.046 335.181 219.975C368.698 220.046 401.454 219.975 434.971 220.172C401.454 220.342 368.698 220.297 335.181 220.369C301.655 220.297 269.824 220.342 236.299 220.172Z" fill="#9A9A9A"/>
<path d="M236.299 236.382C269.824 236.211 301.655 236.256 335.181 236.185C368.698 236.256 401.454 236.185 434.971 236.382C401.454 236.552 368.698 236.507 335.181 236.579C301.655 236.507 269.824 236.552 236.299 236.382Z" fill="#9A9A9A"/>
<path d="M236.299 252.593C269.824 252.422 301.655 252.467 335.181 252.396C368.698 252.467 401.454 252.396 434.971 252.593C401.454 252.763 368.698 252.718 335.181 252.79C301.655 252.718 269.824 252.763 236.299 252.593Z" fill="#9A9A9A"/>
<path d="M236.299 268.803C269.824 268.632 301.655 268.677 335.181 268.605C368.698 268.677 401.454 268.605 434.971 268.803C401.454 268.973 368.698 268.928 335.181 269C301.655 268.928 269.824 268.973 236.299 268.803Z" fill="#9A9A9A"/>
<path d="M255.355 193.423C255.521 208.567 255.478 223.711 255.548 238.864C255.478 254.008 255.548 269.152 255.355 284.305C255.189 269.152 255.233 254.008 255.163 238.864C255.233 223.711 255.189 208.567 255.355 193.423Z" fill="#9A9A9A"/>
<path d="M272.498 193.423C272.664 208.567 272.62 223.711 272.69 238.864C272.76 254.017 272.69 269.152 272.498 284.305C272.332 269.152 272.376 254.008 272.306 238.864C272.402 223.711 272.358 208.567 272.498 193.423Z" fill="#9A9A9A"/>
<path d="M289.702 193.423C289.868 208.567 289.824 223.711 289.894 238.864C289.824 254.008 289.894 269.152 289.702 284.305C289.536 269.152 289.571 254.008 289.51 238.864C289.449 223.72 289.536 208.567 289.702 193.423Z" fill="#9A9A9A"/>
<path d="M306.872 193.423C307.038 208.567 306.994 223.711 307.064 238.864C306.994 254.008 307.064 269.152 306.872 284.305C306.706 269.152 306.75 254.008 306.68 238.864C306.75 223.711 306.706 208.567 306.872 193.423Z" fill="#9A9A9A"/>
<path d="M324.05 193.423C324.216 208.567 324.172 223.711 324.242 238.864C324.172 254.008 324.242 269.152 324.05 284.305C323.884 269.152 323.919 254.008 323.857 238.864C323.796 223.72 323.884 208.567 324.05 193.423Z" fill="#9A9A9A"/>
<path d="M341.219 193.423C341.385 208.567 341.341 223.711 341.411 238.864C341.341 254.008 341.411 269.152 341.219 284.305C341.053 269.152 341.096 254.008 341.026 238.864C341.096 223.711 341.053 208.567 341.219 193.423Z" fill="#9A9A9A"/>
<path d="M358.396 193.423C358.562 208.567 358.519 223.711 358.589 238.864C358.519 254.008 358.589 269.152 358.396 284.305C358.23 269.152 358.265 254.008 358.204 238.864C358.143 223.72 358.23 208.567 358.396 193.423Z" fill="#9A9A9A"/>
<path d="M375.599 193.423C375.765 208.567 375.722 223.711 375.792 238.864C375.722 254.008 375.792 269.152 375.599 284.305C375.433 269.152 375.477 254.008 375.407 238.864C375.442 223.711 375.398 208.567 375.599 193.423Z" fill="#9A9A9A"/>
<path d="M392.735 193.423C392.901 208.567 392.866 223.711 392.936 238.864C392.866 254.008 392.936 269.152 392.735 284.305C392.569 269.152 392.613 254.008 392.543 238.864C392.613 223.711 392.578 208.567 392.735 193.423Z" fill="#9A9A9A"/>
<path d="M409.913 193.423C410.079 208.567 410.035 223.711 410.105 238.864C410.035 254.008 410.105 269.152 409.913 284.305C409.747 269.152 409.791 254.008 409.721 238.864C409.791 223.711 409.747 208.567 409.913 193.423Z" fill="#9A9A9A"/>
<path d="M427.081 193.423C427.247 208.567 427.212 223.711 427.273 238.864C427.334 254.017 427.273 269.152 427.081 284.305C426.915 269.152 426.959 254.008 426.889 238.864C426.959 223.711 426.915 208.567 427.081 193.423Z" fill="#9A9A9A"/>
<path d="M236.011 194.409C236.229 209.391 236.422 224.374 236.439 239.357L236.675 284.332L236.037 283.956L334.063 284.054L383.08 284.126L435.767 284.332L383.08 284.529L334.063 284.61L236.037 284.7H235.391V284.332L235.6 239.384C235.592 224.374 235.801 209.391 236.011 194.409Z" fill="white"/>
<path d="M236.299 284.332C236.299 284.332 245.526 244.904 254.892 244.904C262.756 244.904 266.085 256.553 272.472 256.553C280.904 256.553 282.083 226.462 290.2 226.462C298.317 226.462 300.074 238.228 307.055 238.228C314.036 238.228 317.112 224.294 324.337 224.294C331.563 224.294 333.337 244.707 341.044 244.707C348.75 244.707 348.907 212.519 358.335 212.519C367.763 212.519 370.244 226.381 375.766 226.381C381.288 226.381 384.504 216.247 392.621 216.247C408.016 216.229 427.081 284.332 427.081 284.332H236.299Z" fill="#FFC727"/>
<path opacity="0.2" d="M236.299 284.332C236.299 284.332 245.526 244.904 254.892 244.904C262.756 244.904 266.085 256.553 272.472 256.553C280.904 256.553 282.083 226.462 290.2 226.462C298.317 226.462 300.074 238.228 307.055 238.228C314.036 238.228 317.112 224.294 324.337 224.294C331.563 224.294 333.337 244.707 341.044 244.707C348.75 244.707 348.907 212.519 358.335 212.519C367.763 212.519 370.244 226.381 375.766 226.381C381.288 226.381 384.504 216.247 392.621 216.247C408.016 216.229 427.081 284.332 427.081 284.332H236.299Z" fill="black"/>
<path d="M236.299 284.332C236.299 284.332 246.233 240.602 255.041 240.602C263.848 240.602 264.783 252.619 272.201 252.619C279.619 252.619 279.733 231.516 289.676 231.516C296.544 231.516 298.964 240.083 306.548 240.083C316.981 240.083 315.417 220.198 323.936 220.198C334.831 220.198 330.427 247.592 341.786 247.592C348.977 247.592 350.882 235.306 359.462 235.306C365.141 235.306 367.623 244.133 375.05 244.133C382.477 244.133 384.093 226.507 393.398 226.507C408.593 226.507 427.387 284.332 427.387 284.332H236.299Z" fill="#FFC727"/>
<g opacity="0.1">
<path d="M236.298 284.332C236.298 284.332 246.232 240.602 255.04 240.602C263.847 240.602 264.782 252.619 272.2 252.619C279.618 252.619 279.732 231.516 289.675 231.516C296.543 231.516 298.963 240.083 306.547 240.083C316.98 240.083 315.416 220.198 323.935 220.198C334.83 220.198 330.426 247.592 341.785 247.592C348.976 247.592 350.881 235.306 359.461 235.306C365.14 235.306 367.622 244.133 375.049 244.133C382.476 244.133 384.092 226.507 393.397 226.507C408.592 226.507 427.386 284.332 427.386 284.332H236.298Z" fill="black"/>
</g>
<path d="M236.299 284.332C236.299 284.332 245.255 264.269 255.355 264.269C262.931 264.269 264.294 269.538 272.62 269.538C277.863 269.538 279.855 248.452 289.894 248.452C299.934 248.452 300.126 260.89 307.002 260.89C313.879 260.89 315.81 249.169 324.241 249.169C332.673 249.169 333.687 255.63 341.218 255.63C349.807 255.63 349.536 229.5 358.396 229.5C367.256 229.5 370.13 248.874 375.757 248.874C383.027 248.874 383.752 241.92 392.542 241.92C404.827 241.92 427.387 284.332 427.387 284.332H236.299Z" fill="#FFC727"/>
<path d="M97.2949 193.065V266.491H207.553V193.065H97.2949Z" fill="#DBDBDB"/>
<path d="M102.519 196.963V262.593H108.18V196.963H102.519Z" fill="white"/>
<path d="M102.519 229.052V262.602H108.18V229.052H102.519Z" fill="#FFC727"/>
<path d="M112.979 196.963V262.593H118.64V196.963H112.979Z" fill="white"/>
<path d="M112.985 210.781V262.602H118.647V210.781H112.985Z" fill="#FFC727"/>
<path d="M123.437 196.972V262.602H129.098V196.972H123.437Z" fill="white"/>
<path d="M123.446 220.88V262.602H129.108V220.88H123.446Z" fill="#FFC727"/>
<path d="M133.896 196.972V262.602H139.558V196.972H133.896Z" fill="white"/>
<path d="M133.896 241.741V262.602H139.558V241.741H133.896Z" fill="#FFC727"/>
<path d="M144.363 196.972V262.602H150.025V196.972H144.363Z" fill="white"/>
<path d="M144.363 206.094V262.593H150.025V206.094H144.363Z" fill="#FFC727"/>
<path d="M154.821 196.972V262.602H160.483V196.972H154.821Z" fill="white"/>
<path d="M154.821 210.781V262.602H160.483V210.781H154.821Z" fill="#FFC727"/>
<path d="M165.281 196.963V262.593H170.943V196.963H165.281Z" fill="white"/>
<path d="M165.29 220.87V262.593H170.952V220.87H165.29Z" fill="#FFC727"/>
<path d="M175.74 196.963V262.593H181.402V196.963H175.74Z" fill="white"/>
<path d="M175.74 210.781V262.602H181.402V210.781H175.74Z" fill="#FFC727"/>
<path d="M186.198 196.963V262.593H191.86V196.963H186.198Z" fill="white"/>
<path d="M186.198 241.732V262.593H191.86V241.732H186.198Z" fill="#FFC727"/>
<path d="M196.657 196.972V262.602H202.319V196.972H196.657Z" fill="white"/>
<path d="M196.665 220.88V262.602H202.327V220.88H196.665Z" fill="#FFC727"/>
<path d="M103.751 271.993H97.3555V278.553H103.751V271.993Z" fill="#FFC727"/>
<path d="M178.177 271.993H108.19V273.929H178.177V271.993Z" fill="#DBDBDB"/>
<path d="M153.416 276.608H108.19V278.543H153.416V276.608Z" fill="#DBDBDB"/>
<path d="M434.98 70.2185H338.605V80.1742H434.98V70.2185Z" fill="white"/>
<path d="M434.972 70.2185H425.265V80.1742H434.972V70.2185Z" fill="#FFC727"/>
<path d="M433.197 77.9875L432.323 78.6775L430.646 76.4373L430.043 75.6218C430.165 75.5687 430.279 75.4994 430.384 75.4158C430.59 75.2606 430.751 75.0496 430.847 74.8064L431.493 75.7025L433.197 77.9875Z" fill="white"/>
<path d="M431.432 72.6914C431.147 72.3125 430.763 72.0249 430.324 71.8627C429.885 71.7005 429.41 71.6704 428.955 71.7759C428.5 71.8813 428.084 72.1181 427.756 72.4581C427.427 72.7981 427.201 73.2273 427.103 73.6951C427.004 74.1628 427.039 74.6496 427.201 75.098C427.364 75.5464 427.648 75.9378 428.021 76.226C428.393 76.5142 428.838 76.6872 429.303 76.7246C429.768 76.762 430.234 76.6622 430.646 76.4371C430.767 76.3762 430.882 76.301 430.986 76.2131C431.181 76.0614 431.352 75.8801 431.493 75.6754C431.795 75.2363 431.951 74.7099 431.94 74.1731C431.929 73.6363 431.751 73.1171 431.432 72.6914ZM430.375 75.3797C430.27 75.4633 430.156 75.5326 430.034 75.5858C429.78 75.69 429.503 75.7195 429.234 75.6709C428.965 75.6224 428.714 75.4977 428.51 75.3109C428.306 75.1241 428.157 74.8826 428.08 74.6137C428.003 74.3448 428 74.0591 428.073 73.7888C428.146 73.5185 428.29 73.2744 428.491 73.0839C428.691 72.8933 428.94 72.764 429.208 72.7105C429.476 72.657 429.754 72.6814 430.009 72.7809C430.265 72.8804 430.488 73.0512 430.654 73.2739C430.808 73.4859 430.906 73.7351 430.938 73.9973C430.97 74.2596 430.936 74.5258 430.838 74.7703C430.746 75.0234 430.585 75.2441 430.375 75.4066V75.3797Z" fill="white"/>
<path d="M341.157 72.1719H340.633V78.2116H341.157V72.1719Z" fill="#333333"/>
<path d="M107.797 70.2185H97.2598V72.172H107.797V70.2185Z" fill="#A6A6A6"/>
<path d="M107.797 74.2148H97.2598V76.1683H107.797V74.2148Z" fill="#A6A6A6"/>
<path d="M107.797 78.2117H97.2598V80.1652H107.797V78.2117Z" fill="#A6A6A6"/>
<path d="M85.5166 158.437L77.2891 149.19L49.3614 175.325L57.5889 184.573L85.5166 158.437Z" fill="#455A64"/>
<path d="M156.615 83.4355C149.733 75.7015 140.769 70.234 130.857 67.7245C120.946 65.215 110.531 65.7761 100.93 69.3369C91.3292 72.8977 82.9735 79.2982 76.9194 87.7292C70.8654 96.1602 67.385 106.243 66.9182 116.703C66.4515 127.162 69.0194 137.529 74.2973 146.492C79.5751 155.455 87.3259 162.611 96.5695 167.056C105.813 171.502 116.134 173.036 126.228 171.465C136.322 169.895 145.735 165.29 153.277 158.233C158.286 153.547 162.345 147.895 165.223 141.599C168.101 135.304 169.742 128.489 170.052 121.543C170.362 114.598 169.335 107.657 167.029 101.119C164.724 94.5801 161.185 88.5714 156.615 83.4355ZM88.3754 147.3C82.9412 141.196 79.3942 133.575 78.1829 125.403C76.9716 117.231 78.1504 108.874 81.5702 101.389C84.9901 93.9036 90.4974 87.6266 97.3957 83.3515C104.294 79.0765 112.273 76.9953 120.325 77.3713C128.377 77.7473 136.139 80.5635 142.63 85.4637C149.121 90.364 154.049 97.1283 156.791 104.901C159.534 112.674 159.967 121.106 158.037 129.132C156.107 137.157 151.899 144.416 145.946 149.989C137.963 157.46 127.414 161.373 116.618 160.869C105.822 160.365 95.6634 155.484 88.3754 147.3Z" fill="#333333"/>
<path d="M64.2634 175.068L59.2044 169.382C57.165 167.089 53.6999 166.927 51.4649 169.018L22.8014 195.842C20.5664 197.934 20.4079 201.488 22.4473 203.78L27.5063 209.466C29.5457 211.758 33.0108 211.921 35.2458 209.829L63.9093 183.005C66.1443 180.914 66.3028 177.36 64.2634 175.068Z" fill="#333333"/>
<g opacity="0.4">
<path d="M145.947 149.998C139.994 155.571 132.564 159.208 124.596 160.451C116.627 161.693 108.479 160.484 101.18 156.977C93.8818 153.469 87.7614 147.821 83.593 140.746C79.4245 133.672 77.3953 125.488 77.7619 117.231C78.1285 108.973 80.8744 101.012 85.6525 94.3553C90.4305 87.6983 97.0261 82.6439 104.605 79.8312C112.184 77.0186 120.406 76.574 128.231 78.5538C136.057 80.5336 143.134 84.8488 148.568 90.9536C155.855 99.1399 159.672 109.96 159.181 121.032C158.689 132.105 153.929 142.524 145.947 149.998Z" fill="white"/>
<path d="M136.422 156.665C126.768 161.506 115.641 162.246 105.459 158.722C95.2762 155.199 86.8605 147.697 82.04 137.847L136.422 156.665Z" fill="#FFFADD"/>
<path d="M159.167 121.52L84.6885 95.7661C86.4971 93.0129 88.6209 90.4918 91.0144 88.2568C93.7494 85.6839 96.8193 83.5125 100.136 81.8049L155.13 100.811C158.179 107.247 159.569 114.377 159.167 121.52Z" fill="#FFFADD"/>
<path d="M148.811 147.041L77.8631 122.506C77.6519 119.774 77.6987 117.028 78.0029 114.306L153.547 140.428C152.19 142.79 150.603 145.006 148.811 147.041Z" fill="#FFFADD"/>
<path d="M158.459 127.192L81.8926 100.721C82.111 100.264 82.3294 99.8252 82.5566 99.3682L158.721 125.722C158.651 126.197 158.573 126.699 158.459 127.192Z" fill="#FFFADD"/>
<path d="M147.169 89.4396L113.181 77.6828C114.395 77.5215 115.61 77.4139 116.833 77.3691L144.47 86.9216C145.404 87.7101 146.296 88.5435 147.169 89.4396Z" fill="#FFFADD"/>
</g>
<path d="M98.1713 96.7875L98.3024 96.68C98.914 96.1602 97.6733 97.1639 98.1014 96.8413C98.5295 96.5187 99.1237 96.0617 99.6479 95.6853C101.496 94.4039 103.446 93.2828 105.476 92.3339L106.35 91.9396C106.446 91.8948 105.659 92.2353 106.288 91.9396L106.821 91.7156C107.512 91.4378 108.211 91.1779 108.918 90.9449C110.474 90.4159 112.062 89.9938 113.672 89.6814L114.825 89.4753C115.349 89.3857 114.231 89.547 114.938 89.4753L115.637 89.3857C116.511 89.2872 117.385 89.2244 118.32 89.1976C119.255 89.1707 120.251 89.1976 121.221 89.1976C121.666 89.1976 122.094 89.2603 122.549 89.2961C123.318 89.3678 122.234 89.2424 122.785 89.2961L123.571 89.4126C125.956 89.793 128.298 90.4174 130.561 91.2765L130.675 91.3213L130.911 91.4199C131.234 91.5633 131.566 91.6977 131.889 91.85C132.51 92.1368 133.13 92.4325 133.733 92.7461C135.022 93.4154 136.276 94.1542 137.49 94.9595C138.202 95.3248 139.024 95.3929 139.783 95.1495C140.543 94.9061 141.181 94.3701 141.564 93.6542C141.946 92.9383 142.043 92.0982 141.834 91.3106C141.625 90.5229 141.126 89.849 140.443 89.4305C132.762 84.2288 123.524 82.0049 114.388 83.1579C108.214 84.0629 102.312 86.358 97.1053 89.8786C95.935 90.645 94.8169 91.4923 93.7589 92.4146C93.4749 92.7125 93.2513 93.0652 93.101 93.4523C92.9507 93.8394 92.8767 94.2532 92.8832 94.6697C92.8897 95.0863 92.9766 95.4975 93.1389 95.8794C93.3012 96.2614 93.5357 96.6066 93.8288 96.895C94.4241 97.4659 95.2123 97.7775 96.0273 97.7641C96.8422 97.7507 97.6202 97.4135 98.1975 96.8234L98.1713 96.7875Z" fill="white"/>
<path d="M91.9154 103.625C91.4994 104.062 90.9664 104.362 90.3837 104.489C89.8011 104.616 89.1949 104.563 88.6417 104.336C88.0885 104.11 87.6131 103.721 87.2754 103.218C86.9377 102.714 86.753 102.12 86.7444 101.509C86.7359 100.898 86.904 100.299 87.2275 99.7858C87.551 99.2729 88.0153 98.8698 88.562 98.6273C89.1087 98.3848 89.7131 98.3139 90.299 98.4234C90.885 98.5329 91.4262 98.818 91.8543 99.2427C92.4286 99.8156 92.7576 100.599 92.7691 101.421C92.7805 102.242 92.4735 103.035 91.9154 103.625Z" fill="white"/>
<path d="M275 350C387.666 350 479 343.508 479 335.5C479 327.492 387.666 321 275 321C162.334 321 71 327.492 71 335.5C71 343.508 162.334 350 275 350Z" fill="url(#paint0_radial_1528_1830)" fill-opacity="0.18"/>
<defs>
<radialGradient id="paint0_radial_1528_1830" cx="0" cy="0" r="1" gradientUnits="userSpaceOnUse" gradientTransform="translate(275 335.5) scale(204 14.5)">
<stop stop-color="#FFF4B8"/>
<stop offset="1" stop-color="#99936F" stop-opacity="0"/>
</radialGradient>
</defs>
</svg>
