<svg width="530" height="483" viewBox="0 0 530 483" fill="none" xmlns="http://www.w3.org/2000/svg">
<circle cx="476.517" cy="183.548" r="52.5" fill="#FFFADD"/>
<path d="M447.809 182.672C447.809 182.672 443.148 179.766 443.957 179.629C444.766 179.493 457.273 179.97 458.355 180.103C459.436 180.237 463.019 180.646 463.49 180.847C463.961 181.049 468.762 182.741 471.805 183.01C474.848 183.28 478.028 183.078 478.564 183.348C479.1 183.618 481.133 185.719 480.659 186.456C480.185 187.194 478.902 187.405 478.902 187.405L468.898 188.486C468.898 188.486 467.277 186.593 465.991 186.051C464.705 185.508 456.055 182.942 453.623 182.942C451.19 182.942 447.809 182.672 447.809 182.672Z" fill="#263238" stroke="#263238" stroke-miterlimit="10"/>
<path d="M446.661 188.081C446.661 188.081 442.261 196.461 437.671 199.569C437.671 199.569 436.927 199.842 438.278 199.842C439.63 199.842 443.823 195.311 445.174 193.69C446.525 192.069 447.945 191.053 449.702 191.053H452.271L446.661 188.081Z" fill="#263238" stroke="#263238" stroke-miterlimit="10"/>
<path d="M450.988 195.246C449.143 195.245 447.339 195.792 445.805 196.816C444.27 197.841 443.074 199.298 442.368 201.003C441.661 202.707 441.476 204.583 441.836 206.393C442.196 208.203 443.085 209.865 444.389 211.17C445.694 212.475 447.357 213.363 449.166 213.723C450.976 214.083 452.852 213.898 454.557 213.191C456.261 212.485 457.718 211.289 458.743 209.754C459.768 208.22 460.314 206.416 460.314 204.571C460.314 202.098 459.331 199.726 457.582 197.977C455.834 196.228 453.462 195.246 450.988 195.246ZM450.988 209.914C449.933 209.914 448.902 209.601 448.025 209.015C447.148 208.429 446.464 207.596 446.061 206.621C445.657 205.646 445.551 204.574 445.757 203.539C445.963 202.505 446.471 201.554 447.217 200.808C447.963 200.062 448.913 199.554 449.948 199.348C450.983 199.143 452.055 199.248 453.03 199.652C454.004 200.056 454.837 200.739 455.423 201.616C456.009 202.494 456.322 203.525 456.322 204.58C456.322 205.994 455.76 207.351 454.76 208.351C453.76 209.352 452.403 209.914 450.988 209.914Z" fill="#263238" stroke="#263238" stroke-miterlimit="10"/>
<path d="M450.988 200.719C450.226 200.719 449.481 200.945 448.848 201.368C448.214 201.791 447.721 202.393 447.429 203.097C447.137 203.801 447.061 204.575 447.21 205.322C447.358 206.07 447.725 206.756 448.264 207.295C448.803 207.834 449.489 208.2 450.236 208.349C450.984 208.498 451.758 208.421 452.462 208.13C453.166 207.838 453.768 207.345 454.191 206.711C454.614 206.078 454.84 205.333 454.84 204.571C454.84 203.549 454.434 202.569 453.712 201.847C452.989 201.125 452.01 200.719 450.988 200.719ZM450.988 206.779C450.551 206.779 450.124 206.65 449.761 206.408C449.397 206.166 449.114 205.821 448.946 205.418C448.779 205.014 448.735 204.57 448.819 204.142C448.904 203.714 449.114 203.32 449.423 203.011C449.732 202.702 450.125 202.491 450.553 202.406C450.982 202.321 451.426 202.364 451.829 202.531C452.233 202.698 452.578 202.981 452.82 203.344C453.063 203.707 453.193 204.134 453.193 204.571C453.193 205.156 452.96 205.717 452.547 206.131C452.134 206.545 451.573 206.778 450.988 206.779Z" fill="#263238" stroke="#263238" stroke-miterlimit="10"/>
<path d="M450.988 197.88C449.664 197.878 448.37 198.269 447.268 199.003C446.167 199.737 445.308 200.782 444.8 202.004C444.292 203.227 444.158 204.572 444.416 205.871C444.673 207.169 445.309 208.362 446.245 209.299C447.18 210.236 448.372 210.874 449.67 211.133C450.969 211.391 452.314 211.259 453.538 210.753C454.761 210.247 455.806 209.39 456.542 208.289C457.277 207.189 457.67 205.895 457.67 204.571C457.671 202.798 456.967 201.097 455.714 199.842C454.461 198.587 452.761 197.881 450.988 197.88ZM450.988 209.914C449.933 209.914 448.902 209.601 448.025 209.015C447.147 208.429 446.464 207.596 446.06 206.621C445.656 205.646 445.551 204.574 445.757 203.539C445.962 202.504 446.47 201.554 447.216 200.808C447.962 200.062 448.913 199.554 449.947 199.348C450.982 199.143 452.054 199.248 453.029 199.652C454.004 200.056 454.837 200.739 455.423 201.616C456.009 202.494 456.322 203.525 456.322 204.58C456.322 205.994 455.76 207.351 454.759 208.351C453.759 209.352 452.403 209.914 450.988 209.914Z" fill="white" stroke="#263238" stroke-miterlimit="10"/>
<path d="M455.178 191.595L452.541 198.76L453.759 199.231L456.461 192.066L455.178 191.595Z" fill="#263238" stroke="#263238" stroke-miterlimit="10"/>
<path d="M452.541 198.76C452.541 198.76 449.77 197.542 447.539 199.231C445.308 200.92 445.038 203.006 445.038 203.006C445.038 203.006 448.552 205.572 453.148 205.969C457.744 206.367 462.408 205.7 464.705 205.024C466.112 204.606 467.471 204.04 468.759 203.335L463.081 197.112C463.081 197.112 462.272 195.963 460.379 197.044C458.485 198.126 458.417 199.545 458.417 199.545L452.541 198.76Z" fill="#263238" stroke="#263238" stroke-miterlimit="10"/>
<path d="M456.462 192.066L454.503 199.299L460.18 201.868C460.119 201.042 460.307 200.216 460.72 199.498C461.395 198.416 462.275 198.481 462.477 198.609C462.678 198.736 463.896 199.352 463.896 199.352L463.357 195.094L456.462 192.066Z" fill="#263238" stroke="#263238" stroke-miterlimit="10"/>
<path d="M507.091 195.246C505.246 195.245 503.442 195.792 501.907 196.816C500.373 197.841 499.177 199.298 498.47 201.003C497.764 202.707 497.579 204.583 497.939 206.393C498.299 208.203 499.187 209.865 500.492 211.17C501.797 212.475 503.459 213.363 505.269 213.723C507.079 214.083 508.954 213.898 510.659 213.191C512.364 212.485 513.821 211.289 514.845 209.754C515.87 208.22 516.417 206.416 516.416 204.571C516.416 203.346 516.175 202.134 515.706 201.002C515.238 199.871 514.551 198.843 513.685 197.977C512.819 197.111 511.791 196.424 510.66 195.955C509.528 195.487 508.316 195.246 507.091 195.246ZM507.091 209.914C506.036 209.914 505.005 209.601 504.128 209.015C503.251 208.429 502.567 207.596 502.163 206.621C501.759 205.646 501.654 204.574 501.86 203.539C502.065 202.505 502.573 201.554 503.319 200.808C504.065 200.062 505.016 199.554 506.05 199.348C507.085 199.143 508.157 199.248 509.132 199.652C510.107 200.056 510.94 200.739 511.526 201.616C512.112 202.494 512.425 203.525 512.425 204.58C512.425 205.994 511.863 207.351 510.863 208.351C509.862 209.352 508.506 209.914 507.091 209.914Z" fill="#263238" stroke="#263238" stroke-miterlimit="10"/>
<path d="M507.09 200.719C506.329 200.719 505.584 200.945 504.95 201.368C504.317 201.791 503.823 202.393 503.532 203.097C503.24 203.801 503.164 204.575 503.312 205.322C503.461 206.07 503.828 206.756 504.367 207.295C504.905 207.834 505.592 208.2 506.339 208.349C507.086 208.498 507.861 208.421 508.565 208.13C509.269 207.838 509.87 207.345 510.293 206.711C510.717 206.078 510.943 205.333 510.943 204.571C510.943 203.549 510.537 202.569 509.814 201.847C509.092 201.125 508.112 200.719 507.09 200.719ZM507.09 206.779C506.654 206.779 506.227 206.65 505.863 206.408C505.5 206.166 505.216 205.821 505.049 205.418C504.881 205.014 504.837 204.57 504.922 204.142C505.007 203.714 505.217 203.32 505.525 203.011C505.834 202.702 506.227 202.491 506.656 202.406C507.084 202.321 507.528 202.364 507.932 202.531C508.335 202.698 508.68 202.981 508.923 203.344C509.166 203.707 509.295 204.134 509.295 204.571C509.295 205.156 509.063 205.717 508.65 206.131C508.236 206.545 507.675 206.778 507.09 206.779Z" fill="#263238" stroke="#263238" stroke-miterlimit="10"/>
<path d="M507.091 197.88C505.768 197.88 504.474 198.272 503.374 199.008C502.274 199.743 501.416 200.788 500.91 202.01C500.403 203.233 500.271 204.578 500.529 205.876C500.787 207.174 501.424 208.366 502.36 209.302C503.296 210.238 504.488 210.875 505.786 211.133C507.084 211.391 508.429 211.259 509.652 210.752C510.874 210.246 511.919 209.388 512.655 208.288C513.39 207.188 513.782 205.894 513.782 204.571C513.782 202.796 513.077 201.094 511.823 199.84C510.568 198.585 508.866 197.88 507.091 197.88ZM507.091 209.914C506.036 209.914 505.005 209.601 504.128 209.015C503.251 208.429 502.567 207.596 502.164 206.621C501.76 205.646 501.654 204.574 501.86 203.539C502.066 202.504 502.574 201.554 503.32 200.808C504.066 200.062 505.016 199.554 506.051 199.348C507.085 199.143 508.158 199.248 509.132 199.652C510.107 200.056 510.94 200.739 511.526 201.616C512.112 202.494 512.425 203.525 512.425 204.58C512.425 205.994 511.863 207.351 510.863 208.351C509.863 209.352 508.506 209.914 507.091 209.914Z" fill="white" stroke="#263238" stroke-miterlimit="10"/>
<path d="M498.533 195.895L505.891 198.158C505.891 198.158 509.853 195.166 514.378 196.218C514.378 196.218 512.763 191.61 502.575 190.801L498.533 195.895Z" fill="#FFCB00" stroke="#263238" stroke-miterlimit="10"/>
<path d="M506.104 204.571L499.763 193.524L501.025 192.801L507.366 203.857C507.44 203.991 507.459 204.149 507.419 204.297C507.378 204.445 507.282 204.572 507.15 204.651L506.895 204.796C506.76 204.868 506.602 204.885 506.454 204.843C506.307 204.801 506.181 204.703 506.104 204.571Z" fill="#6E6E6E" stroke="#263238" stroke-miterlimit="10"/>
<path d="M492.014 175.712C492.014 175.712 497.961 178.551 499.585 179.766C501.209 180.981 504.519 183.618 505.058 184.362C505.597 185.105 507.153 187.538 506.614 188.35C506.074 189.162 505.725 189.633 505.396 189.832C505.067 190.03 503.505 190.303 502.762 191.183C502.018 192.063 495.798 201.93 495.798 201.93C495.798 201.93 493.57 205.513 493.229 205.513C492.888 205.513 488.971 206.932 483.972 206.728C478.973 206.523 472.955 205.175 471.873 205.107C470.791 205.039 469.573 204.431 469.099 204.159C468.625 203.886 467.277 203.012 465.315 200.982C463.354 198.952 462.071 198.28 462.207 195.711C462.207 195.711 446.798 188.952 446.051 188.208C445.305 187.464 443.55 184.018 444.294 183.41C445.038 182.803 448.146 182.124 452.067 182.598C455.987 183.073 464.572 185.031 466.261 186.181C467.235 186.83 468.122 187.603 468.898 188.48L478.902 187.399L479.509 188.486C479.509 188.486 475.927 193.148 475.927 193.485C475.927 193.823 479.915 200.517 479.915 200.517C479.915 200.517 477.82 200.787 476.333 200.855C474.845 200.923 473.562 201.124 473.562 201.124C473.562 201.124 486.811 201.868 488.906 201.732C491.001 201.596 492.352 199.361 492.69 198.487C493.027 197.613 492.147 193.352 492.891 190.783C493.635 188.214 494.583 186.525 493.57 184.768C492.556 183.01 489.039 179.09 489.039 177.952C489.039 176.814 492.014 175.712 492.014 175.712Z" fill="#FFCB00" stroke="#263238" stroke-miterlimit="10"/>
<path d="M492.014 175.712C492.014 175.712 488.094 178.008 488.094 178.414C488.094 178.82 491.407 185.173 491.878 186.525C492.349 187.876 490.933 196.73 490.595 197.678C490.257 198.626 488.296 200.641 488.296 200.641L479.916 200.508L478.33 200.864L476.333 200.846C476.333 200.846 474.037 199.764 473.631 199.696C473.225 199.628 465.991 197.735 464.978 198.345C463.965 198.955 464.302 199.696 464.708 199.827C465.114 199.957 479.984 202.665 480.322 202.665C480.659 202.665 488.094 203.88 490.663 202.935C493.232 201.99 495.73 198.339 496.273 197.121L496.812 195.906L494.583 193.945C494.583 193.945 494.649 192.051 495.055 191.038C495.461 190.024 496.812 186.984 496.409 185.902C496.006 184.821 490.266 178.888 490.325 178.008C490.385 177.128 492.014 175.712 492.014 175.712Z" fill="#263238" stroke="#263238" stroke-miterlimit="10"/>
<path d="M492.826 195.785C492.094 195.989 491.363 196.561 490.714 197.225C490.666 197.435 490.625 197.589 490.595 197.678C490.257 198.624 488.296 200.641 488.296 200.641L479.916 200.508L478.33 200.864L476.333 200.846C475.564 201.029 474.81 201.275 474.081 201.581C477.314 202.173 480.176 202.671 480.322 202.671C480.659 202.671 488.094 203.886 490.663 202.941C493.232 201.996 495.73 198.345 496.273 197.127L496.812 195.912C495.527 195.466 494.137 195.422 492.826 195.785Z" fill="#263238" stroke="#263238" stroke-miterlimit="10"/>
<path d="M492.488 169.762C492.488 169.762 488.971 168.479 487.688 169.018C486.405 169.557 484.31 171.249 484.037 172.399C483.765 173.549 484.31 174.088 485.187 174.9C486.064 175.712 488.432 178.278 488.432 178.278L492.014 175.712L492.488 175.102C492.488 175.102 494.178 174.63 494.246 174.293C494.293 173.267 494.179 172.24 493.908 171.249C493.816 170.902 493.637 170.583 493.389 170.323C493.141 170.063 492.831 169.87 492.488 169.762Z" fill="#FFCB00" stroke="#263238" stroke-miterlimit="10"/>
<path d="M492.34 170.035C492.34 170.035 491.748 171.181 492.204 171.993C492.66 172.805 493.686 175.034 493.961 174.364C494.237 173.694 493.828 171.525 493.368 170.918C493.09 170.556 492.74 170.256 492.34 170.035Z" fill="white" stroke="#263238" stroke-miterlimit="10"/>
<path d="M486.239 175.952C487.247 176.992 488.432 178.278 488.432 178.278L492.015 175.712L492.489 175.102C492.977 174.965 493.454 174.789 493.914 174.574C492.533 173.922 489.434 172.553 488.702 173.075C487.97 173.596 486.802 175.173 486.239 175.952Z" fill="#6E6E6E" stroke="#263238" stroke-miterlimit="10"/>
<path d="M487.214 170.574C487.214 170.574 487.149 165.776 486.325 165.64C485.501 165.504 484.026 166.114 484.026 166.114C483.7 165.651 483.478 165.123 483.376 164.566C483.274 164.009 483.293 163.436 483.433 162.887C483.451 162.816 483.472 162.742 483.495 162.665C484.103 160.638 487.078 164.422 487.347 165.036C487.516 165.51 487.584 166.015 487.549 166.517L487.955 170.304C487.955 170.304 489.105 170.98 488.565 171.048C488.026 171.116 485.86 171.048 486.402 170.506C486.944 169.964 487.214 170.574 487.214 170.574Z" fill="#263238" stroke="#263238" stroke-miterlimit="10"/>
<path d="M491.113 176.358L483.978 173.099C484.037 173.801 484.511 174.266 485.187 174.877C486.075 175.688 488.431 178.255 488.431 178.255L491.113 176.358Z" fill="#263238" stroke="#263238" stroke-miterlimit="10"/>
<path d="M459.045 160.072H436.679V179.312H459.045V160.072Z" fill="#263238" stroke="#263238" stroke-miterlimit="10"/>
<path d="M457.122 179.315H438.362V179.795H457.122V179.315Z" fill="#263238" stroke="#263238" stroke-miterlimit="10"/>
<path d="M478.946 200.636C479.518 200.573 479.915 200.523 479.915 200.523C479.915 200.523 475.926 193.82 475.926 193.485C475.926 193.15 479.509 188.486 479.509 188.486L478.901 187.405L468.897 188.486C468.897 188.486 474.643 195.177 476.468 197.34C477.353 198.393 478.18 199.493 478.946 200.636Z" fill="#6E6E6E" stroke="#263238" stroke-miterlimit="10"/>
<path d="M505.123 187.915L506.294 188.22" stroke="#263238" stroke-miterlimit="10"/>
<path d="M496.998 185.796L504.142 187.66" stroke="#263238" stroke-miterlimit="10"/>
<path d="M501.203 186.279L496.675 182.4L499.342 183.126L504.032 187.008L501.203 186.279Z" fill="white" stroke="#263238" stroke-miterlimit="10"/>
<path d="M471.111 194.511C472.208 194.609 472.99 194.686 472.99 194.686" stroke="#263238" stroke-miterlimit="10"/>
<path d="M462.681 195.302C462.681 195.302 462.681 194.333 464.865 194.212C466.645 194.195 468.426 194.272 470.198 194.443" stroke="#263238" stroke-miterlimit="10"/>
<path d="M479.432 179.259C479.162 179.194 477.628 177.934 477.903 177.902C480.342 177.606 486.648 178.332 487.714 178.494C489.149 178.699 487.196 186.954 486.719 189.888C486.307 192.416 486.879 194.117 486.828 194.629C486.824 194.669 486.829 194.709 486.844 194.745C486.859 194.782 486.883 194.815 486.914 194.84L487.211 195.1C487.258 195.144 487.289 195.202 487.296 195.266L487.397 196.235C487.405 196.297 487.435 196.354 487.482 196.396C487.529 196.437 487.59 196.459 487.652 196.458C488.384 196.454 489.111 196.34 489.809 196.12C490.627 195.779 491.922 195.302 491.587 196.052C491.252 196.801 490.156 198.167 489.543 198.44C488.929 198.713 485.655 199.599 484.834 199.806C484.221 199.957 482.724 199.957 482.013 199.948C481.971 199.948 481.93 199.938 481.894 199.918C481.857 199.898 481.827 199.869 481.804 199.833C481.782 199.798 481.769 199.758 481.767 199.716C481.765 199.675 481.773 199.633 481.791 199.596C482.087 198.92 482.736 197.412 482.789 196.532C482.858 195.37 483.133 188.066 483.747 185.95C484.283 184.104 485.03 181.896 485.21 180.874C485.218 180.842 485.219 180.809 485.213 180.777C485.208 180.744 485.196 180.713 485.178 180.686C485.16 180.658 485.137 180.634 485.11 180.616C485.083 180.597 485.053 180.584 485.021 180.578L479.432 179.259Z" fill="#263238" stroke="#263238" stroke-miterlimit="10"/>
<path d="M483.133 197.859L484.858 198.689C484.889 198.705 484.924 198.714 484.959 198.715C485.317 198.715 487.466 198.793 487.839 198.917C488.212 199.041 488.452 199.121 488.112 199.53C487.771 199.939 486.272 200.636 484.636 200.965C483.178 201.289 481.684 201.427 480.191 201.373C479.626 201.352 479.064 201.281 478.511 201.16C478.446 201.146 478.39 201.107 478.355 201.051C478.319 200.996 478.307 200.928 478.321 200.864L478.727 198.609C478.736 198.557 478.762 198.509 478.8 198.473C478.837 198.436 478.886 198.412 478.938 198.404L482.979 197.829C483.033 197.822 483.087 197.832 483.133 197.859Z" fill="white" stroke="#263238" stroke-miterlimit="10"/>
<path d="M488.112 199.53C488.408 199.166 488.286 199.071 487.963 198.958L487.685 198.991C487.119 199.367 486.138 199.809 484.425 200.215C482.524 200.698 480.553 200.851 478.6 200.668C478.537 200.662 478.474 200.68 478.424 200.717C478.373 200.755 478.339 200.811 478.327 200.873C478.313 200.937 478.325 201.005 478.361 201.06C478.396 201.116 478.452 201.155 478.517 201.169C479.069 201.289 479.632 201.361 480.197 201.382C481.69 201.436 483.183 201.298 484.642 200.973C486.271 200.636 487.771 199.942 488.112 199.53Z" fill="white" stroke="#263238" stroke-miterlimit="10"/>
<path d="M465.541 174.856C465.541 174.856 464.723 179.973 465.132 181.268C465.541 182.563 475.062 183.669 477.655 183.464C479.684 183.304 479.373 183.541 481.468 183.39C481.664 183.375 481.842 183.476 481.803 183.672L478.825 198.153C478.818 198.188 478.819 198.223 478.827 198.258C478.835 198.292 478.851 198.325 478.872 198.353C478.894 198.381 478.921 198.404 478.952 198.42C478.984 198.437 479.018 198.447 479.053 198.449C479.843 198.508 480.636 198.501 481.424 198.428C482.096 198.333 482.752 198.143 483.371 197.862C483.403 197.848 483.431 197.826 483.454 197.8C483.477 197.773 483.494 197.742 483.504 197.708L483.732 196.97C483.738 196.941 483.738 196.911 483.732 196.882L483.602 194.867C483.599 194.832 483.604 194.798 483.617 194.766C483.913 193.963 487.095 183.106 487.424 181.79C487.765 180.427 488.174 179.336 487.288 178.723C486.402 178.11 474.94 175.807 474.94 175.807L465.541 174.856Z" fill="#FFCB00" stroke="#263238" stroke-miterlimit="10"/>
<path d="M467.994 178.139C467.994 178.139 472.362 176.64 474.952 175.819" stroke="#263238" stroke-miterlimit="10"/>
<path d="M481.895 183.224C481.895 183.224 483.969 183.099 485.527 182.145" stroke="#263238" stroke-miterlimit="10"/>
<path d="M482.049 183.917C482.049 183.917 484.636 183.449 485.732 182.895" stroke="#263238" stroke-miterlimit="10"/>
<path d="M476.317 167.892L476.711 171.238L479.464 171.925L484.037 172.399L480.839 173.499L474.939 174.678L476.317 167.892Z" fill="#263238" stroke="#263238" stroke-miterlimit="10"/>
<path d="M474.612 156.244C474.612 156.244 473.112 155.903 470.792 158.084C468.703 160.098 467.259 162.686 466.643 165.522C466.03 168.112 465.417 173.025 465.212 173.979C465.008 174.933 465.28 175.069 465.757 175.342C466.235 175.615 469.168 176.163 471.761 176.299C474.354 176.435 475.581 175.955 475.909 175.478C476.238 175.001 475.909 169.955 476.318 168.316C476.727 166.677 477.545 161.018 477.545 161.018L474.878 156.38L474.612 156.244Z" fill="#263238" stroke="#263238" stroke-miterlimit="10"/>
<path d="M477.272 153.446L475.228 156.448L478.363 159.791C478.363 159.791 480.547 156.993 480.887 156.789C481.228 156.584 481.978 156.244 481.978 156.244L477.272 153.446Z" fill="white" stroke="#263238" stroke-miterlimit="10"/>
<path d="M478.306 155.867L479.55 158.229L480.887 156.789L478.306 155.867Z" fill="#263238" stroke="#263238" stroke-miterlimit="10"/>
<path d="M484.026 151.402L484.23 152.424C484.23 152.424 485.048 153.242 484.844 153.719C484.639 154.196 483.685 154.608 483.685 154.608C483.685 154.608 482.434 157.213 482.159 157.485C481.883 157.758 479.729 156.86 478.775 156.315C477.821 155.77 477.613 154.199 477.613 154.199L477.136 153.858C477.136 153.858 475.705 153.518 475.569 152.768C475.432 152.018 475.364 151.197 476.182 150.72C477 150.243 477.613 149.971 477.96 149.971C478.307 149.971 483.077 150.72 483.077 150.72L484.026 151.402Z" fill="white" stroke="#263238" stroke-miterlimit="10"/>
<path d="M483.343 154.949C483.343 154.949 482.116 154.878 481.841 154.128" stroke="#263238" stroke-miterlimit="10"/>
<path d="M479.251 150.853C479.251 150.853 478.706 152.219 478.499 152.356C478.291 152.492 478.226 151.262 476.999 151.538C475.773 151.813 475.977 153.174 476.318 153.446C476.565 153.628 476.842 153.766 477.136 153.855L476.484 154.667C476.484 154.667 476.187 154.332 475.159 154.264C474.131 154.196 472.907 153.037 472.839 152.151C472.771 151.265 473.589 150.172 473.589 150.172C473.552 150.308 473.566 150.452 473.629 150.578C473.692 150.703 473.799 150.802 473.929 150.853C474.28 150.973 474.657 150.997 475.02 150.922L479.251 150.853Z" fill="#263238" stroke="#263238" stroke-miterlimit="10"/>
<path d="M474.406 151.058L484.434 151.47C484.434 151.47 484.093 148.483 483.746 147.375C483.4 146.267 479.598 145.004 477.538 145.194C475.479 145.384 474.741 147.716 474.741 147.716L474.406 151.058Z" fill="#263238" stroke="#263238" stroke-miterlimit="10"/>
<path d="M481.08 151.331C482.404 151.637 483.749 151.843 485.104 151.947C487.152 152.083 488.515 151.47 488.515 150.99C488.515 150.51 484.014 151.402 484.014 151.402L481.08 151.331Z" fill="#FFCB00" stroke="#263238" stroke-miterlimit="10"/>
<path d="M474.954 154.877L478.91 160.268L477.272 162.111L474.065 156.107L474.954 154.877Z" fill="#FFCB00" stroke="#263238" stroke-miterlimit="10"/>
<path d="M471.192 171.021L480.695 172.36C480.695 172.36 483.815 171.797 484.651 171.303C485.486 170.808 485.993 171.092 486.165 171.326C486.337 171.56 486.574 173.181 486.657 173.54C486.74 173.898 486.014 174.132 485.723 174.227C485.433 174.322 483.945 173.679 483.945 173.679C483.945 173.679 482.316 174.399 481.711 174.307C481.292 174.23 480.89 174.076 480.526 173.854C480.526 173.854 469.509 175.078 467.905 175.181C466.302 175.285 466.883 173.629 467.061 172.873C467.331 171.723 467.535 170.71 467.535 170.71L471.192 171.021Z" fill="white" stroke="#263238" stroke-miterlimit="10"/>
<path d="M473.005 159.26C472.045 159.305 470.931 160.372 470.371 161.284C468.833 163.821 466.575 171.771 466.575 171.771L473.773 171.081C473.773 171.081 474.721 161.705 474.451 160.709C474.158 159.61 473.616 159.231 473.005 159.26Z" fill="#FFCB00" stroke="#263238" stroke-miterlimit="10"/>
<path d="M485.661 173.007C485.661 172.805 485.602 172.608 485.491 172.441C485.379 172.273 485.22 172.143 485.035 172.065C484.849 171.988 484.644 171.968 484.447 172.007C484.249 172.046 484.068 172.143 483.926 172.285C483.783 172.427 483.686 172.609 483.647 172.806C483.608 173.004 483.629 173.208 483.706 173.394C483.783 173.58 483.914 173.739 484.081 173.85C484.249 173.961 484.446 174.021 484.647 174.02C484.916 174.02 485.174 173.913 485.364 173.723C485.554 173.533 485.661 173.275 485.661 173.007Z" fill="#263238" stroke="#263238" stroke-miterlimit="10"/>
<path d="M443.05 185.645H436.99" stroke="#263238" stroke-miterlimit="10"/>
<path d="M439.011 189.974H426.308" stroke="#263238" stroke-miterlimit="10"/>
<path d="M472.786 153.601H464.124" stroke="#263238" stroke-miterlimit="10"/>
<path d="M434.1 174.384H430.927" stroke="#263238" stroke-miterlimit="10"/>
<circle cx="315.38" cy="76.38" r="76.38" fill="#FFFADD"/>
<path d="M268.596 132.282H272.881V73.2941H268.596V132.282Z" fill="#FFE000"/>
<path d="M268.976 131.164H272.504L274.911 132.951C275 133.016 275.067 133.108 275.101 133.214C275.136 133.32 275.135 133.433 275.101 133.539C275.066 133.644 274.999 133.736 274.908 133.801C274.818 133.865 274.71 133.9 274.599 133.899H266.885C266.775 133.898 266.668 133.863 266.579 133.798C266.49 133.733 266.423 133.642 266.388 133.538C266.354 133.433 266.352 133.321 266.385 133.216C266.417 133.11 266.482 133.018 266.569 132.951L268.976 131.164Z" fill="#FFE000"/>
<path opacity="0.2" d="M271.796 133.895H272.179V73.2939H271.796V133.895Z" fill="white"/>
<path opacity="0.2" d="M269.037 133.895H270.329V73.2939H269.037V133.895Z" fill="white"/>
<path d="M281.771 73.2982H261.622C261.423 73.2982 261.24 73.1153 261.124 72.8161L258.48 65.8338C258.193 65.0815 258.48 64.0425 258.979 64.0425H261.057C266.078 64.0749 271.026 65.2458 275.529 67.4671L280.844 70.0356C281.489 70.4215 281.968 71.0333 282.187 71.7521C282.444 72.4005 282.195 73.2982 281.771 73.2982Z" fill="#FFE000"/>
<path opacity="0.2" d="M268.596 74.6196H272.881V73.294H268.596V74.6196Z" fill="black"/>
<path d="M264.656 30.59C262.337 31.0514 260.916 38.6239 263.364 40.8848C265.974 41.8573 274.436 42.3644 277.76 39.5465C276.759 37.9298 277.706 35.673 276.551 31.4545C275.396 27.236 266.26 24.9086 264.656 30.59Z" fill="#263238"/>
<path d="M280.254 47.2354C280.354 47.5762 280.503 47.9876 280.636 48.37C280.769 48.7523 280.927 49.143 281.085 49.5212C281.405 50.2818 281.746 51.0341 282.124 51.7572C282.845 53.1775 283.772 54.4829 284.876 55.6308C285.397 56.1555 285.986 56.6096 286.625 56.9815C287.269 57.33 287.961 57.5794 288.678 57.7213C290.301 58.0409 291.954 58.1872 293.608 58.1577L293.853 59.6955C293.383 59.8285 292.951 59.9157 292.494 60.003C292.041 60.0886 291.585 60.151 291.126 60.19C290.189 60.2956 289.244 60.3095 288.304 60.2316C287.281 60.1582 286.279 59.9079 285.341 59.4918C284.433 59.0429 283.594 58.4678 282.847 57.7836C281.449 56.4687 280.276 54.9326 279.377 53.2368C278.927 52.4292 278.523 51.5966 278.168 50.7431C277.993 50.3275 277.823 49.8828 277.669 49.4464C277.515 49.01 277.374 48.5861 277.232 48.0832L280.254 47.2354Z" fill="#FF8B7B"/>
<path d="M277.852 44.0475C279.099 44.3966 281.867 49.4837 281.867 49.4837L278.222 52.3057C278.222 52.3057 274.17 47.9418 274.706 46.3292C275.267 44.6501 276.015 43.5362 277.852 44.0475Z" fill="#263238"/>
<path opacity="0.2" d="M277.386 47.9291C277.145 47.6632 275.849 48.112 275.67 49.0678C276.356 50.0877 277.112 51.0596 277.931 51.9767C278.01 52.0471 278.083 52.1235 278.151 52.2053C278.375 50.4225 277.847 48.432 277.386 47.9291Z" fill="black"/>
<path d="M292.923 58.2403L295.25 57.4092L295.346 59.7779C295.004 59.947 294.626 60.03 294.245 60.0199C293.864 60.0097 293.492 59.9067 293.16 59.7197L292.923 58.2403Z" fill="#FF8B7B"/>
<path d="M277.906 44.0604C277.906 44.0604 279.349 44.634 275.724 62.5345L263.256 62.0524C263.672 56.986 263.784 53.8564 261.76 43.3497C263.52 43.0577 265.3 42.8924 267.084 42.8551C268.974 42.7924 270.865 42.866 272.744 43.0754C275.167 43.3913 277.906 44.0604 277.906 44.0604Z" fill="#263238"/>
<path opacity="0.2" d="M262.066 44.9702C263.155 45.4624 264.029 46.3318 264.527 47.4179C265.112 48.8017 263.562 51.6151 263.197 52.2467C262.972 50.2853 262.615 47.9498 262.066 44.9702Z" fill="black"/>
<path d="M267.865 37.1855C268.152 39.0226 268.406 41.6908 267.084 42.8545C267.084 42.8545 267.308 43.8977 271.805 47.7879C274.756 44.3507 272.745 43.0748 272.745 43.0748C270.733 42.5096 270.816 41.6908 271.224 40.286L267.865 37.1855Z" fill="#FF8B7B"/>
<path opacity="0.2" d="M269.232 38.4531L271.223 40.2858C271.121 40.6108 271.05 40.9447 271.011 41.2831C270.238 41.1418 269.041 40.4312 268.908 39.5835C268.923 39.186 269.034 38.798 269.232 38.4531Z" fill="black"/>
<path d="M265.466 33.8816C266.044 36.8741 266.227 38.1542 267.96 39.5049C270.553 41.5373 274.107 40.1699 274.435 37.0653C274.73 34.2682 273.733 29.8419 270.624 29.0273C269.938 28.8413 269.217 28.8342 268.527 29.0065C267.838 29.1789 267.205 29.5251 266.688 30.012C266.17 30.4988 265.786 31.1102 265.573 31.7876C265.359 32.4651 265.322 33.186 265.466 33.8816Z" fill="#FF8B7B"/>
<path d="M266.26 36.2466C267.312 36.0429 270.661 32.1117 265.708 30.8442C264.012 32.7018 263.904 34.8835 266.26 36.2466Z" fill="#263238"/>
<path d="M265.903 31.6657C268.999 32.0065 274.63 31.5577 272.137 29.3427C269.643 27.1278 264.607 28.4867 265.903 31.6657Z" fill="#263238"/>
<path d="M270.388 34.0516C270.421 34.2968 270.575 34.4672 270.737 34.4672C270.899 34.4672 271.003 34.2262 270.97 33.981C270.937 33.7358 270.783 33.5654 270.621 33.5654C270.459 33.5654 270.355 33.8065 270.388 34.0516Z" fill="#263238"/>
<path d="M273.164 33.6942C273.197 33.9394 273.355 34.1098 273.513 34.1098C273.671 34.1098 273.779 33.8688 273.746 33.6236C273.713 33.3784 273.559 33.208 273.397 33.208C273.235 33.208 273.135 33.4449 273.164 33.6942Z" fill="#263238"/>
<path d="M273.331 33.2205L273.896 32.9712C273.896 32.9712 273.655 33.4865 273.331 33.2205Z" fill="#263238"/>
<path d="M272.367 34.2471C272.66 34.7783 273.024 35.2675 273.448 35.7015C273.337 35.8046 273.206 35.8827 273.062 35.9307C272.919 35.9787 272.767 35.9955 272.617 35.98L272.367 34.2471Z" fill="#FF5652"/>
<path d="M271.377 37.1157C271.498 37.1258 271.621 37.1258 271.742 37.1157C271.752 37.1147 271.761 37.1117 271.77 37.1069C271.778 37.1021 271.786 37.0956 271.792 37.0878C271.798 37.08 271.802 37.0711 271.804 37.0615C271.806 37.052 271.806 37.0422 271.805 37.0326C271.804 37.023 271.802 37.0137 271.797 37.0052C271.793 36.9967 271.787 36.9893 271.779 36.9834C271.772 36.9774 271.763 36.9732 271.754 36.971C271.745 36.9687 271.735 36.9685 271.726 36.9703C271.421 37.0168 271.109 36.9906 270.815 36.8938C270.522 36.797 270.256 36.6324 270.039 36.4134C270.032 36.4062 270.024 36.4005 270.015 36.3966C270.006 36.3926 269.996 36.3906 269.987 36.3906C269.977 36.3906 269.967 36.3926 269.958 36.3966C269.949 36.4005 269.941 36.4062 269.935 36.4134C269.921 36.4266 269.914 36.4446 269.914 36.4633C269.914 36.482 269.921 36.4999 269.935 36.5131C270.124 36.7036 270.348 36.8549 270.596 36.9583C270.843 37.0617 271.108 37.1152 271.377 37.1157Z" fill="#263238"/>
<path d="M265.18 36.4669C265.32 36.7225 265.51 36.9478 265.739 37.1297C265.967 37.3116 266.229 37.4465 266.509 37.5266C267.262 37.7385 267.64 37.0653 267.428 36.3547C267.241 35.7147 266.622 34.8337 265.865 34.9376C265.701 34.9638 265.546 35.0304 265.414 35.1316C265.282 35.2327 265.177 35.3651 265.109 35.5169C265.041 35.6686 265.012 35.835 265.024 36.0008C265.037 36.1667 265.09 36.3268 265.18 36.4669Z" fill="#FF8B7B"/>
<path d="M269.623 33.2212C269.654 33.2191 269.683 33.207 269.707 33.1867C269.73 33.1665 269.746 33.1391 269.752 33.1089C269.834 32.8858 269.961 32.682 270.126 32.5104C270.29 32.3388 270.489 32.203 270.708 32.1116C270.728 32.106 270.746 32.0962 270.762 32.083C270.778 32.0697 270.791 32.0532 270.8 32.0346C270.808 32.0161 270.813 31.9958 270.814 31.9752C270.814 31.9546 270.811 31.9341 270.802 31.9151C270.794 31.8961 270.783 31.879 270.767 31.865C270.752 31.851 270.734 31.8403 270.715 31.8337C270.695 31.8272 270.675 31.8248 270.654 31.8269C270.634 31.8289 270.614 31.8353 270.596 31.8456C270.333 31.9527 270.096 32.1155 269.901 32.3228C269.707 32.5301 269.56 32.777 269.47 33.0466C269.461 33.0841 269.467 33.1235 269.488 33.1562C269.508 33.1889 269.54 33.2123 269.578 33.2212C269.593 33.2254 269.608 33.2254 269.623 33.2212Z" fill="#263238"/>
<path d="M274.141 32.1731C274.166 32.1753 274.191 32.1703 274.213 32.1584C274.235 32.1466 274.253 32.1286 274.265 32.1066C274.277 32.0908 274.284 32.0729 274.288 32.0539C274.292 32.035 274.291 32.0154 274.287 31.9966C274.283 31.9778 274.275 31.9601 274.263 31.9446C274.251 31.9292 274.237 31.9164 274.22 31.9071C274.028 31.7793 273.808 31.6998 273.578 31.6752C273.349 31.6506 273.117 31.6817 272.902 31.7658C272.867 31.7813 272.839 31.8101 272.825 31.846C272.811 31.8818 272.812 31.9217 272.828 31.957C272.836 31.9746 272.847 31.9904 272.861 32.0035C272.875 32.0166 272.892 32.0267 272.91 32.0333C272.929 32.0399 272.948 32.0428 272.967 32.0418C272.986 32.0408 273.005 32.036 273.023 32.0276C273.194 31.9648 273.378 31.9434 273.559 31.965C273.741 31.9867 273.914 32.0509 274.066 32.1523C274.089 32.1649 274.114 32.172 274.141 32.1731Z" fill="#263238"/>
<path d="M277.578 109.19L280.62 109.618L282.594 102.711L279.548 102.283L277.578 109.19Z" fill="#FF8B7B"/>
<path d="M280.944 109.402L277.865 107.844C277.812 107.816 277.751 107.808 277.693 107.822C277.634 107.835 277.583 107.87 277.549 107.919L275.966 110.175C275.927 110.233 275.901 110.299 275.89 110.367C275.879 110.436 275.883 110.506 275.901 110.574C275.919 110.641 275.951 110.704 275.995 110.757C276.039 110.811 276.094 110.855 276.157 110.886C277.241 111.414 277.79 111.613 279.145 112.299C279.976 112.714 281.517 113.849 282.664 114.431C283.811 115.012 284.456 113.907 284.027 113.562C282.774 112.61 281.83 111.309 281.314 109.822C281.245 109.642 281.114 109.493 280.944 109.402Z" fill="#263238"/>
<g opacity="0.2">
<path d="M279.548 102.288L282.594 102.716L281.493 106.564L278.476 106.04L279.548 102.288Z" fill="black"/>
</g>
<path d="M275.441 62.4053C275.441 62.4053 289.572 71.7109 290.665 79.8195C291.962 89.4493 282.398 105.675 282.398 105.675L278.242 105.093C278.242 105.093 283.608 90.4052 283.126 81.8186C279.826 74.7532 263.895 68.8057 267.465 62.0562L275.441 62.4053Z" fill="#FFE000"/>
<path opacity="0.3" d="M275.441 62.4053C275.441 62.4053 289.572 71.7109 290.665 79.8195C291.962 89.4493 282.398 105.675 282.398 105.675L278.242 105.093C278.242 105.093 283.608 90.4052 283.126 81.8186C279.826 74.7532 263.895 68.8057 267.465 62.0562L275.441 62.4053Z" fill="black"/>
<path d="M277.753 105.242L282.897 105.965L283.675 104.424L277.657 103.297L277.753 105.242Z" fill="#FFE000"/>
<path d="M282.195 110.487H282.232C282.3 110.467 282.362 110.43 282.412 110.379C282.461 110.328 282.497 110.265 282.515 110.196C282.532 110.156 282.537 110.112 282.53 110.069C282.524 110.025 282.506 109.985 282.478 109.951C282.232 109.644 281.127 109.76 281.002 109.773C280.988 109.774 280.974 109.781 280.963 109.79C280.952 109.8 280.944 109.812 280.94 109.827C280.936 109.84 280.937 109.854 280.941 109.868C280.946 109.881 280.954 109.893 280.965 109.901C281.26 110.147 281.821 110.558 282.195 110.487ZM281.194 109.893C281.638 109.86 282.237 109.872 282.365 110.034C282.376 110.05 282.381 110.069 282.381 110.088C282.381 110.108 282.376 110.126 282.365 110.142C282.355 110.188 282.332 110.23 282.3 110.264C282.268 110.299 282.227 110.324 282.183 110.338C281.991 110.4 281.622 110.23 281.194 109.893Z" fill="#FFE000"/>
<path d="M281.127 109.897C281.501 109.827 282.158 109.523 282.245 109.216C282.26 109.16 282.255 109.1 282.232 109.048C282.208 108.995 282.167 108.951 282.116 108.925C282.07 108.893 282.017 108.871 281.962 108.862C281.907 108.852 281.85 108.855 281.796 108.871C281.38 108.983 280.965 109.773 280.965 109.806C280.96 109.817 280.957 109.829 280.957 109.841C280.957 109.853 280.96 109.865 280.965 109.876C280.973 109.887 280.983 109.895 280.994 109.901C281.006 109.906 281.019 109.909 281.031 109.91L281.127 109.897ZM281.858 109.008C281.889 109.002 281.921 109.002 281.952 109.008C281.982 109.015 282.011 109.027 282.037 109.045C282.112 109.095 282.112 109.141 282.104 109.178C282.045 109.382 281.509 109.669 281.144 109.748C281.293 109.49 281.559 109.079 281.833 109.012L281.858 109.008Z" fill="#FFE000"/>
<path opacity="0.2" d="M273.929 66.7939L277.328 75.4595C279.407 77.1594 281.331 78.8925 282.511 80.6962C282.658 80.1066 282.722 79.4997 282.702 78.8925C282.611 75.659 277.993 68.872 273.929 66.7939Z" fill="black"/>
<path d="M273.609 113.047L276.68 113.027L277.62 105.904L274.549 105.925L273.609 113.047Z" fill="#FF8B7B"/>
<path d="M276.967 112.765L273.692 111.672C273.636 111.651 273.574 111.652 273.519 111.675C273.464 111.697 273.419 111.739 273.392 111.792L272.146 114.257C272.117 114.32 272.102 114.389 272.102 114.458C272.101 114.527 272.115 114.596 272.143 114.659C272.171 114.723 272.212 114.78 272.263 114.826C272.314 114.873 272.375 114.908 272.441 114.93C273.588 115.296 274.161 115.412 275.599 115.89C276.489 116.19 278.176 117.079 279.398 117.486C280.62 117.894 281.09 116.709 280.62 116.431C279.235 115.669 278.11 114.511 277.386 113.106C277.29 112.947 277.142 112.827 276.967 112.765Z" fill="#263238"/>
<g opacity="0.2">
<path d="M274.548 105.928L277.619 105.908L277.096 109.872L274.037 109.797L274.548 105.928Z" fill="black"/>
</g>
<path d="M272.429 62.405C272.429 62.405 281.988 74.3955 282.092 82.5748C282.2 92.2877 277.874 108.862 277.874 108.862L273.684 108.891C273.684 108.891 273.805 92.217 274.378 83.6346C271.968 76.2242 259.686 68.8013 263.256 62.0518L272.429 62.405Z" fill="#FFE000"/>
<path opacity="0.3" d="M272.429 62.405C272.429 62.405 281.988 74.3955 282.092 82.5748C282.2 92.2877 277.874 108.862 277.874 108.862L273.684 108.891C273.684 108.891 273.805 92.217 274.378 83.6346C271.968 76.2242 259.686 68.8013 263.256 62.0518L272.429 62.405Z" fill="black"/>
<path d="M273.202 109.112L278.401 109.078L278.941 107.441L272.828 107.204L273.202 109.112Z" fill="#FFE000"/>
<path d="M278.35 113.655H278.383C278.448 113.625 278.503 113.579 278.544 113.521C278.586 113.464 278.612 113.397 278.62 113.326C278.63 113.283 278.629 113.238 278.616 113.196C278.602 113.153 278.578 113.115 278.545 113.085C278.259 112.82 277.182 113.085 277.062 113.127C277.048 113.13 277.035 113.137 277.026 113.148C277.016 113.158 277.01 113.171 277.008 113.185C277.005 113.2 277.007 113.214 277.013 113.228C277.019 113.241 277.029 113.252 277.041 113.26C277.394 113.455 278.005 113.779 278.35 113.655ZM277.27 113.214C277.706 113.115 278.296 113.04 278.45 113.181C278.463 113.195 278.473 113.211 278.478 113.229C278.483 113.247 278.483 113.267 278.479 113.285C278.474 113.332 278.458 113.378 278.431 113.417C278.404 113.456 278.368 113.488 278.325 113.509C278.146 113.597 277.76 113.484 277.286 113.214H277.27Z" fill="#FFE000"/>
<path d="M277.221 113.226C277.583 113.102 278.189 112.703 278.227 112.395C278.234 112.338 278.221 112.28 278.191 112.231C278.161 112.182 278.115 112.144 278.061 112.125C278.01 112.102 277.954 112.089 277.899 112.089C277.843 112.089 277.787 112.102 277.736 112.125C277.321 112.3 277.042 113.139 277.03 113.172C277.024 113.183 277.021 113.195 277.021 113.208C277.021 113.22 277.024 113.232 277.03 113.243C277.039 113.253 277.05 113.26 277.062 113.264C277.074 113.269 277.088 113.27 277.101 113.268L277.221 113.226ZM277.815 112.237C277.844 112.225 277.875 112.218 277.907 112.218C277.938 112.218 277.969 112.225 277.998 112.237C278.081 112.279 278.086 112.324 278.081 112.358C278.056 112.57 277.566 112.931 277.217 113.06C277.325 112.786 277.549 112.337 277.795 112.229L277.815 112.237Z" fill="#FFE000"/>
<path d="M270.55 33.5945L271.119 33.3452C271.119 33.3452 270.87 33.848 270.55 33.5945Z" fill="#263238"/>
<path d="M263.094 61.3124L262.733 62.4179C262.687 62.501 262.787 62.5966 262.932 62.6008L275.762 63.0954C275.875 63.0954 275.97 63.0496 275.983 62.979L276.136 61.8651C276.136 61.7903 276.053 61.7197 275.929 61.7155L263.302 61.2292C263.263 61.2245 263.224 61.2297 263.188 61.2442C263.151 61.2587 263.119 61.2822 263.094 61.3124Z" fill="white"/>
<path d="M264.776 62.7914H264.44C264.373 62.7914 264.323 62.754 264.327 62.7125L264.543 61.2663C264.543 61.2248 264.61 61.1915 264.676 61.1957H265.013C265.084 61.1957 265.134 61.2331 265.125 61.2788L264.913 62.7208C264.905 62.7623 264.847 62.7956 264.776 62.7914Z" fill="#FFE000"/>
<path opacity="0.3" d="M264.776 62.7914H264.44C264.373 62.7914 264.323 62.754 264.327 62.7125L264.543 61.2663C264.543 61.2248 264.61 61.1915 264.676 61.1957H265.013C265.084 61.1957 265.134 61.2331 265.125 61.2788L264.913 62.7208C264.905 62.7623 264.847 62.7956 264.776 62.7914Z" fill="black"/>
<path d="M274.811 63.1781H274.47C274.403 63.1781 274.354 63.1407 274.358 63.0992L274.574 61.653C274.574 61.6115 274.64 61.5782 274.707 61.5824H275.048C275.114 61.5824 275.164 61.6198 275.156 61.6655L274.944 63.1075C274.935 63.1449 274.877 63.1823 274.811 63.1781Z" fill="#FFE000"/>
<path opacity="0.3" d="M274.811 63.1781H274.47C274.403 63.1781 274.354 63.1407 274.358 63.0992L274.574 61.653C274.574 61.6115 274.64 61.5782 274.707 61.5824H275.048C275.114 61.5824 275.164 61.6198 275.156 61.6655L274.944 63.1075C274.935 63.1449 274.877 63.1823 274.811 63.1781Z" fill="black"/>
<path d="M269.814 62.9866H269.477C269.407 62.9866 269.357 62.9451 269.365 62.9035L269.577 61.4615C269.577 61.42 269.648 61.3867 269.714 61.3867H270.051C270.117 61.3867 270.167 61.4241 270.163 61.4657L269.947 62.9118C269.943 62.9576 269.88 62.9908 269.814 62.9866Z" fill="#FFE000"/>
<path opacity="0.3" d="M269.814 62.9866H269.477C269.407 62.9866 269.357 62.9451 269.365 62.9035L269.577 61.4615C269.577 61.42 269.648 61.3867 269.714 61.3867H270.051C270.117 61.3867 270.167 61.4241 270.163 61.4657L269.947 62.9118C269.943 62.9576 269.88 62.9908 269.814 62.9866Z" fill="black"/>
<path d="M296.488 57.6299L297.245 59.687L295.346 59.7618L295.25 57.3931L296.488 57.6299Z" fill="#FF8B7B"/>
<path d="M274.894 57.4675L275.799 54.9741L277.366 57.6753C277.366 57.6753 276.439 58.922 275.176 58.7225L274.894 57.4675Z" fill="#FF8B7B"/>
<path d="M263.289 47.1772C263.347 48.0999 263.43 49.1099 263.551 50.0865C263.671 51.0632 263.792 52.0358 263.966 52.9958C264.141 53.9559 264.32 54.9243 264.561 55.8636C264.673 56.3374 264.802 56.8029 264.939 57.2642L265.155 57.9541L265.18 58.0414C265.178 58.0495 265.178 58.0582 265.18 58.0663C265.187 58.0851 265.195 58.1032 265.205 58.1204C265.373 58.2802 265.584 58.3872 265.812 58.4279C266.206 58.5235 266.611 58.5724 267.017 58.5734C267.958 58.5749 268.898 58.4985 269.827 58.3448C270.791 58.1993 271.763 57.9998 272.736 57.7671C273.708 57.5343 274.681 57.2808 275.645 57.0148L276.215 58.4653C274.32 59.3727 272.346 60.1045 270.317 60.6515C269.259 60.937 268.176 61.1194 267.084 61.1959C266.472 61.2352 265.858 61.2017 265.255 61.0962C264.471 60.9753 263.744 60.612 263.177 60.0571C263.017 59.8856 262.877 59.6959 262.761 59.4919C262.701 59.3915 262.646 59.2874 262.599 59.1802L262.533 59.0264L262.499 58.9308L262.217 58.1785C262.038 57.6757 261.868 57.1686 261.714 56.6574C261.402 55.6464 261.142 54.6198 260.937 53.5819C260.723 52.5511 260.55 51.5135 260.417 50.4689C260.292 49.4174 260.189 48.3908 260.155 47.2936L263.289 47.1772Z" fill="#FF8B7B"/>
<path d="M261.374 43.424C258.98 44.2551 259.99 50.4886 259.99 50.4886L265.467 49.2502C265.467 49.2502 265.326 46.6322 264.44 45.1818C263.555 43.7315 262.695 42.9669 261.374 43.424Z" fill="#263238"/>
<path d="M279.9 57.2383C279.849 57.2384 279.799 57.2208 279.759 57.1885L274.93 53.0328C274.892 52.9944 274.87 52.9431 274.868 52.8892C274.866 52.8353 274.885 52.7825 274.919 52.7414C274.954 52.7002 275.003 52.6736 275.057 52.6668C275.111 52.66 275.165 52.6734 275.209 52.7045L280.042 56.8602C280.064 56.8782 280.082 56.9004 280.095 56.9256C280.108 56.9507 280.116 56.9783 280.118 57.0066C280.121 57.0349 280.117 57.0633 280.109 57.0903C280.1 57.1173 280.085 57.1422 280.067 57.1635C280.046 57.1871 280.02 57.206 279.992 57.2189C279.963 57.2318 279.932 57.2384 279.9 57.2383Z" fill="#FFE000"/>
<path d="M277.981 53.5776L279.173 55.909L277.366 57.6543L275.799 54.9573L277.981 53.5776Z" fill="#FF8B7B"/>
<path d="M278.468 56.7197C278.468 58.2076 281.227 59.4171 284.631 59.4171C288.035 59.4171 290.795 58.2076 290.795 56.7197H278.468Z" fill="#FFE000"/>
<path opacity="0.7" d="M278.468 56.7197C278.468 58.2076 281.227 59.4171 284.631 59.4171C288.035 59.4171 290.795 58.2076 290.795 56.7197H278.468Z" fill="white"/>
<path d="M361.036 59.4175H263.729V61.7283H361.036V59.4175Z" fill="#FFE000"/>
<path d="M318.307 64.0425H306.458V132.303H318.307V64.0425Z" fill="#FFE000"/>
<path d="M355.595 64.043H269.168L266.093 61.728H358.667L355.595 64.043Z" fill="#FFE000"/>
<path opacity="0.7" d="M355.595 64.043H269.168L266.093 61.728H358.667L355.595 64.043Z" fill="white"/>
<path d="M316.798 127.05H307.967L301.944 131.526C301.723 131.691 301.559 131.922 301.476 132.186C301.393 132.45 301.395 132.733 301.482 132.996C301.569 133.258 301.736 133.487 301.96 133.649C302.184 133.811 302.453 133.899 302.73 133.899H322.035C322.312 133.899 322.581 133.811 322.805 133.649C323.029 133.487 323.196 133.258 323.283 132.996C323.37 132.733 323.372 132.45 323.289 132.186C323.206 131.922 323.042 131.691 322.821 131.526L316.798 127.05Z" fill="#FFE000"/>
<path opacity="0.2" d="M309.466 64.0425H308.406V133.899H309.466V64.0425Z" fill="white"/>
<path opacity="0.2" d="M317.09 64.0425H313.512V133.899H317.09V64.0425Z" fill="white"/>
<path opacity="0.2" d="M318.307 64.0425H306.458V65.813H318.307V64.0425Z" fill="black"/>
<path d="M324.703 41.2837H308.474V59.4169H324.703V41.2837Z" fill="#FFE000"/>
<path d="M310.974 39.3511H307.126L308.472 41.2834H312.321L310.974 39.3511Z" fill="#FFE000"/>
<path d="M322.198 39.3511H326.046L324.704 41.2834H320.855L322.198 39.3511Z" fill="#FFE000"/>
<path opacity="0.2" d="M322.198 39.3511H326.046L324.704 41.2834H320.855L322.198 39.3511Z" fill="black"/>
<path opacity="0.3" d="M324.703 43.4609H315.227V51.8896H324.703V43.4609Z" fill="white"/>
<path opacity="0.3" d="M324.703 53.0454H315.227V55.165H324.703V53.0454Z" fill="white"/>
<path opacity="0.2" d="M312.322 41.2837H308.474V59.4169H312.322V41.2837Z" fill="black"/>
<path d="M309.387 47.04H299.517V59.417H309.387V47.04Z" fill="#FFE000"/>
<path d="M306.719 44.7954H302.85L299.517 47.0397H309.387L306.719 44.7954Z" fill="#FFE000"/>
<path d="M306.719 44.1973H302.851V44.7957H306.719V44.1973Z" fill="#FFE000"/>
<path opacity="0.2" d="M306.718 44.7954H302.849L299.517 47.0395H303.365L306.718 44.7954Z" fill="black"/>
<path opacity="0.3" d="M309.387 50.3481H304.047V55.231H309.387V50.3481Z" fill="white"/>
<path opacity="0.2" d="M303.365 47.04H299.517V59.417H303.365V47.04Z" fill="black"/>
<path d="M332.01 53.2534C332.01 54.8881 332.659 56.4558 333.815 57.6117C334.971 58.7676 336.539 59.417 338.173 59.417C339.808 59.417 341.376 58.7676 342.532 57.6117C343.688 56.4558 344.337 54.8881 344.337 53.2534H332.01Z" fill="#FFE000"/>
<path opacity="0.7" d="M332.01 53.2534C332.01 54.8881 332.659 56.4558 333.815 57.6117C334.971 58.7676 336.539 59.417 338.173 59.417C339.808 59.417 341.376 58.7676 342.532 57.6117C343.688 56.4558 344.337 54.8881 344.337 53.2534H332.01Z" fill="white"/>
<path d="M343.763 35.7146L342.99 33.8154L339.86 36.3047C340.62 36.7608 341.434 37.1196 342.283 37.3727C342.535 37.4445 342.805 37.4135 343.034 37.2866C343.263 37.1596 343.432 36.9469 343.505 36.6953L343.763 35.7146Z" fill="#FF8B7B"/>
<path d="M340.085 32.5513L337.583 34.7164L339.844 36.3038L342.99 33.8312L340.085 32.5513Z" fill="#FF8B7B"/>
<path d="M336.835 33.773C336.835 34.1886 336.004 34.7413 334.969 34.7787C333.934 34.8161 333.049 34.305 333.032 33.906C333.016 33.5071 333.864 33.2993 334.915 33.2619C335.966 33.2245 336.822 33.3741 336.835 33.773Z" fill="#263238"/>
<path d="M336.12 34.0518C336.073 34.0424 336.031 34.0181 336 33.9826C335.969 33.947 335.95 33.9022 335.947 33.8551C335.944 33.8079 335.956 33.761 335.982 33.7214C336.008 33.6819 336.046 33.652 336.09 33.6362L342.403 32.8508C342.431 32.8467 342.46 32.8484 342.487 32.8557C342.515 32.8629 342.541 32.8757 342.563 32.8931C342.586 32.9106 342.604 32.9324 342.618 32.9572C342.632 32.9821 342.641 33.0095 342.644 33.0378C342.648 33.066 342.646 33.0947 342.639 33.1222C342.632 33.1498 342.619 33.1755 342.602 33.198C342.584 33.2205 342.562 33.2393 342.537 33.2532C342.513 33.2671 342.485 33.2758 342.457 33.2788L336.157 34.0518H336.12Z" fill="#263238"/>
<path d="M360.549 38.4367C360.391 38.7941 360.258 39.0726 360.134 39.3843C360.009 39.696 359.83 39.9786 359.677 40.2737C359.369 40.8584 359.046 41.4388 358.708 42.0152C358.029 43.1663 357.282 44.2765 356.472 45.3401C355.644 46.4451 354.723 47.4782 353.721 48.4281C353.199 48.9272 352.644 49.3897 352.058 49.8121C351.755 50.0282 351.447 50.2277 351.115 50.4313L350.87 50.5768L350.753 50.6433L350.591 50.7264C350.477 50.7839 350.359 50.8325 350.238 50.8719C349.736 51.0414 349.199 51.0772 348.679 50.9758C348.278 50.8973 347.894 50.7481 347.545 50.5352C347.294 50.3814 347.058 50.2033 346.842 50.0033C346.516 49.6949 346.221 49.3552 345.961 48.9892C345.538 48.3878 345.163 47.7541 344.839 47.094C344.258 45.895 343.753 44.661 343.326 43.3991C342.489 40.9628 341.821 38.4715 341.327 35.943L343.601 35.2988C344.561 37.5764 345.571 39.8706 346.626 42.0609C347.136 43.1332 347.702 44.1779 348.322 45.1904C348.591 45.6393 348.895 46.0659 349.232 46.4664C349.347 46.6057 349.479 46.7312 349.623 46.8404C349.71 46.9194 349.756 46.8404 349.423 46.7656C349.213 46.7257 348.996 46.7371 348.792 46.7989L348.654 46.8529L348.596 46.882H348.567L348.717 46.7739C348.92 46.6326 349.132 46.4705 349.315 46.3084C349.722 45.9603 350.109 45.5898 350.475 45.1988C351.245 44.3666 351.955 43.4804 352.599 42.5471C353.264 41.5912 353.895 40.5938 354.485 39.5672C354.785 39.056 355.076 38.5365 355.354 38.0128L355.77 37.2273C355.903 36.9738 356.044 36.687 356.148 36.475L360.549 38.4367Z" fill="#FF8B7B"/>
<path d="M364.086 36.0305C364.764 38.9938 358.8 45.3444 358.8 45.3444L352.416 41.6039C353.726 39.3985 355.211 37.3013 356.855 35.3323C359.498 32.2443 363.392 33.0048 364.086 36.0305Z" fill="#FFE000"/>
<path d="M350.009 40.7025C349.399 41.6335 348.763 42.6185 348.148 43.591C347.532 44.5636 346.934 45.5527 346.34 46.5377C345.163 48.5161 344.029 50.511 343.015 52.5309C342.753 53.0338 342.533 53.545 342.287 54.052C342.042 54.5591 341.834 55.062 341.631 55.569L341.34 56.3296L341.269 56.5166L341.232 56.6122C341.232 56.6122 341.232 56.5291 341.232 56.4086C341.216 56.2696 341.172 56.1354 341.103 56.0137C341.052 55.9181 340.979 55.8356 340.891 55.7727C340.779 55.7062 340.82 55.7727 340.932 55.8433C341.307 56.0227 341.704 56.1513 342.113 56.2257C342.631 56.3324 343.154 56.4129 343.68 56.4668C344.764 56.5873 345.932 56.6579 347.046 56.712L347.391 59.0768C346.19 59.4409 344.959 59.6996 343.713 59.8499C343.061 59.9288 342.404 59.9649 341.747 59.9579C340.98 59.9579 340.216 59.8445 339.482 59.6213C338.939 59.4492 338.438 59.1661 338.011 58.79C337.696 58.5124 337.439 58.1752 337.255 57.7978C337.071 57.4205 336.963 57.0105 336.938 56.5914C336.917 56.2301 336.947 55.8675 337.03 55.515L337.088 55.2947L337.121 55.1825L337.196 54.9539L337.483 54.0437C337.687 53.4452 337.898 52.8634 338.131 52.2774C338.364 51.6914 338.597 51.1303 338.854 50.5733C339.852 48.3584 340.961 46.1958 342.179 44.0939C342.778 43.0466 343.397 42.0159 344.045 41.0018C344.694 39.9877 345.326 38.986 346.045 37.9678L350.009 40.7025Z" fill="#FF8B7B"/>
<path d="M348.738 56.5161L348.929 59.957L352.586 59.716L351.124 57.3763L348.738 56.5161Z" fill="#FF8B7B"/>
<path d="M346.634 56.7197L348.737 56.5161L349.863 58.3737C349.941 58.5377 349.977 58.7182 349.969 58.8995C349.961 59.0809 349.908 59.2574 349.816 59.4137C349.724 59.57 349.595 59.7012 349.44 59.7959C349.285 59.8907 349.109 59.946 348.928 59.957C347.86 59.9382 346.82 59.6168 345.928 59.0303L346.634 56.7197Z" fill="#FF8B7B"/>
<path d="M348.213 26.0265C348.313 26.2634 348.267 26.5127 348.113 26.5834C347.96 26.654 347.76 26.5211 347.661 26.2842C347.561 26.0473 347.607 25.7938 347.756 25.7232C347.906 25.6525 348.113 25.7897 348.213 26.0265Z" fill="#263238"/>
<path d="M348.289 26.5049C348.313 27.3609 348.222 28.2163 348.019 29.0481C348.228 29.0902 348.445 29.0852 348.653 29.0335C348.86 28.9818 349.054 28.8846 349.22 28.7489L348.289 26.5049Z" fill="#FF5652"/>
<path d="M347.279 24.6508C347.309 24.6439 347.337 24.628 347.358 24.6051C347.498 24.4803 347.667 24.391 347.849 24.3448C348.031 24.2985 348.222 24.2966 348.405 24.3392C348.444 24.3466 348.484 24.3387 348.518 24.317C348.551 24.2953 348.575 24.2615 348.584 24.2228C348.591 24.1837 348.583 24.1433 348.561 24.11C348.54 24.0767 348.506 24.0531 348.467 24.0441C348.234 23.9901 347.991 23.9941 347.76 24.0557C347.529 24.1172 347.317 24.2346 347.142 24.3973C347.127 24.4109 347.116 24.4273 347.108 24.4456C347.1 24.4638 347.096 24.4834 347.096 24.5033C347.096 24.5232 347.1 24.5428 347.108 24.561C347.116 24.5792 347.127 24.5957 347.142 24.6093C347.159 24.6265 347.181 24.6393 347.205 24.6465C347.229 24.6537 347.254 24.6552 347.279 24.6508Z" fill="#263238"/>
<path d="M357.05 26.1558C357.466 28.7492 357.075 32.0409 358.904 33.2794C358.904 33.2794 358.621 35.7398 354.365 36.5336C349.69 37.4106 351.784 34.6135 351.784 34.6135C354.249 33.5204 353.9 31.6252 353.193 29.9171L357.05 26.1558Z" fill="#FF8B7B"/>
<path d="M340.213 125.761C340.139 125.764 340.066 125.747 340.001 125.711C339.952 125.678 339.914 125.63 339.893 125.574C339.872 125.518 339.869 125.457 339.885 125.4C339.972 124.752 341.589 124.922 341.776 124.943C341.791 124.945 341.805 124.952 341.816 124.962C341.827 124.972 341.835 124.986 341.838 125.001C341.842 125.015 341.841 125.031 341.836 125.045C341.83 125.059 341.821 125.071 341.809 125.08C341.334 125.423 340.789 125.656 340.213 125.761ZM341.161 125.059C340.658 125.059 340.072 125.13 340.034 125.421C340.034 125.541 340.063 125.57 340.08 125.583C340.288 125.707 341.028 125.391 341.543 125.072C341.431 125.072 341.298 125.072 341.161 125.072V125.059Z" fill="#FFE000"/>
<path d="M341.767 125.092C341.352 125.092 340.417 124.764 340.321 124.402C340.3 124.315 340.321 124.191 340.5 124.087C340.563 124.052 340.632 124.03 340.703 124.022C340.774 124.014 340.846 124.021 340.915 124.041C341.41 124.186 341.805 124.951 341.821 124.984C341.827 124.996 341.831 125.009 341.831 125.022C341.831 125.035 341.827 125.048 341.821 125.059C341.815 125.068 341.807 125.076 341.798 125.082C341.789 125.087 341.778 125.091 341.767 125.092ZM340.762 124.166C340.694 124.165 340.628 124.184 340.57 124.22C340.446 124.29 340.462 124.344 340.466 124.365C340.52 124.581 341.185 124.872 341.63 124.93C341.501 124.718 341.214 124.282 340.886 124.182C340.846 124.17 340.804 124.165 340.762 124.166Z" fill="#FFE000"/>
<path d="M344.972 123.604L342.055 124.888L339.055 118.152L341.968 116.868L344.972 123.604Z" fill="#FF8B7B"/>
<path d="M341.938 124.539L345.121 123.134C345.179 123.109 345.243 123.105 345.303 123.122C345.363 123.14 345.415 123.178 345.45 123.23L347.066 125.607C347.106 125.666 347.132 125.733 347.143 125.803C347.153 125.873 347.149 125.945 347.129 126.013C347.109 126.081 347.075 126.144 347.028 126.198C346.981 126.251 346.923 126.293 346.859 126.322C345.699 126.808 344.016 127.469 342.569 128.105C340.882 128.849 341.032 128.936 339.053 129.797C337.856 130.325 337.038 129.24 337.495 128.907C339.573 127.394 339.847 127.182 341.327 125.079C341.478 124.847 341.689 124.66 341.938 124.539Z" fill="#263238"/>
<path d="M348.06 49.3758C348.521 52.9002 348.762 54.5959 349.307 60.082H366.347C366.468 54.2343 366.937 43.4948 365.686 37.0736C365.44 35.7841 364.747 34.623 363.728 33.7955C362.708 32.9681 361.43 32.5275 360.117 32.5517H359.93C357.646 32.7801 355.379 33.1564 353.143 33.678C351.511 34.0494 349.911 34.5455 348.355 35.1618C348.355 35.1618 347.108 36.9074 347.574 44.3053C347.653 45.7766 347.811 47.4515 348.06 49.3758Z" fill="#FFE000"/>
<path opacity="0.2" d="M348.061 49.3749C348.855 47.3802 350.247 43.4033 349.723 41.3047L347.562 44.3134C347.654 45.7762 347.812 47.4509 348.061 49.3749Z" fill="black"/>
<path d="M352.009 37.6182C352.649 40.5856 346.718 48.6901 346.718 48.6901L340.691 44.908C340.691 44.908 342.458 40.7311 344.981 37.6057C347.798 34.1145 351.29 34.2808 352.009 37.6182Z" fill="#FFE000"/>
<path opacity="0.2" d="M339.055 118.156L340.605 121.626L343.518 120.342L341.972 116.872L339.055 118.156Z" fill="black"/>
<path d="M355.782 21.9329C356.821 24.9295 357.573 26.6252 356.75 28.7905C356.493 29.496 356.047 30.1174 355.461 30.5874C354.876 31.0574 354.172 31.358 353.428 31.4565C352.684 31.555 351.926 31.4477 351.239 31.1462C350.551 30.8448 349.959 30.3606 349.527 29.7465C347.823 27.4107 346.414 22.9054 348.737 20.4492C349.224 19.906 349.846 19.5006 350.539 19.2738C351.233 19.047 351.974 19.0067 352.688 19.1571C353.402 19.3075 354.064 19.6432 354.607 20.1304C355.15 20.6177 355.555 21.2394 355.782 21.9329Z" fill="#FF8B7B"/>
<path d="M350.251 25.0958C349.004 24.2272 348.518 22.8307 349.004 21.8914C349.49 20.9521 352.57 19.5058 354.087 19.3603C355.604 19.2149 357.508 19.1525 357.969 20.47C358.476 21.9164 358.326 26.4839 357.387 27.4066C356.585 28.2004 354.893 29.0982 353.509 28.6119C352.811 28.3667 349.981 27.9843 350.251 25.0958Z" fill="#263238"/>
<path d="M349.647 22.3651C348.292 23.1964 345.404 23.2712 346.123 20.5614C346.293 19.8181 346.708 19.1537 347.301 18.6749C347.894 18.1962 348.632 17.9311 349.394 17.9222C348.87 18.7535 349.14 19.8216 350.732 18.1924C352.324 16.5632 357.831 15.7361 356.783 20.1084C355.586 25.1082 349.647 22.3651 349.647 22.3651Z" fill="#263238"/>
<path d="M356.372 19.7005C356.718 19.3747 357.166 19.1776 357.64 19.142C358.115 19.1065 358.587 19.2347 358.978 19.5052C358.104 19.4331 357.225 19.4991 356.372 19.7005Z" fill="#263238"/>
<path d="M351.73 24.7468C351.861 25.5345 351.739 26.3436 351.38 27.0573C350.903 27.9923 350.096 27.7264 349.751 26.8495C349.444 26.06 349.336 24.6221 350.034 23.978C350.732 23.3339 351.555 23.8076 351.73 24.7468Z" fill="#FF8B7B"/>
<path d="M352.208 123.48C352.146 123.484 352.085 123.471 352.03 123.442C351.978 123.413 351.937 123.367 351.913 123.313C351.889 123.258 351.883 123.197 351.897 123.139C351.951 122.482 353.559 122.578 353.762 122.591C353.777 122.593 353.792 122.599 353.803 122.608C353.815 122.618 353.824 122.63 353.829 122.645C353.833 122.659 353.833 122.675 353.829 122.69C353.825 122.705 353.816 122.718 353.804 122.728C353.505 122.956 352.674 123.48 352.208 123.48ZM353.422 122.732C352.886 122.732 352.075 122.807 352.046 123.147C352.046 123.268 352.084 123.297 352.1 123.305C352.312 123.422 353.039 123.068 353.538 122.728L353.422 122.732Z" fill="#FFE000"/>
<path d="M353.729 122.744C353.313 122.744 352.39 122.47 352.282 122.12C352.257 122.033 352.262 121.908 352.444 121.796C352.505 121.757 352.574 121.731 352.645 121.719C352.717 121.708 352.79 121.712 352.86 121.73C353.359 121.854 353.787 122.598 353.803 122.627C353.81 122.639 353.813 122.652 353.813 122.665C353.813 122.678 353.81 122.691 353.803 122.702C353.797 122.714 353.788 122.723 353.777 122.73C353.766 122.738 353.754 122.742 353.741 122.744H353.729ZM352.731 121.863C352.657 121.864 352.585 121.885 352.523 121.925C352.403 122 352.42 122.058 352.428 122.075C352.494 122.291 353.172 122.548 353.616 122.586C353.438 122.273 353.167 122.025 352.839 121.875L352.731 121.863Z" fill="#FFE000"/>
<path d="M356.891 121.106L354.041 122.527L350.729 115.936L353.579 114.519L356.891 121.106Z" fill="#FF8B7B"/>
<path d="M353.909 122.163L357.021 120.616C357.077 120.587 357.141 120.579 357.202 120.592C357.263 120.606 357.317 120.641 357.354 120.691L359.079 122.998C359.121 123.054 359.151 123.12 359.165 123.189C359.18 123.258 359.179 123.33 359.162 123.399C359.145 123.468 359.113 123.532 359.069 123.587C359.024 123.642 358.968 123.686 358.904 123.717C357.77 124.257 356.115 124.997 354.706 125.699C353.044 126.531 353.289 126.531 351.352 127.503C350.18 128.085 349.316 127.042 349.757 126.672C351.764 125.063 351.939 124.885 353.322 122.715C353.465 122.482 353.668 122.292 353.909 122.163Z" fill="#263238"/>
<path opacity="0.2" d="M350.729 115.936L352.436 119.335L355.287 117.914L353.579 114.519L350.729 115.936Z" fill="black"/>
<path d="M355.284 60.082C355.284 60.082 340.692 77.6916 339.055 87.0679C341.311 95.883 350.883 118.779 350.883 118.779L355.347 116.286C355.347 116.286 350.667 90.7544 349.325 88.9714C356.049 81.6607 360.251 74.5288 363.817 69.7492C367.383 64.9697 366.331 60.082 366.331 60.082H355.284Z" fill="#263238"/>
<path opacity="0.2" d="M342.77 82.471C346.759 81.86 354.822 73.8138 357.453 71.1123C360.084 68.4108 352.769 65.5015 352.769 65.5015L342.77 82.471Z" fill="black"/>
<path d="M349.295 60.082C349.295 60.082 328.223 79.5702 328.186 89.2831C329.973 98.9212 339.095 121.58 339.095 121.58L343.887 119.087C343.887 119.087 338.613 91.8225 337.258 90.0561C355.824 70.6262 362.025 60.082 362.025 60.082H349.295Z" fill="#263238"/>
<path d="M337.504 119.838C337.483 119.838 338.605 121.8 338.605 121.8L344.615 119.153L344.041 117.22L337.504 119.838Z" fill="#FFE000"/>
<path d="M349.331 117.424C349.306 117.424 350.541 119.323 350.541 119.323L356.388 116.344L355.71 114.449L349.331 117.424Z" fill="#FFE000"/>
<path d="M360.109 73.2988H355.824V132.287H360.109V73.2988Z" fill="#FFE000"/>
<path d="M359.726 131.165H356.202L353.795 132.952C353.706 133.017 353.639 133.109 353.605 133.215C353.57 133.321 353.571 133.434 353.605 133.54C353.64 133.645 353.707 133.737 353.797 133.802C353.888 133.866 353.996 133.901 354.107 133.9H361.821C361.932 133.901 362.04 133.866 362.13 133.802C362.221 133.737 362.288 133.645 362.323 133.54C362.357 133.434 362.358 133.321 362.323 133.215C362.289 133.109 362.222 133.017 362.133 132.952L359.726 131.165Z" fill="#FFE000"/>
<path opacity="0.2" d="M356.909 73.2988H356.526V133.9H356.909V73.2988Z" fill="white"/>
<path opacity="0.2" d="M359.665 73.2988H358.372V133.9H359.665V73.2988Z" fill="white"/>
<path d="M346.926 73.2987H367.071C367.271 73.2987 367.458 73.1158 367.57 72.8166L370.217 65.8343C370.504 65.082 370.217 64.043 369.719 64.043H367.64C362.62 64.0762 357.672 65.2471 353.169 67.4676L347.832 70.0361C347.186 70.4215 346.706 71.0333 346.486 71.7526C346.261 72.401 346.511 73.2987 346.926 73.2987Z" fill="#FFE000"/>
<path opacity="0.2" d="M360.109 73.2988H355.824V74.6245H360.109V73.2988Z" fill="black"/>
<path d="M144.893 164.197H78.5977V251.742H144.893V164.197Z" stroke="#313131" stroke-linecap="round" stroke-linejoin="round"/>
<path d="M137.176 174.396H86.3242V241.542H137.176V174.396Z" stroke="#313131" stroke-linecap="round" stroke-linejoin="round"/>
<path d="M313.777 331.049L327.206 352.68C327.596 353.307 327.811 354.027 327.828 354.765C327.846 355.503 327.666 356.232 327.307 356.877C326.948 357.522 326.424 358.06 325.787 358.434C325.151 358.808 324.426 359.005 323.688 359.004H296.26C296.996 359.004 297.719 358.808 298.354 358.435C298.99 358.063 299.514 357.528 299.873 356.885C300.233 356.243 300.414 355.516 300.399 354.78C300.384 354.044 300.173 353.325 299.787 352.697L286.834 331.534L313.777 331.049Z" fill="white" stroke="#313131" stroke-linecap="round" stroke-linejoin="round"/>
<path d="M313.778 331.049L286.792 331.534L291.79 339.676H319.132L313.778 331.049Z" fill="#1B1B1B" stroke="#313131" stroke-linecap="round" stroke-linejoin="round"/>
<path d="M242.034 335.869H351.796C353.162 335.869 354.27 334.762 354.27 333.396V241.466C354.27 240.1 353.162 238.992 351.796 238.992H242.034C240.668 238.992 239.561 240.1 239.561 241.466V333.396C239.561 334.762 240.668 335.869 242.034 335.869Z" fill="white" stroke="#313131" stroke-linecap="round" stroke-linejoin="round"/>
<path d="M237.691 335.869H347.452C348.818 335.869 349.926 334.762 349.926 333.396V241.466C349.926 240.1 348.818 238.992 347.452 238.992H237.691C236.325 238.992 235.217 240.1 235.217 241.466V333.396C235.217 334.762 236.325 335.869 237.691 335.869Z" fill="white" stroke="#313131" stroke-linecap="round" stroke-linejoin="round"/>
<path d="M239.075 238.992H346.075C346.581 238.992 347.083 239.092 347.55 239.286C348.018 239.48 348.443 239.765 348.801 240.123C349.158 240.481 349.442 240.907 349.635 241.375C349.828 241.843 349.926 242.345 349.925 242.851V318.496H235.183V242.851C235.183 242.341 235.284 241.837 235.48 241.367C235.676 240.896 235.963 240.469 236.325 240.11C236.687 239.752 237.116 239.468 237.588 239.276C238.06 239.084 238.566 238.988 239.075 238.992Z" fill="#1B1B1B" stroke="#313131" stroke-linecap="round" stroke-linejoin="round"/>
<path d="M240.036 313.218H345.106V242.851H240.036V313.218Z" fill="white" stroke="#313131" stroke-linecap="round" stroke-linejoin="round"/>
<path d="M244.905 267.229V262.228H340.884V267.229H244.905Z" fill="#FFEB00" stroke="#313131"/>
<path d="M244.72 306.58V271.834H340.755V307.847" stroke="#313131" stroke-miterlimit="10"/>
<path d="M245.043 283.521H340.441" stroke="#313131" stroke-miterlimit="10"/>
<path d="M314.219 271.579V307.846" stroke="#313131" stroke-miterlimit="10"/>
<path d="M193.008 354.16H189.668V355.274H193.008V354.16Z" fill="white" stroke="#313131" stroke-linecap="round" stroke-linejoin="round"/>
<path d="M197.455 354.16H194.114V355.274H197.455V354.16Z" fill="white" stroke="#313131" stroke-linecap="round" stroke-linejoin="round"/>
<path d="M201.908 354.16H198.567V355.274H201.908V354.16Z" fill="white" stroke="#313131" stroke-linecap="round" stroke-linejoin="round"/>
<path d="M206.353 354.16H203.013V355.274H206.353V354.16Z" fill="white" stroke="#313131" stroke-linecap="round" stroke-linejoin="round"/>
<path d="M210.806 354.16H207.466V355.274H210.806V354.16Z" fill="white" stroke="#313131" stroke-linecap="round" stroke-linejoin="round"/>
<path d="M215.252 354.16H211.912V355.274H215.252V354.16Z" fill="white" stroke="#313131" stroke-linecap="round" stroke-linejoin="round"/>
<path d="M219.706 354.16H216.365V355.274H219.706V354.16Z" fill="white" stroke="#313131" stroke-linecap="round" stroke-linejoin="round"/>
<path d="M224.151 354.16H220.811V355.274H224.151V354.16Z" fill="white" stroke="#313131" stroke-linecap="round" stroke-linejoin="round"/>
<path d="M228.605 354.16H225.265V355.274H228.605V354.16Z" fill="white" stroke="#313131" stroke-linecap="round" stroke-linejoin="round"/>
<path d="M233.049 354.16H229.709V355.274H233.049V354.16Z" fill="white" stroke="#313131" stroke-linecap="round" stroke-linejoin="round"/>
<path d="M237.503 354.16H234.163V355.274H237.503V354.16Z" fill="white" stroke="#313131" stroke-linecap="round" stroke-linejoin="round"/>
<path d="M241.949 354.16H238.608V355.274H241.949V354.16Z" fill="white" stroke="#313131" stroke-linecap="round" stroke-linejoin="round"/>
<path d="M246.403 354.16H243.062V355.274H246.403V354.16Z" fill="white" stroke="#313131" stroke-linecap="round" stroke-linejoin="round"/>
<path d="M250.848 354.16H247.508V355.274H250.848V354.16Z" fill="white" stroke="#313131" stroke-linecap="round" stroke-linejoin="round"/>
<path d="M255.301 354.16H251.961V355.274H255.301V354.16Z" fill="white" stroke="#313131" stroke-linecap="round" stroke-linejoin="round"/>
<path d="M259.747 354.16H256.406V355.274H259.747V354.16Z" fill="white" stroke="#313131" stroke-linecap="round" stroke-linejoin="round"/>
<path d="M264.2 354.16H260.859V355.274H264.2V354.16Z" fill="white" stroke="#313131" stroke-linecap="round" stroke-linejoin="round"/>
<path d="M268.645 354.16H265.305V355.274H268.645V354.16Z" fill="white" stroke="#313131" stroke-linecap="round" stroke-linejoin="round"/>
<path d="M273.099 354.16H269.759V355.274H273.099V354.16Z" fill="white" stroke="#313131" stroke-linecap="round" stroke-linejoin="round"/>
<path d="M277.544 354.16H274.204V355.274H277.544V354.16Z" fill="white" stroke="#313131" stroke-linecap="round" stroke-linejoin="round"/>
<path d="M281.998 354.16H278.657V355.274H281.998V354.16Z" fill="white" stroke="#313131" stroke-linecap="round" stroke-linejoin="round"/>
<path d="M284.421 355.435H187.943V359.03H284.421V355.435Z" fill="white" stroke="#313131" stroke-linecap="round" stroke-linejoin="round"/>
<path d="M284.421 355.435H260.886V359.03H284.421V355.435Z" fill="#1B1B1B" stroke="#313131" stroke-linecap="round" stroke-linejoin="round"/>
<path d="M308.933 233.468V232.193" stroke="#313131" stroke-miterlimit="10"/>
<path d="M308.933 229.686V220.719C308.933 219.141 309.559 217.627 310.675 216.512C311.791 215.396 313.304 214.769 314.882 214.769H367.579C369.157 214.769 370.67 215.396 371.786 216.512C372.902 217.627 373.528 219.141 373.528 220.719V259.391" stroke="#313131" stroke-miterlimit="10" stroke-dasharray="2.95 2.95"/>
<path d="M373.529 260.666V261.941" stroke="#313131" stroke-miterlimit="10"/>
<path d="M343.798 405.386V368.405H327.505V405.514" fill="white"/>
<path d="M343.798 405.386V368.405H327.505V405.514" stroke="#313131" stroke-linecap="round" stroke-linejoin="round"/>
<path d="M343.806 368.405H335.655V405.845H343.806V368.405Z" fill="#1B1B1B" stroke="#313131" stroke-linecap="round" stroke-linejoin="round"/>
<path d="M416.782 405.386V368.405H400.48V405.514" fill="white"/>
<path d="M416.782 405.386V368.405H400.48V405.514" stroke="#313131" stroke-linecap="round" stroke-linejoin="round"/>
<path d="M416.783 368.405H408.632V405.845H416.783V368.405Z" fill="#1B1B1B" stroke="#313131" stroke-linecap="round" stroke-linejoin="round"/>
<path d="M421.125 362.073H88.7969V374.975H421.125V362.073Z" fill="white" stroke="#313131" stroke-miterlimit="10"/>
<path d="M421.126 362.073H341.163V374.975H421.126V362.073Z" fill="#1B1B1B" stroke="#313131" stroke-miterlimit="10"/>
<path d="M421.125 358.554H88.7969V363.084H421.125V358.554Z" fill="white" stroke="#313131" stroke-miterlimit="10"/>
<path d="M421.126 358.554H348.413V363.084H421.126V358.554Z" fill="#1B1B1B" stroke="#313131" stroke-miterlimit="10"/>
<path d="M194.666 182.105C194.666 182.105 195.27 187.349 194.87 189.364C194.471 191.378 192.253 192.594 192.448 194.004C192.644 195.415 197.692 202.674 195.27 205.096C194.041 206.43 192.523 207.465 190.833 208.122L189.227 211.794C189.227 211.794 179.546 218.049 175.713 219.664C171.879 221.279 175.305 228.937 175.305 228.937L165.42 226.719L163.006 238.142C163.006 238.142 155.543 230.875 145.455 227.654C135.366 224.432 131.541 224.832 131.541 224.832C133.176 220.797 134.392 216.604 135.17 212.321C136.581 204.858 137.389 188.318 137.389 187.111C137.389 185.904 143.84 167.35 149.492 163.712C155.144 160.075 178.127 164.12 190.23 167.112C202.333 170.104 197.089 178.807 197.089 178.807L194.666 182.105Z" fill="white" stroke="#313131" stroke-miterlimit="10"/>
<path d="M194.267 188.557C194.267 188.557 193.663 186.338 191.037 187.146C188.411 187.953 187.807 189.364 188.819 189.364C189.83 189.364 192.219 188.157 192.856 189.364C193.493 190.571 194.063 189.967 194.267 188.557Z" fill="#383838" stroke="#313131" stroke-miterlimit="10"/>
<path d="M190.638 195.815L189.423 196.427C189.423 196.427 191.242 197.634 190.434 200.456C189.627 203.277 188.819 205.7 188.819 205.7" stroke="#313131" stroke-miterlimit="10"/>
<path d="M183.371 176.658C183.371 176.658 185.19 184.307 184.383 185.939C183.575 187.571 177.524 189.772 176.92 191.991C176.317 194.209 175.11 206.108 175.509 208.326C175.909 210.545 176.92 214.378 177.932 214.378C178.943 214.378 186.431 208.726 189.227 208.522C192.024 208.318 190.834 213.367 189.423 214.982C188.012 216.596 185.173 216.996 185.394 218.815C185.615 220.634 189.227 226.881 185.19 232.329C181.153 237.777 176.521 236.579 171.676 232.728C166.831 228.878 166.032 222.444 167.426 218.815C168.82 215.186 171.055 205.7 171.259 201.467C171.463 197.235 170.452 191.787 167.426 192.968C164.4 194.149 166.823 206.083 164.604 208.7C162.386 211.318 153.504 218.789 151.09 218.789C148.676 218.789 135.553 212.942 135.154 212.33C134.754 211.718 136.361 184.698 134.754 174.014C133.148 163.33 136.973 155.655 149.271 152.026C161.57 148.397 183.992 155.077 183.992 155.077C183.992 155.077 181.773 151.448 186.609 149.833C191.446 148.218 202.945 152.655 203.753 159.922C204.56 167.189 200.353 167.385 200.931 169.798C201.509 172.212 209.201 176.862 205.181 180.695C201.161 184.528 194.692 182.106 194.692 182.106L193.885 175.85C193.885 175.85 189.627 170.606 183.371 176.658Z" fill="#383838" stroke="#313131" stroke-miterlimit="10"/>
<path d="M184.382 191.787L165.224 191.183C165.224 191.183 161.187 192.186 160.787 194.404C160.388 196.623 159.98 201.867 161.187 202.054C162.394 202.241 162.402 200.847 162.402 199.028C162.402 197.209 162.402 194.387 164.009 193.384C165.394 192.693 166.901 192.28 168.445 192.169L184.79 193.784L200.089 194.999V192.373L184.382 191.787Z" fill="#5E5E5E" stroke="#313131" stroke-miterlimit="10"/>
<path d="M170.664 199.648C170.664 199.648 171.276 193.197 168.046 191.378C164.816 189.56 162.598 194.608 162.403 199.028C162.207 203.448 165.224 208.913 169.058 207.901" fill="white"/>
<path d="M170.664 199.648C170.664 199.648 171.276 193.197 168.046 191.378C164.816 189.56 162.598 194.608 162.403 199.028C162.207 203.448 165.224 208.913 169.058 207.901" stroke="#313131" stroke-miterlimit="10"/>
<path d="M200.14 195.016C200.14 195.016 200.539 199.648 198.729 201.867C198.042 202.673 197.223 203.357 196.307 203.89" stroke="#313131" stroke-miterlimit="10"/>
<path d="M211.134 352.508C211.134 352.508 233.137 347.197 238.449 346.058C245.656 346.058 249.346 346.345 251.272 344.974C253.199 343.603 261.358 341.361 263.631 341.12C265.904 340.879 268.402 339.625 267.343 337.315C266.285 335.005 262.5 334.863 260.991 335.293C259.482 335.723 257.157 336.214 257.157 336.214L262.755 332.067L268.9 332.979C268.9 332.979 268.9 329.944 268.248 326.595C267.343 324.727 265.106 323.115 262.425 322.358C260.991 321.598 260.611 321.598 258.278 321.598C258.278 321.598 254.79 322.374 253.021 322.219C250.643 322.25 248.251 323.347 246.27 325.316C244.166 327.44 243.001 332.067 243.001 332.067C243.001 332.067 218.25 324.952 207.547 326.07C196.844 327.188 192.345 332.641 190.723 336.948C189.101 341.255 199.139 350.514 199.139 350.514C199.139 350.514 199.752 352.508 211.134 352.508Z" fill="white" stroke="#313131" stroke-miterlimit="10"/>
<path d="M251.291 275.387L247.236 279.441" stroke="#313131" stroke-miterlimit="10"/>
<path d="M244.949 268.8L249.003 265.502" stroke="#313131" stroke-miterlimit="10"/>
<path d="M128.745 219.724C128.745 219.724 135.825 218.024 146.594 222.563C154.48 225.751 161.41 230.921 166.712 237.573C169.042 240.707 170.946 244.137 172.373 247.772C172.373 247.772 131.295 231.912 126.765 231.912H116.565C116.565 231.912 121.946 220.293 128.745 219.724Z" fill="white" stroke="#313131" stroke-miterlimit="10"/>
<path d="M269.836 405.862C236.968 376.964 185.691 376.964 185.691 376.964L178.041 369.604H87.0293V406.279" fill="white"/>
<path d="M269.836 405.862C236.968 376.964 185.691 376.964 185.691 376.964L178.041 369.604H87.0293V406.279" stroke="#313131" stroke-miterlimit="10"/>
<path d="M183.711 378.664C183.711 378.664 179.461 397.082 171.242 405.012" stroke="#313131" stroke-miterlimit="10"/>
<path d="M181.161 377.253C177.957 384.512 172.747 390.704 166.143 395.102" stroke="#313131" stroke-miterlimit="10"/>
<path d="M117.695 228.513C117.695 228.513 123.925 227.093 136.113 229.643C148.301 232.193 166.142 242.673 174.072 246.072C182.002 249.472 188.24 249.761 189.66 254.861C191.079 259.961 206.659 308.118 213.458 313.507C223.479 321.446 233.007 335.385 221.958 346.935C215.439 353.735 206.659 354.304 202.689 352.885C198.72 351.466 189.09 341.555 189.09 338.436V334.467L170.392 312.938C170.392 312.938 174.361 346.655 176.061 351.185C177.761 355.715 182.291 362.234 182.291 365.065C182.291 367.895 175.772 373.564 168.122 378.383C160.473 383.203 152.823 387.452 135.263 388.302C117.703 389.152 96.7268 386.313 92.1966 380.364C87.6664 374.414 81.9972 367.334 81.4278 357.415C80.8583 347.496 78.8779 308.407 78.8779 308.407C78.8779 308.407 80.0169 276.67 80.8668 266.191C81.7167 255.711 83.9776 248.911 89.3663 246.642C94.7549 244.373 114.015 228.513 117.695 228.513Z" fill="#FFEB00" stroke="#313131" stroke-miterlimit="10"/>
<path d="M126.492 293.848C127.269 295.069 128.12 296.242 129.042 297.358" stroke="#313131" stroke-miterlimit="10"/>
<path d="M113.726 254.291C113.726 254.291 116.768 275.54 124.384 290.184" stroke="#313131" stroke-miterlimit="10"/>
<path d="M115.716 280.92C115.716 280.92 121.946 301.038 131.576 311.518" stroke="#313131" stroke-miterlimit="10"/>
<path d="M156.224 295.939L170.392 312.938" stroke="#313131" stroke-miterlimit="10"/>
<path d="M151.974 290.839L154.183 293.482" stroke="#313131" stroke-miterlimit="10"/>
<path d="M152.543 298.488L165.862 308.118" stroke="#313131" stroke-miterlimit="10"/>
<path d="M171.522 261.091C171.522 261.091 158.212 273.84 158.493 288.57" stroke="#313131" stroke-miterlimit="10"/>
<path d="M213.459 313.507C213.459 313.507 218.269 322.856 211.189 329.656C204.109 336.455 189.091 334.466 189.091 334.466V338.436C189.091 341.555 198.721 351.465 202.69 352.885C206.659 354.304 215.439 353.735 221.958 346.935C233.024 335.384 223.48 321.437 213.459 313.507Z" fill="white" stroke="#313131" stroke-miterlimit="10"/>
<path d="M176.061 351.185L160.762 336.736" stroke="#313131" stroke-miterlimit="10"/>
<path d="M152.263 328.517L167.273 339.286" stroke="#313131" stroke-miterlimit="10"/>
<path d="M130.734 343.68C131.816 344.468 132.952 345.178 134.134 345.805" stroke="#313131" stroke-miterlimit="10"/>
<path d="M97.8662 318.887C97.8662 318.887 114.916 332.197 125.761 340.136" stroke="#313131" stroke-miterlimit="10"/>
<path d="M101.266 327.387C101.266 327.387 113.726 336.456 115.715 337.586" stroke="#313131" stroke-miterlimit="10"/>
<path d="M86.8854 333.761H154.031C156.116 333.761 158.116 334.59 159.59 336.064C161.065 337.538 161.893 339.538 161.893 341.623V398.995C161.893 400.516 161.289 401.975 160.213 403.051C159.137 404.127 157.678 404.732 156.156 404.732H84.7606C83.239 404.732 81.7797 404.127 80.7038 403.051C79.6279 401.975 79.0234 400.516 79.0234 398.995V341.623C79.0234 339.538 79.8518 337.538 81.3262 336.064C82.8006 334.59 84.8003 333.761 86.8854 333.761Z" fill="#383838" stroke="#313131" stroke-miterlimit="10"/>
<path d="M80.0856 333.761H147.231C149.316 333.761 151.316 334.59 152.791 336.064C154.265 337.538 155.093 339.538 155.093 341.623V398.995C155.093 400.516 154.489 401.975 153.413 403.051C152.337 404.127 150.878 404.732 149.356 404.732H77.9608C76.4392 404.732 74.9799 404.127 73.904 403.051C72.8281 401.975 72.2236 400.516 72.2236 398.995V341.623C72.2236 339.538 73.0519 337.538 74.5264 336.064C76.0008 334.59 78.0005 333.761 80.0856 333.761Z" fill="#636363" stroke="#313131" stroke-miterlimit="10"/>
<path d="M87.4473 354.585V409.17H83.3477V354.585C83.3477 354.041 83.5636 353.52 83.948 353.136C84.3325 352.751 84.8538 352.535 85.3975 352.535C85.9411 352.535 86.4625 352.751 86.8469 353.136C87.2314 353.52 87.4473 354.041 87.4473 354.585Z" fill="#383838" stroke="#313131"/>
<path d="M133.77 354.585V409.17H129.67V354.585C129.67 354.041 129.886 353.52 130.27 353.136C130.655 352.751 131.176 352.535 131.72 352.535C132.263 352.535 132.785 352.751 133.169 353.136C133.554 353.52 133.77 354.041 133.77 354.585Z" fill="#383838" stroke="#313131"/>
</svg>
