<svg width="319" height="318" viewBox="0 0 319 318" fill="none" xmlns="http://www.w3.org/2000/svg">
<path d="M32.1785 241.532L22.0407 241.743L16.9039 241.826C15.1841 241.826 13.4567 241.826 11.7369 241.872H11.3975V241.532V232.895V232.48H11.7822L22.003 232.526C25.4049 232.526 28.7917 232.616 32.2238 232.654H32.4274V232.858C32.4274 234.321 32.3596 235.784 32.3294 237.225L32.1785 241.532ZM32.1785 241.532L32.0729 237.172C32.0729 235.732 31.9824 234.313 31.9673 232.895L32.1785 233.099C28.7691 233.144 25.3898 233.22 21.9577 233.227L11.7369 233.235L12.114 232.858L12.0688 241.532L11.7369 241.2C13.419 241.2 15.1011 241.2 16.7907 241.238L21.8672 241.321L32.1785 241.532Z" fill="#EBEBEB"/>
<path d="M20.7735 252.394L10.6357 252.605L5.49887 252.688C3.77906 252.688 2.05171 252.688 0.331895 252.733H0V252.394V243.757V243.38H0.377152L10.598 243.433C14.0074 243.433 17.3867 243.516 20.8188 243.553H21.03V243.795C21.03 245.258 20.9696 246.721 20.9319 248.162L20.7735 252.394ZM20.7735 252.394L20.6679 248.034C20.6679 246.593 20.5849 245.175 20.5698 243.757L20.7735 243.961C17.3641 244.006 13.9848 244.081 10.5527 244.089L0.331895 244.134L0.709047 243.757L0.663788 252.394L0.331895 252.062C2.01399 252.062 3.69609 252.062 5.38573 252.1L10.4622 252.183L20.7735 252.394Z" fill="#EBEBEB"/>
<path d="M43.5764 243.757H23.1348V252.394H43.5764V243.757Z" fill="#EBEBEB"/>
<path d="M294.291 123.106L284.161 123.318L279.017 123.401C277.297 123.438 275.577 123.401 273.85 123.446H273.518V123.106L273.473 114.47V114.055H273.85L284.071 114.1C287.48 114.1 290.859 114.19 294.291 114.228H294.503V114.432C294.503 115.895 294.435 117.351 294.397 118.799L294.291 123.106ZM294.291 123.106L294.186 118.746C294.186 117.306 294.103 115.888 294.088 114.47L294.291 114.673C290.89 114.711 287.503 114.794 284.071 114.801L273.85 114.847L274.227 114.47L274.189 123.106L273.85 122.774C275.539 122.774 277.214 122.774 278.904 122.774L283.988 122.857L294.291 123.106Z" fill="#EBEBEB"/>
<path d="M282.886 125.354H262.444V133.991H282.886V125.354Z" fill="#EBEBEB"/>
<path d="M305.727 133.991L295.597 134.202L290.452 134.285C288.732 134.322 287.005 134.285 285.285 134.33H284.953V133.991L284.878 125.369V124.992H285.255L295.476 125.037C298.885 125.037 302.265 125.127 305.697 125.165H305.908V125.369C305.908 126.832 305.848 128.288 305.81 129.736L305.727 133.991ZM305.727 133.991L305.621 129.631C305.584 128.19 305.538 126.772 305.523 125.354L305.727 125.557C302.317 125.595 298.938 125.678 295.506 125.686L285.285 125.731L285.662 125.354L285.625 133.991L285.285 133.659C286.967 133.659 288.649 133.659 290.339 133.659L295.416 133.742L305.727 133.991Z" fill="#EBEBEB"/>
<path d="M307.047 243.757H286.605V252.394H307.047V243.757Z" fill="#EBEBEB"/>
<path d="M307.047 18.605L296.917 18.8162L291.773 18.8991C290.053 18.8991 288.333 18.8991 286.606 18.9444H286.274V18.605L286.229 9.96065V9.5835H286.606L296.826 9.62876C300.236 9.62876 303.615 9.71927 307.047 9.75699H307.236V9.96065C307.236 11.424 307.168 12.8798 307.138 14.3205L307.047 18.605ZM307.047 18.605L306.942 14.2451C306.942 12.8044 306.859 11.3787 306.844 9.96819L307.047 10.1719C303.645 10.1719 300.259 10.2925 296.826 10.3001L286.606 10.3453L286.983 9.96819V18.605L286.643 18.2731C288.333 18.2731 290.008 18.2731 291.697 18.2731L296.781 18.356L307.047 18.605Z" fill="#EBEBEB"/>
<path d="M318.451 20.8604H298.01V29.4971H318.451V20.8604Z" fill="#EBEBEB"/>
<path d="M20.7741 18.6126L10.6362 18.8238L5.5145 18.9067C3.79468 18.9067 2.06733 18.9067 0.34752 18.952H0.015625V18.6126V9.97578V9.59863H0.392777L10.6136 9.65143C14.023 9.65143 17.4023 9.73441 20.8344 9.77212H21.0456V9.9607C21.0456 11.424 20.9853 12.8874 20.9475 14.3281L20.7741 18.6126ZM20.7741 18.6126L20.6684 14.2527C20.6006 12.812 20.6006 11.3939 20.6006 9.9607L20.8042 10.1719C17.3948 10.2096 14.0155 10.285 10.5834 10.2926L0.362604 10.3378L0.739755 9.9607L0.694499 18.5975L0.332434 18.258C2.01453 18.258 3.69663 18.258 5.38627 18.258L10.4627 18.3485L20.7741 18.6126Z" fill="#EBEBEB"/>
<path d="M60.6311 137.272H40.1895V145.909H60.6311V137.272Z" fill="#EBEBEB"/>
<path d="M142.035 208.516H121.594V217.152H142.035V208.516Z" fill="#EBEBEB"/>
<path d="M122.951 39.884L133.089 39.6804L138.226 39.5898C139.946 39.5898 141.673 39.5898 143.393 39.5898H143.732V39.9293V48.5736V48.9507H143.355L133.134 48.8979C129.733 48.8979 126.346 48.815 122.914 48.7773H122.71V48.5736C122.71 47.1027 122.778 45.6469 122.808 44.2062L122.951 39.884ZM122.951 39.884L123.057 44.2514C123.057 45.6846 123.147 47.1102 123.163 48.5283L122.951 48.3171C126.361 48.3171 129.74 48.1964 133.172 48.1964L143.393 48.1512L143.016 48.5283L143.061 39.884L143.393 40.2235C141.711 40.2235 140.029 40.2235 138.339 40.1782L133.263 40.1329L122.951 39.884Z" fill="#EBEBEB"/>
<path d="M134.356 28.9918L144.494 28.8183L149.631 28.7354C151.351 28.7354 153.078 28.7354 154.798 28.7354H155.13V29.0748V37.7191V38.0963H154.752L144.532 38.051C141.122 38.051 137.743 37.968 134.311 37.9303H134.1V37.7266C134.1 36.218 134.16 34.7999 134.198 33.3592L134.356 28.9918ZM134.356 28.9918L134.499 33.3441C134.537 34.7773 134.582 36.203 134.597 37.621L134.394 37.4098C137.803 37.4098 141.183 37.2892 144.615 37.2892L154.835 37.2439L154.458 37.621L154.504 28.9767L154.835 29.3162C153.153 29.3162 151.471 29.3162 149.782 29.2709L144.705 29.1879L134.356 28.9918Z" fill="#EBEBEB"/>
<path d="M40.4609 129.948V102.755H13.2683V129.948H40.4609Z" fill="#DBDBDB"/>
<path d="M36.2441 125.731V106.972H17.4846V125.731H36.2441Z" fill="white"/>
<path d="M36.2517 106.964H17.4922V125.723L36.2517 106.964Z" fill="#EBEBEB"/>
<path d="M10.6202 129.94H13.2754L13.2754 102.747H10.6202L10.6202 129.94Z" fill="#C7C7C7"/>
<path d="M74.1172 129.948V102.755H46.9246V129.948H74.1172Z" fill="#DBDBDB"/>
<path d="M69.9014 125.731V106.972H51.1419V125.731H69.9014Z" fill="white"/>
<path d="M64.4025 106.964H51.1494V120.217L64.4025 106.964Z" fill="#EBEBEB"/>
<path d="M44.2775 129.94H46.9326V102.747H44.2775V129.94Z" fill="#C7C7C7"/>
<path d="M74.126 171.985V136.45H13.2763V171.985H74.126Z" fill="#DBDBDB"/>
<path d="M69.6826 167.587V140.84H17.7187V167.587H69.6826Z" fill="white"/>
<path d="M51.7831 140.847H17.7188V158.377L51.7831 140.847Z" fill="#EBEBEB"/>
<path d="M10.6202 171.985H13.2754L13.2754 136.45H10.6202L10.6202 171.985Z" fill="#C7C7C7"/>
<path d="M74.126 96.4112V35.5615L13.2763 35.5615L13.2763 96.4112H74.126Z" fill="#DBDBDB"/>
<path d="M69.6824 40.0049H17.7109V91.9688H69.6824V40.0049Z" fill="white"/>
<path d="M17.7109 77.4183C25.616 69.5585 47.9962 47.2915 55.1923 40.0049H17.7109V77.4183Z" fill="#EBEBEB"/>
<path d="M10.6202 96.4116H13.2754L13.2754 35.562H10.6202L10.6202 96.4116Z" fill="#C7C7C7"/>
<path d="M0.331055 317.535L40.0979 317.354L79.8572 317.286L159.391 317.166L238.925 317.286L278.684 317.354L318.451 317.535L278.684 317.724L238.925 317.792L159.391 317.912L79.8572 317.792L40.0979 317.724L0.331055 317.535Z" fill="#333333"/>
<path d="M167.833 197.496L171.024 205.212L167.833 206.532L164.627 198.763L159.354 202.859V181.135L174.561 196.492L167.833 197.496Z" fill="#333333"/>
<path d="M159.392 178.766C159.13 178.06 159.13 177.284 159.392 176.579C159.653 177.284 159.653 178.06 159.392 178.766Z" fill="#333333"/>
<path d="M157.513 179.543C156.843 179.223 156.308 178.675 156.005 177.997C156.667 178.328 157.199 178.873 157.513 179.543Z" fill="#333333"/>
<path d="M156.729 181.421C156.026 181.682 155.252 181.682 154.549 181.421C155.254 181.17 156.024 181.17 156.729 181.421Z" fill="#333333"/>
<path d="M157.513 183.307C157.199 183.977 156.667 184.522 156.005 184.853C156.308 184.175 156.843 183.627 157.513 183.307Z" fill="#333333"/>
<path d="M162.055 181.421C162.76 181.17 163.53 181.17 164.235 181.421C163.531 181.682 162.758 181.682 162.055 181.421Z" fill="#333333"/>
<path d="M161.27 179.543C161.584 178.873 162.116 178.328 162.778 177.997C162.475 178.675 161.94 179.223 161.27 179.543Z" fill="#333333"/>
<path d="M110.558 172.369C111.841 171.674 112.9 170.626 113.608 169.349C114.316 168.072 114.645 166.619 114.555 165.162C114.465 163.705 113.961 162.303 113.102 161.122C112.243 159.942 111.065 159.031 109.705 158.498C112.308 156.748 113.99 153.814 112.987 150.54C111.946 147.153 108.619 145.516 105.255 146.014V146.059C108.37 145.939 111.516 147.568 112.436 150.683C113.19 153.369 112.134 155.586 110.324 157.246C110.895 156.233 111.252 155.114 111.373 153.958C111.493 152.802 111.375 151.633 111.025 150.525C110.597 149.305 109.818 148.24 108.786 147.461C107.754 146.683 106.515 146.227 105.225 146.15C105.406 143.193 104.561 139.972 102.208 138.026C101.233 137.203 100.041 136.681 98.7748 136.524C97.5091 136.368 96.2251 136.583 95.0795 137.144C94.9154 135.717 94.3367 134.371 93.415 133.27C92.4932 132.17 91.269 131.363 89.8938 130.952C88.5186 130.54 87.0528 130.54 85.6779 130.953C84.3029 131.366 83.0792 132.173 82.1583 133.274C81.9355 132.266 81.4627 131.33 80.7834 130.552C80.1041 129.775 79.2401 129.181 78.271 128.825C77.3019 128.469 76.2588 128.362 75.2377 128.515C74.2166 128.667 73.2503 129.075 72.4278 129.699C72.111 128.971 71.5925 128.349 70.9335 127.906C70.2745 127.464 69.5026 127.219 68.709 127.202C66.8384 127.111 65.1865 128.145 63.8438 129.374C63.1664 128.896 62.3797 128.596 61.5559 128.501C60.7322 128.406 59.8978 128.519 59.1294 128.831C58.1539 129.272 57.3662 130.044 56.9063 131.011C56.4465 131.978 56.3442 133.076 56.6176 134.111C53.6758 134.451 50.5303 135.228 48.5013 137.521C46.8343 139.414 46.1026 142.235 47.2642 144.528C46.0431 144.836 44.9012 145.399 43.9138 146.181C42.9263 146.962 42.1158 147.944 41.5355 149.062C40.9553 150.179 40.6187 151.407 40.5478 152.665C40.4769 153.922 40.6733 155.18 41.1242 156.356C40.1843 156.925 39.4107 157.731 38.8811 158.693C38.3515 159.656 38.0845 160.741 38.107 161.839C38.0796 163.352 38.4214 164.849 39.1026 166.199C38.3044 166.771 37.7055 167.578 37.3902 168.508C37.0749 169.437 37.0591 170.442 37.3451 171.381C37.645 172.245 38.1327 173.031 38.7732 173.683C39.4136 174.335 40.1908 174.837 41.0487 175.153C41.3442 175.608 41.5349 176.123 41.6069 176.661C41.7915 177.991 42.301 179.254 43.0904 180.34C43.8799 181.425 44.9248 182.299 46.1328 182.884C46.0181 183.664 46.0706 184.459 46.2867 185.217C46.5028 185.975 46.8776 186.678 47.3862 187.28C47.8948 187.883 48.5255 188.37 49.2367 188.709C49.9478 189.049 50.723 189.234 51.5109 189.251C51.7712 190.871 52.6585 192.323 53.981 193.294C55.3036 194.266 56.9551 194.677 58.5788 194.44C58.8835 195.712 59.4582 196.902 60.2638 197.932C61.0694 198.961 62.0872 199.806 63.2479 200.407C65.0582 201.32 67.472 201.561 69.0409 200.181C69.5539 201.689 71.4773 202.195 72.9709 201.78C73.5351 201.608 74.079 201.376 74.5926 201.086C75.1982 200.632 75.8768 200.285 76.5991 200.06C77.3534 199.954 78.0398 200.422 78.7036 200.626C79.1957 200.769 79.7012 200.863 80.2122 200.905C82.0888 201.013 83.9467 200.481 85.4815 199.396C87.0164 198.311 88.1372 196.736 88.6604 194.931C91.2476 195.685 93.7519 194.139 95.4038 192.17C95.9273 191.521 96.3918 190.827 96.7918 190.096C97.112 189.414 97.6402 188.851 98.3004 188.489C98.7379 188.27 99.2282 188.15 99.6657 187.931C101.174 187.176 101.815 185.728 102.306 184.22C109.268 185.977 113.56 178.261 110.558 172.369ZM38.2427 172.015C37.8009 171.091 37.6565 170.053 37.8295 169.044C38.0024 168.035 38.4841 167.104 39.2082 166.38L39.344 166.599C39.344 166.599 39.0272 167.195 38.899 167.504C38.679 168.075 38.5443 168.675 38.4992 169.284C38.3976 170.556 38.6759 171.829 39.2988 172.943C39.5835 173.431 39.9281 173.882 40.3246 174.285L40.4604 174.436C39.5085 173.853 38.74 173.014 38.2427 172.015ZM60.4796 129.774C59.5398 130.042 58.7057 130.594 58.0914 131.354C57.4771 132.114 57.1126 133.046 57.0475 134.021H56.8891C56.7081 131.984 57.1079 130.083 59.2878 129.171C59.9625 128.896 60.6974 128.804 61.4189 128.904C62.1404 129.003 62.8232 129.29 63.3988 129.736C62.4394 129.482 61.4276 129.503 60.4796 129.797V129.774ZM102.366 183.903C102.366 183.903 102.366 183.858 102.366 183.827C104.602 183.79 106.735 182.883 108.312 181.299C109.889 179.714 110.787 177.577 110.814 175.341C111.116 180.29 108.499 184.733 102.366 183.903Z" fill="#333333"/>
<path d="M76.2368 221.166C82.7993 249.075 96.2485 282.438 101.944 287.839C109.14 294.665 156.721 303.332 159.09 303.573C164.943 304.132 176.34 265.602 170.102 264.734C160.606 263.414 126.081 261.717 123.999 259.605C121.917 257.493 107.178 239.111 92.0923 218.435C81.698 204.134 72.1636 203.854 76.2368 221.166Z" fill="#CC837B"/>
<path d="M155.861 301.65C156.487 301.967 165.449 306.409 170.985 307.986C175.111 309.155 187.09 312.21 188.832 307.797C190.024 304.78 183.19 302.155 178.4 300.194C175.881 299.153 172.765 296.536 173.497 294.914C174.779 292.078 181.274 294.914 185.566 297.343C193.825 302.087 204.853 310.641 209.862 306.432C211.755 304.848 209.53 301.982 206.279 299.176C211.559 302.434 217.156 305.105 219.321 303.415C220.573 302.457 220.626 301.152 219.917 299.643C221.539 300.156 222.934 300.051 223.96 298.987C225.657 297.192 224.812 294.567 222.934 291.874C223.249 291.834 223.549 291.721 223.812 291.542C224.074 291.364 224.29 291.126 224.443 290.848C228.026 285.327 209.869 269.622 203.616 268.174C185.211 263.904 165.841 264.825 165.841 264.825C158.637 270.655 155.846 301.635 155.861 301.65Z" fill="#CC837B"/>
<path d="M182.774 284.58C187.155 285.24 191.344 286.826 195.062 289.234C199.739 292.251 202.854 295.872 206.784 299.477C206.805 299.496 206.817 299.523 206.819 299.551C206.82 299.579 206.81 299.607 206.791 299.628C206.772 299.649 206.746 299.662 206.718 299.663C206.689 299.664 206.662 299.655 206.641 299.636C204.77 297.923 197.008 291.482 195.009 290.026C191.393 287.327 187.209 285.49 182.774 284.655C182.774 284.648 182.774 284.572 182.774 284.58Z" fill="#333333"/>
<path d="M186.184 276.758C191.019 278.055 195.99 279.367 200.516 281.623C205.434 284.097 209.296 288.155 213.098 292.062C215.376 294.411 217.603 296.804 219.781 299.243C219.871 299.341 219.735 299.507 219.637 299.409C215.78 295.386 211.808 291.471 207.719 287.665C203.946 284.119 199.509 281.356 194.662 279.533C191.887 278.492 189.043 277.67 186.207 276.848C186.116 276.833 186.131 276.742 186.184 276.758Z" fill="#333333"/>
<path d="M191.307 269.909C196.006 270.852 200.109 271.651 204.281 274.148C209.802 277.444 215.142 283.026 217.021 285.01C219.087 287.197 221.086 289.445 223.055 291.731C223.138 291.829 222.972 291.965 222.889 291.874C218.398 286.858 213.588 282.136 208.49 277.738C206.091 275.613 203.379 273.87 200.449 272.571C197.483 271.427 194.424 270.538 191.307 269.916C191.307 269.916 191.291 269.909 191.307 269.909Z" fill="#333333"/>
<path d="M162.062 262.486L147.73 308.748C147.73 308.748 108.197 297.69 100.963 289.951C93.7295 282.211 80.1898 242.113 76.1392 222.674C72.0886 203.236 81.9624 203.658 91.0819 215.885C100.201 228.113 122.876 257.734 124.135 258.375C125.395 259.017 162.062 262.486 162.062 262.486Z" fill="#FFC727"/>
<path d="M143.129 287.702C144.751 282.535 146.418 277.383 147.851 272.156C148.666 269.184 149.495 266.22 150.28 263.24C150.28 263.127 150.121 263.059 150.084 263.172C148.243 268.287 146.418 273.423 144.804 278.628C143.189 283.833 141.575 288.97 140.044 294.167C139.184 297.124 138.407 300.096 137.721 303.105C137.721 303.166 137.804 303.203 137.826 303.143C139.848 298.104 141.5 292.907 143.129 287.702Z" fill="#333333"/>
<path opacity="0.1" d="M127.786 302.502L126.036 301.899C122.74 300.745 119.383 299.5 116.23 298.233L115.023 297.743L113.145 296.989C112.828 296.86 112.527 296.717 112.217 296.589L111.893 296.445L110.943 296.015C109.683 295.442 108.491 294.876 107.382 294.296L106.628 293.896C104.893 293.009 103.255 291.945 101.74 290.72L101.34 290.351C101.205 290.23 101.084 290.102 100.971 289.989C93.7144 282.249 80.1897 242.151 76.1693 222.705L76.0335 222.033V221.89C75.762 220.381 75.5206 218.579 75.3169 216.61C74.721 206.925 79.2996 205.295 84.9871 209.542C99.2736 239.722 121.171 289.679 127.786 302.502Z" fill="black"/>
<path d="M4.20898 317.535H100.171L81.0423 206.23H9.2779L4.20898 317.535Z" fill="#DBDBDB"/>
<path d="M4.20898 317.535H12.6195L17.3414 206.23H9.2779L4.20898 317.535Z" fill="#A6A6A6"/>
<path d="M111.071 317.535H12.1213C11.6838 315.567 27.2526 228.867 60.6154 204.465C68.0227 199.049 81.1551 202.527 84.8059 207.792C103.173 234.253 111.071 317.535 111.071 317.535Z" fill="#EBEBEB"/>
<path d="M58.4279 205.114C58.4279 205.114 67.1628 243.485 68.0604 246.797C68.958 250.108 72.194 317.535 72.194 317.535H11.2236C11.2236 317.535 24.9444 231.545 58.4279 205.114Z" fill="#FFC727"/>
<path d="M84.8057 207.792C84.8057 207.792 88.63 237.21 89.0826 238.915C89.5351 240.619 102.064 317.536 102.064 317.536H111.561C111.561 317.536 103.256 228.633 84.8057 207.792Z" fill="#FFC727"/>
<path d="M77.6477 223.602C71.6963 224.039 63.2556 213.706 60.5099 205.981C60.3214 205.446 65.4657 186.294 66.0842 182.394C66.2125 181.595 89.6034 192.253 89.6034 192.253C89.6034 192.253 85.8847 200.045 84.8362 206.834C84.7608 207.422 83.403 223.18 77.6477 223.602Z" fill="#CC837B"/>
<path d="M89.6037 192.261C89.6037 192.261 85.885 200.045 84.8441 206.834C84.8441 206.902 84.8441 207.211 84.746 207.694C80.5672 206.902 69.313 203.364 64.9531 187.508C65.5038 185.246 65.9337 183.337 66.0846 182.379C66.2128 181.595 89.6037 192.261 89.6037 192.261Z" fill="#333333"/>
<path d="M68.7168 152.577C64.2664 160.61 63.5121 186.4 68.4453 193.234C75.5961 203.145 89.9354 207.007 99.0247 197.805C107.827 188.897 108.22 155.27 102.464 148.775C93.986 139.233 75.3019 140.712 68.7168 152.577Z" fill="#CC837B"/>
<path d="M89.7616 174.104C89.7616 174.044 89.6182 174.187 89.6182 174.255C89.6182 175.99 89.2637 177.981 87.6646 178.479C87.6118 178.479 87.6118 178.585 87.6646 178.577C89.6032 178.404 89.9954 175.756 89.7616 174.104Z" fill="#333333"/>
<path d="M88.2985 172.219C85.5152 171.872 85.0249 177.462 87.6046 177.786C90.1843 178.11 90.6293 172.513 88.2985 172.219Z" fill="#333333"/>
<path d="M99.598 175.153C99.598 175.093 99.7263 175.251 99.7112 175.319C99.5075 177.046 99.5603 179.091 101.076 179.769C101.122 179.769 101.114 179.883 101.076 179.867C99.1681 179.392 99.1228 176.722 99.598 175.153Z" fill="#333333"/>
<path d="M101.31 173.448C104.108 173.448 103.837 179.083 101.242 179.053C98.6473 179.023 98.949 173.418 101.31 173.448Z" fill="#333333"/>
<path d="M86.4354 170.628C87.198 170.737 87.966 170.805 88.736 170.831C89.533 171.014 90.3681 170.929 91.112 170.59C91.3247 170.439 91.4815 170.221 91.5579 169.972C91.6343 169.722 91.626 169.454 91.5344 169.21C91.0743 168.176 90.0258 167.829 88.9547 167.701C87.9006 167.546 86.8264 167.785 85.9375 168.372C85.7422 168.518 85.5931 168.717 85.5082 168.946C85.4232 169.174 85.4059 169.423 85.4585 169.661C85.5111 169.899 85.6312 170.117 85.8044 170.288C85.9777 170.46 86.1968 170.577 86.4354 170.628Z" fill="#333333"/>
<path d="M103.709 170.823C102.955 170.627 102.276 170.318 101.536 170.069C100.735 169.902 100.011 169.475 99.4772 168.855C99.3447 168.629 99.2913 168.365 99.3255 168.106C99.3596 167.846 99.4794 167.605 99.6658 167.421C100.511 166.667 101.619 166.803 102.63 167.127C103.666 167.42 104.554 168.09 105.119 169.006C105.231 169.22 105.278 169.463 105.256 169.704C105.234 169.945 105.144 170.174 104.996 170.366C104.847 170.557 104.647 170.702 104.419 170.783C104.191 170.864 103.945 170.878 103.709 170.823Z" fill="#333333"/>
<path d="M86.028 189.779C86.4051 190.216 86.7823 190.812 87.3933 190.918C88.0389 190.963 88.6869 190.87 89.2941 190.646C89.3071 190.64 89.3218 190.639 89.3358 190.642C89.3497 190.646 89.3619 190.654 89.3701 190.666C89.3783 190.678 89.382 190.693 89.3805 190.707C89.379 190.721 89.3724 190.735 89.362 190.744C89.0872 191.062 88.7321 191.299 88.3339 191.432C87.9358 191.565 87.5092 191.588 87.0991 191.499C86.7534 191.376 86.4519 191.154 86.2329 190.86C86.014 190.566 85.8875 190.213 85.8696 189.847C85.8394 189.734 85.9752 189.711 86.028 189.779Z" fill="#333333"/>
<path d="M88.2984 184.756C88.6781 185.478 89.203 186.115 89.8404 186.625C90.4777 187.135 91.2137 187.508 92.0021 187.72C92.6885 187.917 93.3999 188.014 94.1141 188.007C94.252 188.022 94.3911 188.022 94.529 188.007H94.9137C95.0065 187.997 95.0935 187.957 95.1616 187.893C95.2296 187.829 95.275 187.744 95.2908 187.652C95.2981 187.592 95.2981 187.531 95.2908 187.471V187.313C95.4417 185.985 95.4869 183.949 95.4869 183.949C95.9546 184.235 98.3382 185.57 98.3608 184.869C98.5268 179.076 98.7078 172.634 97.6065 166.833C97.5985 166.796 97.578 166.763 97.5485 166.739C97.519 166.716 97.4822 166.703 97.4443 166.703C97.4064 166.703 97.3697 166.716 97.3402 166.739C97.3107 166.763 97.2902 166.796 97.2822 166.833C96.905 172.393 97.516 177.99 97.2218 183.579C96.3758 183.089 95.4638 182.723 94.5139 182.493C94.3253 182.53 94.5139 186.43 94.3781 187.019C94.3826 187.038 94.3826 187.059 94.3781 187.079C92.1152 187.169 90.4859 186.325 88.4493 184.65C88.3588 184.499 88.2079 184.605 88.2984 184.756Z" fill="#333333"/>
<path d="M107.345 159.433C106.93 157.321 106.002 156.748 106.002 156.748C106.002 156.748 106.402 154.38 104.622 151.015C102.766 147.493 100.269 146.693 100.269 146.693C100.269 146.693 98.4815 144.083 93.7143 142.492C92.613 142.13 89.1885 141.572 88.0872 141.813C86.7974 142.1 85.6056 141.3 84.3157 141.059C83.1429 140.866 81.9436 140.904 80.7856 141.172C79.8146 141.392 78.8851 141.767 78.0324 142.281C77.5398 142.596 77.0686 142.944 76.6218 143.322C75.9428 143.848 75.1188 144.153 74.2608 144.197C73.259 144.324 72.2946 144.658 71.4285 145.177C70.5625 145.696 69.8137 146.39 69.2296 147.214C68.5188 148.225 68.035 149.378 67.8115 150.593C67.5098 152.102 65.7146 152.554 64.8773 153.761C64.2345 154.704 63.9021 155.825 63.9265 156.966C63.9508 158.107 64.3307 159.212 65.0131 160.127C63.8429 160.774 62.9227 161.794 62.3992 163.024C61.8756 164.254 61.7788 165.624 62.1241 166.916C62.6747 168.975 64.387 170.099 66.1144 170.846C66.4387 170.986 66.7777 171.09 67.1251 171.155C70.7835 172.302 75.1057 168.953 74.4192 164.54C76.5438 164.243 78.5276 163.307 80.1067 161.855C81.8114 160.346 82.6562 158.038 83.0485 155.737C84.0939 156.556 85.3206 157.112 86.6254 157.358C87.9302 157.604 89.2751 157.534 90.547 157.152C91.8189 156.771 92.9807 156.09 93.9348 155.167C94.8889 154.243 95.6075 153.104 96.03 151.845C97.1464 153.437 100.624 156.371 102.479 156.092C102.427 161.334 105.685 163.771 106.636 163.884C106.839 163.952 107.85 161.862 107.345 159.433ZM71.138 170.295C72.3977 169.39 73.4688 167.995 74.3664 164.842C74.4294 165.964 74.1603 167.079 73.5928 168.049C73.0254 169.019 72.1846 169.801 71.1757 170.295H71.138ZM88.487 156.846C89.9676 156.651 91.3809 156.108 92.6108 155.261C93.8408 154.414 94.8523 153.287 95.5624 151.973C95.0307 153.402 94.0756 154.634 92.8246 155.505C91.5737 156.376 90.0866 156.844 88.5624 156.846H88.487Z" fill="#333333"/>
<path d="M70.007 173.463C70.007 173.463 65.9262 164.321 61.8831 165.626C57.8401 166.931 59.8314 179.43 63.8141 181.851C64.3043 182.197 64.8593 182.441 65.446 182.567C66.0326 182.693 66.6386 182.699 67.2277 182.585C67.8167 182.471 68.3766 182.238 68.8737 181.902C69.3707 181.566 69.7947 181.133 70.1201 180.629L70.007 173.463Z" fill="#CC837B"/>
<path d="M62.5389 169.194C62.4711 169.194 62.4409 169.27 62.4937 169.307C65.2695 171.103 66.318 174.195 66.8762 177.303C66.1898 176.021 65.0885 175.176 63.3913 175.953C63.3008 175.998 63.3913 176.134 63.4441 176.134C64.0061 176.067 64.5751 176.176 65.0724 176.446C65.5696 176.716 65.9707 177.134 66.2199 177.643C66.6306 178.495 66.9516 179.387 67.1779 180.305C67.2609 180.599 67.7814 180.554 67.7361 180.222C67.7361 180.222 67.7361 180.169 67.7361 180.147C68.5357 176.315 66.6122 170.371 62.5389 169.194Z" fill="#333333"/>
<path d="M84.7157 207.716L78.4625 220.306L61.6717 200.626L57.1836 207.369C57.1836 207.369 72.4356 235.837 72.6016 234.6L78.8773 223.059L86.6467 231.726L87.0615 211.02L84.7157 207.716Z" fill="#EBEBEB"/>
<path d="M87.4308 221.497C87.378 218.073 87.4308 214.626 87.2271 211.209C87.2271 211.088 87.031 211.028 86.9933 211.171C86.1409 214.422 86.3899 227.502 86.239 230.624V230.587C85.9146 230.217 79.0429 222.953 78.9675 223.044C77.6399 224.854 73.0387 233.257 72.7143 234.026C70.3081 229.5 60.0043 211.639 57.1003 207.332C57.0833 207.307 57.0581 207.29 57.0294 207.284C57.0007 207.277 56.9705 207.281 56.9446 207.295C56.9186 207.308 56.8986 207.331 56.8884 207.359C56.8781 207.387 56.8784 207.417 56.889 207.445C58.9785 212.189 72.2617 235.754 72.4654 235.701C74.8676 231.75 77.0606 227.677 79.0354 223.496C80.1819 225.065 87.0763 233.219 87.1215 232.714C87.42 228.983 87.5232 225.239 87.4308 221.497Z" fill="#333333"/>
<path d="M155.681 317.912H101.084C96.4304 317.912 103.166 304.652 120.168 299.56C137.17 294.469 161.044 312.942 155.681 317.912Z" fill="#434343"/>
<path d="M134.258 317.913C134.306 316.404 134.56 314.91 135.012 313.47C135.456 312.015 136.074 310.62 136.853 309.314C137.641 307.998 138.628 306.812 139.779 305.799C140.885 304.779 142.162 303.962 143.551 303.385C143.249 303.611 142.94 303.822 142.638 304.033L142.178 304.35L141.756 304.712L140.911 305.421L140.156 306.176C139.139 307.231 138.248 308.4 137.501 309.661C136.75 310.923 136.104 312.245 135.57 313.613C135.031 315.013 134.593 316.45 134.258 317.913Z" fill="#333333"/>
<path d="M140.723 305.293C142.338 305.813 143.91 306.461 145.422 307.232C146.951 307.986 148.419 308.858 149.812 309.841C151.214 310.819 152.482 311.975 153.584 313.281C154.134 313.948 154.61 314.674 155.002 315.446C155.38 316.217 155.601 317.055 155.65 317.912C155.454 317.109 155.125 316.345 154.677 315.65C154.243 314.948 153.738 314.293 153.169 313.696C152.001 312.509 150.726 311.433 149.359 310.483C148.009 309.502 146.576 308.635 145.135 307.767C144.381 307.337 143.68 306.93 142.94 306.53C142.201 306.13 141.469 305.693 140.723 305.293Z" fill="#333333"/>
<path d="M46.7285 216.24C28.8967 241.358 3.06183 286.322 14.9647 294.333C34.5766 307.495 88.3962 311.025 100.706 311.327C105.987 311.463 113.258 276.139 109.328 272.036C105.398 267.932 49.0291 270.135 48.3125 266.755C47.8976 264.824 54.792 247.03 58.2844 225.676C62.3124 201.025 51.7597 209.164 46.7285 216.24Z" fill="#CC837B"/>
<path d="M99.8767 270.075C99.8767 270.075 115.951 268.415 126.519 267.812C132.417 267.48 142.57 267.812 147.013 269.562C153.651 272.164 179.772 287.288 176.242 293.7C173.044 299.5 152.256 283.66 152.256 283.66C152.256 283.66 174.651 297.788 169.514 304.071C164.377 310.355 143.272 289.332 143.272 289.332C143.272 289.332 165.954 304.365 159.64 310.008C154.865 314.269 134.673 296.302 134.673 296.302C134.673 296.302 154.111 309.374 149.351 313.945C144.139 319.022 124.459 303.604 124.459 303.604C110.49 313.266 99.8918 312.15 92.4393 310.46C90.6365 310.083 99.8767 270.075 99.8767 270.075Z" fill="#CC837B"/>
<path d="M144.827 278.289C147.52 279.858 150.25 281.42 152.792 283.222C155.334 285.025 157.816 286.911 160.177 288.932C165.977 293.903 168.829 297.924 168.625 297.697C163.82 292.282 154.821 285.697 152.272 283.901C149.722 282.106 147.293 280.183 144.729 278.387C144.691 278.342 144.759 278.252 144.827 278.289Z" fill="#333333"/>
<path d="M138.166 287.348C141.515 289.498 144.917 291.504 148.175 293.805C151.434 296.105 155.847 299.439 158.917 301.944C159.15 302.132 158.977 302.555 158.728 302.374C155.56 299.997 150.883 296.784 147.685 294.446C144.487 292.107 141.379 289.641 138.105 287.423C138.053 287.393 138.113 287.318 138.166 287.348Z" fill="#333333"/>
<path d="M131.052 294.099C136.333 297.116 141.055 301.107 145.595 305.135C145.822 305.338 145.595 305.391 145.339 305.202C140.572 301.431 136.853 298.459 130.939 294.28C130.849 294.22 130.939 294.039 131.052 294.099Z" fill="#333333"/>
<path d="M157.687 275.181C160.915 277.005 164.047 278.994 167.07 281.14C168.579 282.226 170.05 283.358 171.46 284.572C172.899 285.769 174.214 287.108 175.383 288.57C175.985 289.322 176.459 290.168 176.786 291.074C176.953 291.559 177.019 292.072 176.982 292.583C176.941 293.105 176.752 293.604 176.439 294.024C176.142 294.446 175.752 294.794 175.3 295.042C174.834 295.285 174.316 295.412 173.791 295.412C172.821 295.381 171.864 295.182 170.962 294.823C169.228 294.137 167.531 293.359 165.878 292.492C164.219 291.67 162.582 290.81 160.915 290.011L161.292 289.392C163.417 291.051 165.384 292.901 167.168 294.921C168.066 295.937 168.862 297.038 169.544 298.21C170.289 299.399 170.66 300.784 170.608 302.185C170.531 302.902 170.248 303.58 169.792 304.139C169.337 304.697 168.729 305.111 168.043 305.331C166.681 305.616 165.264 305.466 163.993 304.901C161.527 303.837 159.187 302.504 157.015 300.926L157.113 300.82C157.894 301.673 158.594 302.597 159.203 303.581C158.553 302.629 157.818 301.737 157.008 300.918L156.623 300.511L157.098 300.812C159.301 302.297 161.655 303.544 164.121 304.531C165.311 305.038 166.63 305.159 167.892 304.878C168.479 304.679 168.996 304.313 169.379 303.826C169.762 303.338 169.995 302.75 170.05 302.132C170.057 300.852 169.687 299.598 168.986 298.527C168.314 297.398 167.533 296.337 166.655 295.359C164.888 293.389 162.944 291.586 160.847 289.973L158.2 287.906L161.217 289.355C162.891 290.164 164.551 290.989 166.195 291.829C167.817 292.694 169.484 293.472 171.189 294.159C172.006 294.498 172.877 294.69 173.761 294.725C174.173 294.729 174.58 294.632 174.946 294.441C175.312 294.251 175.625 293.974 175.859 293.635C176.093 293.295 176.24 292.903 176.287 292.494C176.334 292.084 176.28 291.669 176.129 291.286C175.832 290.444 175.404 289.655 174.862 288.947C173.742 287.494 172.479 286.157 171.091 284.957C169.718 283.727 168.269 282.581 166.799 281.465C163.917 279.247 160.825 277.15 157.687 275.181Z" fill="#333333"/>
<path d="M99.8998 267.97L84.8137 313.545C84.8137 313.545 16.0137 304.788 10.892 292.357C5.77028 279.926 26.3175 242.271 43.327 219.121C60.065 196.357 61.4831 211.744 58.3678 228.429C55.2526 245.115 49.3992 264.538 50.3873 265.85C51.3754 267.163 99.8998 267.97 99.8998 267.97Z" fill="#FFC727"/>
<path d="M76.4184 307.058C76.9539 305.754 77.4669 304.441 77.9798 303.129C78.9855 300.458 80.0064 297.788 81.0423 295.118C83.0563 289.838 84.9194 284.444 86.7222 279.059C87.7405 276.004 88.8795 272.964 89.7394 269.864C89.7504 269.833 89.7486 269.799 89.7345 269.769C89.7203 269.739 89.695 269.716 89.664 269.705C89.6329 269.694 89.5988 269.696 89.5691 269.71C89.5394 269.724 89.5166 269.75 89.5056 269.781C88.3364 272.383 87.3633 275.061 86.3148 277.739C85.2664 280.416 84.1802 283.019 83.1694 285.719C81.1705 291.037 79.2621 296.378 77.4065 301.748C76.8936 303.257 76.3128 304.765 75.8979 306.274C75.6641 307.028 75.3699 307.828 75.1436 308.612C74.9173 309.397 74.7589 310.204 74.5175 310.988C74.5115 311.005 74.5126 311.024 74.5203 311.04C74.5281 311.057 74.542 311.069 74.559 311.075C74.576 311.081 74.5947 311.08 74.611 311.072C74.6273 311.065 74.6398 311.051 74.6458 311.034C75.1889 309.699 75.8451 308.401 76.4184 307.058Z" fill="#333333"/>
<path d="M85.9972 310.415L84.9337 313.598V313.696H84.8205C78.326 313.1 71.8616 312.278 65.4198 311.29C58.9781 310.302 52.559 309.11 46.1851 307.699C39.8044 306.331 33.5081 304.596 27.3275 302.502C24.2228 301.448 21.1978 300.173 18.2759 298.685C16.8173 297.931 15.4246 297.055 14.1121 296.068C12.7585 295.121 11.6661 293.847 10.9365 292.364C11.7907 293.743 12.9525 294.904 14.3309 295.759C15.6895 296.624 17.1145 297.381 18.5927 298.022C21.5531 299.326 24.5911 300.447 27.6896 301.378C33.8824 303.287 40.1959 304.818 46.5472 306.206C52.8984 307.594 59.2723 308.846 65.6612 310.015C72.0502 311.184 78.4844 312.323 84.8884 313.387L84.7451 313.477L85.9972 310.415Z" fill="#333333"/>
<path d="M99.3117 269.742L99.802 267.932L99.8774 268.045C93.0887 268.219 86.2999 268.302 79.5112 268.234C72.7225 268.166 65.9338 268.03 59.145 267.668C57.4403 267.563 55.7356 267.449 54.0309 267.283C53.1709 267.2 52.3261 267.11 51.4436 266.952C51.2121 266.914 50.983 266.864 50.7572 266.801C50.6236 266.767 50.4925 266.724 50.3649 266.672C50.2691 266.628 50.1759 266.577 50.0858 266.522C49.9951 266.463 49.9179 266.386 49.8596 266.295C49.8173 266.242 49.7819 266.184 49.754 266.122C49.7495 266.092 49.7495 266.061 49.754 266.031C49.6862 265.735 49.6709 265.428 49.7087 265.126C49.7087 264.907 49.7087 264.666 49.7841 264.455C50.3121 261.023 51.0966 257.734 51.8886 254.415C53.4727 247.8 55.2528 241.23 57.1688 234.705L53.0276 254.671C52.3789 257.99 51.6246 261.332 51.1947 264.628C51.1947 264.839 51.1947 265.028 51.1343 265.224C51.1422 265.345 51.1422 265.466 51.1343 265.586C51.1213 265.547 51.1036 265.509 51.0815 265.473C51.0438 265.405 50.9382 265.337 50.9684 265.352L51.1796 265.413C51.3633 265.463 51.5496 265.504 51.7378 265.533C52.4921 265.669 53.3746 265.752 54.2043 265.828C55.8789 265.978 57.5685 266.084 59.2657 266.175C62.645 266.356 66.0343 266.506 69.4337 266.627L79.6093 267.019C86.398 267.261 93.1867 267.563 99.9755 267.887H100.096V267.985L99.3117 269.742Z" fill="#333333"/>
<path d="M58.2247 238.816C57.8402 239.997 57.3347 241.134 56.7161 242.211C56.1292 243.31 55.3959 244.325 54.5361 245.228C55.0641 244.097 55.6223 243.01 56.2182 241.939C56.8156 240.854 57.4859 239.811 58.2247 238.816Z" fill="#333333"/>
<path d="M164.537 312.263H159.038V315.854H164.537V312.263Z" fill="#676767"/>
<path d="M171.665 312.029H166.166V315.62H171.665V312.029Z" fill="#676767"/>
<path d="M178.793 311.788H173.294V315.379H178.793V311.788Z" fill="#676767"/>
<path d="M185.922 311.554H180.423V315.144H185.922V311.554Z" fill="#676767"/>
<path d="M193.05 311.312H187.551V314.903H193.05V311.312Z" fill="#676767"/>
<path d="M200.178 311.079H194.679V314.669H200.178V311.079Z" fill="#676767"/>
<path d="M207.306 310.837H201.808V314.428H207.306V310.837Z" fill="#676767"/>
<path d="M214.434 310.604H208.936V314.194H214.434V310.604Z" fill="#676767"/>
<path d="M221.562 310.362H216.063V313.953H221.562V310.362Z" fill="#676767"/>
<path d="M222.905 317.913H157.695V313.553L222.905 311.728V317.913Z" fill="#434343"/>
<path d="M276.008 296.981H168.354L185.469 216.829H293.13L276.008 296.981Z" fill="#676767"/>
<path d="M279.991 296.981H172.329L189.452 216.829H297.113L279.991 296.981Z" fill="#434343"/>
<path d="M244.025 252.266C243.695 254.087 242.752 255.74 241.352 256.95C239.953 258.161 238.181 258.855 236.331 258.919C235.495 258.945 234.663 258.781 233.899 258.44C233.135 258.099 232.457 257.589 231.918 256.949C231.379 256.309 230.992 255.555 230.785 254.744C230.579 253.933 230.559 253.086 230.727 252.266C231.057 250.441 232.003 248.784 233.408 247.571C234.812 246.359 236.589 245.665 238.443 245.605C239.279 245.581 240.11 245.746 240.873 246.089C241.635 246.432 242.311 246.942 242.848 247.583C243.385 248.224 243.77 248.979 243.974 249.79C244.178 250.601 244.195 251.447 244.025 252.266Z" fill="#333333"/>
<path d="M249.547 317.913H196.595V313.802L249.547 312.09V317.913Z" fill="#676767"/>
<path d="M263.939 317.913H235.509L218.387 272.994H246.816L263.939 317.913Z" fill="#676767"/>
<path d="M268.623 317.913H240.193L223.07 272.994H251.5L268.623 317.913Z" fill="#333333"/>
<path d="M285.203 257.779C295.054 267.419 296.706 282.339 294.632 295.411C294.579 295.705 294.119 295.63 294.119 295.351C294.119 292.334 294.21 289.422 294.202 286.488C294.149 286.352 294.104 286.224 294.044 286.088C291.479 284.217 289.11 282.105 287.647 279.216C286.003 275.98 285.384 272.329 284.094 268.95C283.981 268.626 284.328 268.724 284.554 268.89C290.544 273.31 292.452 278.062 294.172 284.421C294.136 281.097 293.787 277.783 293.131 274.524C291.833 268.49 289.276 262.516 284.939 258.035C284.905 258 284.886 257.953 284.887 257.905C284.888 257.856 284.908 257.809 284.943 257.775C284.978 257.741 285.025 257.722 285.074 257.723C285.123 257.724 285.169 257.744 285.203 257.779Z" fill="#333333"/>
<path d="M283.347 258.881C281.658 258.941 280.594 261.649 279.274 262.433C279.136 262.547 278.975 262.63 278.802 262.677C278.63 262.724 278.449 262.734 278.273 262.706C278.096 262.678 277.927 262.614 277.777 262.516C277.627 262.418 277.5 262.29 277.403 262.139C276.091 260.314 277.886 258.059 279.576 256.799C278.369 257.297 277.366 258.172 276.068 258.421C275.902 258.475 275.725 258.493 275.551 258.474C275.377 258.454 275.209 258.397 275.059 258.307C274.909 258.217 274.78 258.096 274.681 257.951C274.581 257.807 274.514 257.643 274.484 257.47C273.911 254.981 277.034 253.872 279.176 253.819C278.135 253.065 275.155 251.134 276.739 250.169C278.324 249.203 281.839 252.001 282.978 252.929C284.652 254.287 286.651 256.324 286.749 258.443C286.824 260.948 284.652 259.424 283.347 258.881Z" fill="#FFC727"/>
<path opacity="0.1" d="M283.347 258.881C281.658 258.941 280.594 261.649 279.274 262.433C279.136 262.547 278.975 262.63 278.802 262.677C278.63 262.724 278.449 262.734 278.273 262.706C278.096 262.678 277.927 262.614 277.777 262.516C277.627 262.418 277.5 262.29 277.403 262.139C276.091 260.314 277.886 258.059 279.576 256.799C278.369 257.297 277.366 258.172 276.068 258.421C275.902 258.475 275.725 258.493 275.551 258.474C275.377 258.454 275.209 258.397 275.059 258.307C274.909 258.217 274.78 258.096 274.681 257.951C274.581 257.807 274.514 257.643 274.484 257.47C273.911 254.981 277.034 253.872 279.176 253.819C278.135 253.065 275.155 251.134 276.739 250.169C278.324 249.203 281.839 252.001 282.978 252.929C284.652 254.287 286.651 256.324 286.749 258.443C286.824 260.948 284.652 259.424 283.347 258.881Z" fill="black"/>
<path d="M283.853 259.318C281.688 258.337 277.524 259.755 277.17 258.933C276.453 257.266 279.78 256.12 281.575 255.916C279.923 255.471 276.755 254.754 276.853 253.163C276.973 251.217 281.711 252.891 284.109 254.732C287.126 257.047 287.126 259.258 286.613 259.733C285.912 260.321 284.2 259.484 283.853 259.318Z" fill="#FFC727"/>
<path d="M307.636 256.821C297.422 266.084 295.205 280.959 296.781 294.069C296.826 294.37 297.287 294.303 297.302 294.069C297.415 291.051 297.43 288.14 297.551 285.206L297.724 284.813C300.364 283.048 302.808 281.042 304.377 278.191C306.142 275.015 306.934 271.402 308.314 268.068C308.443 267.751 308.096 267.834 307.862 267.985C301.707 272.179 299.617 276.856 297.656 283.139C297.823 279.821 298.298 276.525 299.074 273.295C300.583 267.314 303.389 261.438 307.885 257.13C307.926 257.097 307.952 257.05 307.957 256.997C307.963 256.945 307.948 256.892 307.915 256.851C307.882 256.81 307.834 256.784 307.781 256.778C307.729 256.773 307.677 256.788 307.636 256.821Z" fill="#333333"/>
<path d="M309.446 258.02C311.136 258.141 312.094 260.887 313.383 261.724C313.516 261.844 313.673 261.934 313.844 261.988C314.014 262.042 314.194 262.06 314.372 262.039C314.55 262.018 314.721 261.96 314.874 261.868C315.028 261.776 315.16 261.652 315.262 261.505C316.642 259.725 314.93 257.409 313.293 256.082C314.477 256.625 315.45 257.537 316.74 257.832C316.905 257.893 317.08 257.918 317.255 257.905C317.431 257.893 317.601 257.842 317.755 257.758C317.909 257.673 318.043 257.557 318.147 257.416C318.252 257.275 318.325 257.113 318.362 256.942C319.026 254.475 315.948 253.253 313.836 253.117C314.907 252.438 317.955 250.583 316.408 249.565C314.862 248.546 311.249 251.201 310.072 252.084C308.345 253.381 306.301 255.335 306.12 257.455C305.893 259.929 308.118 258.488 309.446 258.02Z" fill="#FFC727"/>
<path opacity="0.1" d="M309.446 258.02C311.136 258.141 312.094 260.887 313.383 261.724C313.516 261.844 313.673 261.934 313.844 261.988C314.014 262.042 314.194 262.06 314.372 262.039C314.55 262.018 314.721 261.96 314.874 261.868C315.028 261.776 315.16 261.652 315.262 261.505C316.642 259.725 314.93 257.409 313.293 256.082C314.477 256.625 315.45 257.537 316.74 257.832C316.905 257.893 317.08 257.918 317.255 257.905C317.431 257.893 317.601 257.842 317.755 257.758C317.909 257.673 318.043 257.557 318.147 257.416C318.252 257.275 318.325 257.113 318.362 256.942C319.026 254.475 315.948 253.253 313.836 253.117C314.907 252.438 317.955 250.583 316.408 249.565C314.862 248.546 311.249 251.201 310.072 252.084C308.345 253.381 306.301 255.335 306.12 257.455C305.893 259.929 308.118 258.488 309.446 258.02Z" fill="black"/>
<path d="M308.941 258.413C311.143 257.515 315.247 259.091 315.631 258.284C316.386 256.64 313.135 255.373 311.347 255.079C313.014 254.694 316.205 254.105 316.175 252.506C316.129 250.56 311.324 252.046 308.858 253.796C305.75 255.999 305.682 258.232 306.165 258.699C306.829 259.34 308.571 258.563 308.941 258.413Z" fill="#FFC727"/>
<path d="M297.197 281.283C296.506 286.238 295.447 291.134 294.029 295.932C293.998 296.015 293.94 296.084 293.862 296.128C293.785 296.171 293.695 296.185 293.609 296.168C293.522 296.151 293.445 296.103 293.39 296.033C293.336 295.964 293.308 295.877 293.312 295.789C293.983 291.263 295.205 286.842 295.877 282.332C296.599 277.763 296.852 273.133 296.631 268.513C296.201 260.91 294.134 252.823 289.171 246.872C289.065 246.729 289.292 246.533 289.405 246.661C299.339 258.247 297.762 272.45 297.755 273.725C299.158 268.928 300.606 263.429 305.932 258.549C306.158 258.337 306.339 258.435 306.301 258.79C305.351 267.691 302.877 272.33 297.717 277.089C297.604 278.492 297.431 279.903 297.197 281.283Z" fill="#333333"/>
<path d="M289.133 248.2C287.345 247.445 284.878 249.708 283.098 249.844C282.898 249.885 282.691 249.885 282.49 249.844C282.29 249.802 282.1 249.721 281.932 249.604C281.764 249.486 281.621 249.336 281.513 249.162C281.405 248.988 281.334 248.794 281.303 248.592C280.865 246.042 283.868 244.609 286.251 244.149C284.743 244.051 283.272 244.458 281.793 244.058C281.593 244.03 281.401 243.96 281.23 243.852C281.059 243.743 280.913 243.599 280.803 243.43C280.692 243.261 280.619 243.07 280.588 242.87C280.557 242.67 280.569 242.466 280.624 242.271C281.288 239.404 285.082 239.827 287.337 240.853C286.621 239.578 284.516 236.04 286.643 235.837C288.771 235.633 291.011 240.31 291.727 241.871C292.783 244.134 293.832 247.242 292.836 249.482C291.682 252.092 290.204 249.399 289.133 248.2Z" fill="#FFC727"/>
<path opacity="0.1" d="M289.133 248.2C287.345 247.445 284.878 249.708 283.098 249.844C282.898 249.885 282.691 249.885 282.49 249.844C282.29 249.802 282.1 249.721 281.932 249.604C281.764 249.486 281.621 249.336 281.513 249.162C281.405 248.988 281.334 248.794 281.303 248.592C280.865 246.042 283.868 244.609 286.251 244.149C284.743 244.051 283.272 244.458 281.793 244.058C281.593 244.03 281.401 243.96 281.23 243.852C281.059 243.743 280.913 243.599 280.803 243.43C280.692 243.261 280.619 243.07 280.588 242.87C280.557 242.67 280.569 242.466 280.624 242.271C281.288 239.404 285.082 239.827 287.337 240.853C286.621 239.578 284.516 236.04 286.643 235.837C288.771 235.633 291.011 240.31 291.727 241.871C292.783 244.134 293.832 247.242 292.836 249.482C291.682 252.092 290.204 249.399 289.133 248.2Z" fill="black"/>
<path d="M289.412 248.886C287.662 246.774 282.623 246.148 282.668 245.115C282.766 243.025 286.794 243.508 288.771 244.187C287.262 242.889 284.35 240.551 285.256 238.944C286.357 236.983 290.438 241.109 291.999 244.224C293.968 248.154 292.821 250.463 292.074 250.674C291.056 250.968 289.698 249.233 289.412 248.886Z" fill="#FFC727"/>
<path d="M303.728 283.961L308.111 317.445H281.446C281.997 314.48 286.96 283.923 286.96 283.923L303.728 283.961Z" fill="#FFC727"/>
</svg>
